<svg xmlns="http://www.w3.org/2000/svg" viewBox="0 0 90 38" height="38mm" width="90mm"><defs><path id="c" d="M114.9744 15.2727h57.6588V28.143h-57.6588z"/><path id="b" d="M80.1606 42.1433h60.4151v16.7984H80.1606z"/><path id="a" d="M53.5996 65.0289h38.4262v20.0998H53.5996z"/></defs><g font-size="10.5833"><text style="line-height:1.25;white-space:pre;shape-inside:url(#a)" font-weight="400" font-family="sans-serif"/><g font-family="Zefir"><path style="line-height:1.25;-inkscape-font-specification:Zefir" d="M32.6372 33.7322h-5.2171V8.1158c-5.0086.974-9.4084 3.3564-13.1995 7.1476-5.1129 5.078-7.6693 11.2343-7.6693 18.4688H1.3341c0-8.6605 3.0434-16.0341 9.1301-22.1208 6.1215-6.1215 13.5125-9.1823 22.173-9.1823zm26.086 0H53.506V8.1158c-5.0085.974-9.4083 3.3564-13.1994 7.1476-5.113 5.078-7.6694 11.2343-7.6694 18.4688h-5.2171c0-8.6605 3.0433-16.0341 9.13-22.1208C42.6718 5.4899 50.0628 2.429 58.7233 2.429zm0 0V28.515z" font-weight="400"/><g aria-label="lb" style="line-height:1.25" font-weight="700" stroke-width=".2646"><path d="M86.0858 34.3981H33.6021v-4.0507h52.4837zm0-4.0507h-5.2376v-4.7259l5.2376 2.0254z" style="-inkscape-font-specification:Zefir"/><path d="M65.1356 23.5421V11.39c5.7962 0 10.7428 1.5843 14.8397 4.7529 4.0737 3.1506 6.1105 6.9673 6.1105 11.4501H28.3104v-4.0508zm14.8746 0c-.7449-1.6743-1.9902-3.1866-3.736-4.5368-1.746-1.3683-3.713-2.3404-5.901-2.9165v7.4533z" style="-inkscape-font-specification:Zefir"/></g></g></g></svg>