<?xml version="1.0" encoding="UTF-8" standalone="no"?>
<svg
   xmlns:osb="http://www.openswatchbook.org/uri/2009/osb"
   xmlns:dc="http://purl.org/dc/elements/1.1/"
   xmlns:cc="http://creativecommons.org/ns#"
   xmlns:rdf="http://www.w3.org/1999/02/22-rdf-syntax-ns#"
   xmlns:svg="http://www.w3.org/2000/svg"
   xmlns="http://www.w3.org/2000/svg"
   xmlns:xlink="http://www.w3.org/1999/xlink"
   xmlns:sodipodi="http://sodipodi.sourceforge.net/DTD/sodipodi-0.dtd"
   xmlns:inkscape="http://www.inkscape.org/namespaces/inkscape"
   version="1.1"
   id="svg28"
   xml:space="preserve"
   width="569"
   height="374"
   viewBox="0 0 569 374.00002"
   sodipodi:docname="logo_malb.svg"
   inkscape:version="1.0 (4035a4f, 2020-05-01)"><metadata
     id="metadata34"><rdf:RDF><cc:Work
         rdf:about=""><dc:format>image/svg+xml</dc:format><dc:type
           rdf:resource="http://purl.org/dc/dcmitype/StillImage" /><dc:title /></cc:Work></rdf:RDF></metadata><defs
     id="defs32"><linearGradient
       osb:paint="solid"
       id="linearGradient3574"><stop
         id="stop3572"
         offset="0"
         style="stop-color:#161650;stop-opacity:1;" /></linearGradient><linearGradient
       osb:paint="solid"
       id="linearGradient3568"><stop
         id="stop3566"
         offset="0"
         style="stop-color:#000000;stop-opacity:1;" /></linearGradient><linearGradient
       osb:paint="solid"
       id="linearGradient3562"><stop
         id="stop3560"
         offset="0"
         style="stop-color:#000000;stop-opacity:1;" /></linearGradient><linearGradient
       osb:paint="solid"
       id="linearGradient3550"><stop
         id="stop3548"
         offset="0"
         style="stop-color:#ffffff;stop-opacity:1;" /></linearGradient><linearGradient
       osb:paint="solid"
       id="linearGradient3441"><stop
         id="stop3439"
         offset="0"
         style="stop-color:#000000;stop-opacity:1;" /></linearGradient><linearGradient
       osb:paint="solid"
       id="linearGradient3431"><stop
         id="stop3429"
         offset="0"
         style="stop-color:#000000;stop-opacity:1;" /></linearGradient><linearGradient
       osb:paint="solid"
       id="dim_sun"><stop
         id="stop1505"
         offset="0"
         style="stop-color:#ffd42a;stop-opacity:1;" /></linearGradient><linearGradient
       osb:paint="solid"
       id="linearGradient1501"><stop
         id="stop1499"
         offset="0"
         style="stop-color:#000000;stop-opacity:1;" /></linearGradient><linearGradient
       gradientUnits="userSpaceOnUse"
       y2="247.49709"
       x2="363.14124"
       y1="247.49709"
       x1="199.73444"
       id="linearGradient3576"
       xlink:href="#linearGradient3574"
       inkscape:collect="always"
       gradientTransform="matrix(1.3514894,0.00138501,-0.00138501,1.3514894,6.1059645,-100.42509)" /></defs><sodipodi:namedview
     inkscape:document-rotation="0"
     pagecolor="#ffffff"
     bordercolor="#666666"
     borderopacity="1"
     objecttolerance="10"
     gridtolerance="10"
     guidetolerance="10"
     inkscape:pageopacity="0"
     inkscape:pageshadow="2"
     inkscape:window-width="1440"
     inkscape:window-height="847"
     id="namedview30"
     showgrid="false"
     inkscape:snap-global="false"
     inkscape:zoom="1.2876818"
     inkscape:cx="289.70285"
     inkscape:cy="170.29266"
     inkscape:window-x="0"
     inkscape:window-y="25"
     inkscape:window-maximized="0"
     inkscape:current-layer="g222" /><g
     id="g36"
     inkscape:groupmode="layer"
     inkscape:label="name_font4"
     transform="matrix(1.3333333,0,0,1.3333333,0,3.3396326e-5)"><g
       id="g222"
       transform="rotate(180,281.8045,203.496)"><g
         transform="matrix(1.1464342,0,0,1.1464342,-36.305152,-58.362942)"
         id="g881"><path
           id="path42-8-4-0-4-9-2"
           style="fill:#161650;fill-opacity:1;fill-rule:nonzero;stroke:none;stroke-width:0.741994"
           d="m 176.17114,272.70916 52.94388,0.44963 0.4657,17.59073 -54.04284,-0.37017 z m -0.47436,17.43184 5.73538,0.3468 v 0 z"
           sodipodi:nodetypes="ccccccccc" /><path
           d="m 295.9756,281.7313 -19.98633,-0.18544 0.91047,-98.13152 c -19.22355,3.54921 -36.15923,12.52043 -50.82188,26.90812 -19.76544,19.27079 -29.77675,42.76648 -30.03389,70.48166 l -19.98633,-0.18545 c 0.30784,-33.179 12.23144,-61.31844 35.7654,-84.4197 23.66624,-23.23113 52.08618,-34.69347 85.26518,-34.38563 z m 99.93299,0.9272 -19.98769,-0.18546 0.91049,-98.13152 c -19.22357,3.54921 -36.1633,12.5204 -50.82053,26.90814 -19.76679,19.27078 -29.7781,42.76648 -30.03526,70.48164 l -19.98633,-0.18544 c 0.30784,-33.179 12.22603,-61.31849 35.75998,-84.41975 23.67346,-23.23062 52.09295,-34.69342 85.27197,-34.38557 z m 0,0 0.18544,-19.98633 z"
           style="fill:#161650;fill-opacity:1;fill-rule:nonzero;stroke:none;stroke-width:1.35149"
           id="path40-0" /><path
           id="path40"
           style="fill:url(#linearGradient3576);fill-opacity:1;fill-rule:nonzero;stroke:none;stroke-width:1.35149"
           d="m 376.68675,174.89518 19.98633,0.18544 -0.91047,98.13152 c 19.22355,-3.54921 36.15924,-12.52043 50.82189,-26.90812 19.76543,-19.27079 29.77674,-42.76648 30.03388,-70.48166 l 19.98634,0.18545 c -0.30784,33.179 -12.23145,61.31844 -35.7654,84.41969 -23.66625,23.23114 -52.08618,34.69348 -85.26518,34.38564 z m -99.93298,-0.9272 19.98768,0.18546 -0.91049,98.13152 c 19.22357,-3.54921 36.16331,-12.5204 50.82054,-26.90814 19.76678,-19.27079 29.7781,-42.76648 30.03525,-70.48164 l 19.98633,0.18544 c -0.30784,33.179 -12.22602,61.31849 -35.75998,84.41975 -23.67346,23.23062 -52.09295,34.69341 -85.27196,34.38557 z m 0,0 -0.18545,19.98633 z" /><path
           id="path42-8-4-0-4-9-7"
           style="fill:#161650;fill-opacity:1;fill-rule:nonzero;stroke:none;stroke-width:1.49998"
           d="m 226.47185,404.27228 2.03562,-218.45495 17.5967,0.16257 -2.0356,218.45495 z m 17.59672,0.16257 0.20315,-21.80248 v 0 z"
           sodipodi:nodetypes="cccccccccc" /><path
           sodipodi:nodetypes="cccccccccc"
           d="m 251.92814,375.98601 2.02436,-207.46974 17.59671,0.15529 -2.02434,207.46976 z m 17.59673,0.15531 0.20202,-20.70615 v 0 z"
           style="fill:#161650;fill-opacity:1;fill-rule:nonzero;stroke:none;stroke-width:1.46177"
           id="path42-8-4-0-4-9-7-3" /><path
           id="path42-8-4-0-4-9-1"
           style="fill:#161650;fill-opacity:1;fill-rule:nonzero;stroke:none;stroke-width:0.43621"
           d="m 497.62603,162.34154 -1.16736,16.26354 -19.9527,-0.20938 0.69345,-15.85224 z m -21.18814,0.0859 1.78289,1.61343 v 0 z"
           sodipodi:nodetypes="ccccccccc" /></g></g></g></svg>
