<?xml version="1.0" encoding="UTF-8" standalone="no"?>
<svg
   xmlns:osb="http://www.openswatchbook.org/uri/2009/osb"
   xmlns:dc="http://purl.org/dc/elements/1.1/"
   xmlns:cc="http://creativecommons.org/ns#"
   xmlns:rdf="http://www.w3.org/1999/02/22-rdf-syntax-ns#"
   xmlns:svg="http://www.w3.org/2000/svg"
   xmlns="http://www.w3.org/2000/svg"
   xmlns:xlink="http://www.w3.org/1999/xlink"
   xmlns:sodipodi="http://sodipodi.sourceforge.net/DTD/sodipodi-0.dtd"
   xmlns:inkscape="http://www.inkscape.org/namespaces/inkscape"
   inkscape:version="1.0 (4035a4f, 2020-05-01)"
   sodipodi:docname="logo_malb.svg"
   viewBox="0 0 569 374.00002"
   height="374"
   width="569"
   xml:space="preserve"
   id="svg28"
   version="1.1"><metadata
     id="metadata34"><rdf:RDF><cc:Work
         rdf:about=""><dc:format>image/svg+xml</dc:format><dc:type
           rdf:resource="http://purl.org/dc/dcmitype/StillImage" /><dc:title /></cc:Work></rdf:RDF></metadata><defs
     id="defs32"><linearGradient
       id="linearGradient3574"
       osb:paint="solid"><stop
         style="stop-color:#161650;stop-opacity:1;"
         offset="0"
         id="stop3572" /></linearGradient><linearGradient
       id="linearGradient3568"
       osb:paint="solid"><stop
         style="stop-color:#000000;stop-opacity:1;"
         offset="0"
         id="stop3566" /></linearGradient><linearGradient
       id="linearGradient3562"
       osb:paint="solid"><stop
         style="stop-color:#000000;stop-opacity:1;"
         offset="0"
         id="stop3560" /></linearGradient><linearGradient
       id="linearGradient3550"
       osb:paint="solid"><stop
         style="stop-color:#ffffff;stop-opacity:1;"
         offset="0"
         id="stop3548" /></linearGradient><linearGradient
       id="linearGradient3441"
       osb:paint="solid"><stop
         style="stop-color:#000000;stop-opacity:1;"
         offset="0"
         id="stop3439" /></linearGradient><linearGradient
       id="linearGradient3431"
       osb:paint="solid"><stop
         style="stop-color:#000000;stop-opacity:1;"
         offset="0"
         id="stop3429" /></linearGradient><linearGradient
       id="dim_sun"
       osb:paint="solid"><stop
         style="stop-color:#ffd42a;stop-opacity:1;"
         offset="0"
         id="stop1505" /></linearGradient><linearGradient
       id="linearGradient1501"
       osb:paint="solid"><stop
         style="stop-color:#000000;stop-opacity:1;"
         offset="0"
         id="stop1499" /></linearGradient><linearGradient
       gradientTransform="matrix(1.5493937,0.00158782,-0.00158782,1.5493937,-18.319057,-183.48302)"
       inkscape:collect="always"
       xlink:href="#linearGradient3574"
       id="linearGradient3576"
       x1="199.73444"
       y1="247.49709"
       x2="363.14124"
       y2="247.49709"
       gradientUnits="userSpaceOnUse" /></defs><sodipodi:namedview
     inkscape:current-layer="g222"
     inkscape:window-maximized="0"
     inkscape:window-y="25"
     inkscape:window-x="0"
     inkscape:cy="314.77516"
     inkscape:cx="440.77634"
     inkscape:zoom="0.76303148"
     inkscape:snap-global="false"
     showgrid="false"
     id="namedview30"
     inkscape:window-height="847"
     inkscape:window-width="1440"
     inkscape:pageshadow="2"
     inkscape:pageopacity="0"
     guidetolerance="10"
     gridtolerance="10"
     objecttolerance="10"
     borderopacity="1"
     bordercolor="#666666"
     pagecolor="#ffffff"
     inkscape:document-rotation="0" /><g
     transform="matrix(1.3333333,0,0,1.3333333,0,3.3396326e-5)"
     inkscape:label="name_font4"
     inkscape:groupmode="layer"
     id="g36"><g
       transform="rotate(180,281.8045,203.496)"
       id="g222"><path
         id="path42-8-4-0-4-9-2"
         style="fill:#161650;fill-opacity:1;fill-rule:nonzero;stroke:none;stroke-width:0.850647"
         d="m 189.69947,244.14069 60.69667,0.51547 0.5339,20.16661 -61.95656,-0.42437 z m -0.54382,19.98445 6.57523,0.39759 v 0 z"
         sodipodi:nodetypes="ccccccccc" /><path
         id="path42-8-4-0-4-9-7"
         style="fill:#161650;fill-opacity:1;fill-rule:nonzero;stroke:none;stroke-width:1.71963"
         d="m 239.49082,400.89401 2.33371,-250.44423 20.17346,0.18638 -2.33369,250.44422 z m 20.17348,0.18637 0.2329,-24.99511 v 0 z"
         sodipodi:nodetypes="cccccccccc" /><path
         sodipodi:nodetypes="cccccccccc"
         d="m 264.92497,378.45267 2.3208,-240.73258 20.17347,0.18019 -2.32077,240.73259 z m 20.1735,0.1802 0.2316,-24.02589 v 0 z"
         style="fill:#161650;fill-opacity:1;fill-rule:nonzero;stroke:none;stroke-width:1.68595"
         id="path42-8-4-0-4-9-7-3" /><path
         d="m 313.7194,265.54079 -22.82604,-0.20965 1.03983,-110.93994 c -21.9549,4.01247 -41.29686,14.15463 -58.04281,30.42025 -22.57378,21.78607 -34.00753,48.34849 -34.3012,79.68114 l -22.82605,-0.20965 c 0.35158,-37.50963 13.96932,-69.32192 40.84706,-95.43842 27.02881,-26.26333 59.48673,-39.22177 97.37991,-38.87376 z m 114.13179,1.04822 -22.82762,-0.20967 1.03986,-110.93994 c -21.95492,4.01246 -41.30149,14.1546 -58.04127,30.42027 -22.57532,21.78606 -34.00905,48.34849 -34.30276,79.68112 l -22.82604,-0.20965 c 0.35157,-37.50962 13.96313,-69.32196 40.84085,-95.43847 27.03706,-26.26276 59.49449,-39.22171 97.38768,-38.87368 z m 0,0 0.21177,-22.595 z"
         style="fill:#818cf8;fill-opacity:1;fill-rule:nonzero;stroke:none;stroke-width:1.53568"
         id="path40-0" /><path
         sodipodi:nodetypes="ccccccscccccccccccccc"
         id="path40"
         style="fill:url(#linearGradient3576);fill-opacity:1;fill-rule:nonzero;stroke:none;stroke-width:1.54939"
         d="m 406.52744,132.15355 22.55056,-1.17129 -0.68134,113.88522 c 22.03853,-4.06894 41.45419,-14.35385 58.26395,-30.84839 22.65977,-22.09269 34.13708,-49.02896 34.43187,-80.80259 l 22.91302,0.21261 c -0.35292,38.03754 -14.02255,70.29756 -41.00267,96.78162 -27.1318,26.63297 -59.71338,39.77379 -97.75092,39.42087 z m -114.56659,-1.06297 22.91456,-1.12594 -1.04381,113.83989 c 22.03856,-4.06894 41.45885,-14.35382 58.2624,-30.84841 22.66132,-22.0927 34.16672,-48.98089 34.46152,-80.7545 l 22.52248,-1.21936 c -0.35292,38.03754 -13.65387,71.6815 -40.63401,98.16558 -27.14007,26.63237 -59.72114,39.77371 -97.75869,39.42079 z m 0,0 -0.2126,22.91301 z" /><path
         style="fill:#ffff00;fill-rule:evenodd;stroke:#ffffff;stroke-width:4.15083"
         d=""
         id="path864"
         transform="matrix(-0.75000002,0,0,-0.75000002,563.609,406.99203)" /></g></g></svg>
