<?xml version="1.0" encoding="UTF-8" standalone="no"?>
<svg
   xmlns:dc="http://purl.org/dc/elements/1.1/"
   xmlns:cc="http://creativecommons.org/ns#"
   xmlns:rdf="http://www.w3.org/1999/02/22-rdf-syntax-ns#"
   xmlns:svg="http://www.w3.org/2000/svg"
   xmlns="http://www.w3.org/2000/svg"
   xmlns:sodipodi="http://sodipodi.sourceforge.net/DTD/sodipodi-0.dtd"
   xmlns:inkscape="http://www.inkscape.org/namespaces/inkscape"
   inkscape:version="1.0 (4035a4f, 2020-05-01)"
   sodipodi:docname="newf_1.svg"
   viewBox="0 0 793.70081 1122.5197"
   height="1122.5197"
   width="793.70081"
   xml:space="preserve"
   id="svg28"
   version="1.1"><metadata
     id="metadata34"><rdf:RDF><cc:Work
         rdf:about=""><dc:format>image/svg+xml</dc:format><dc:type
           rdf:resource="http://purl.org/dc/dcmitype/StillImage" /><dc:title></dc:title></cc:Work></rdf:RDF></metadata><defs
     id="defs32" /><sodipodi:namedview
     inkscape:current-layer="g36"
     inkscape:window-maximized="0"
     inkscape:window-y="28"
     inkscape:window-x="0"
     inkscape:cy="256.23538"
     inkscape:cx="387.9226"
     inkscape:zoom="2.5807696"
     inkscape:snap-global="false"
     showgrid="false"
     id="namedview30"
     inkscape:window-height="872"
     inkscape:window-width="1440"
     inkscape:pageshadow="2"
     inkscape:pageopacity="0"
     guidetolerance="10"
     gridtolerance="10"
     objecttolerance="10"
     borderopacity="1"
     bordercolor="#666666"
     pagecolor="#ffffff" /><g
     transform="matrix(1.3333333,0,0,1.3333333,0,3.3396326e-5)"
     inkscape:label="name_font4"
     inkscape:groupmode="layer"
     id="g36"><path
       d="M 289.199,203.496 H 274.41 v -72.613 c -14.199,2.758 -26.668,9.512 -37.418,20.258 -14.492,14.394 -21.738,31.847 -21.738,52.355 h -14.789 c 0,-24.551 8.629,-45.453 25.883,-62.707 17.351,-17.351 38.3,-26.027 62.851,-26.027 z m 73.946,0 h -14.79 v -72.613 c -14.199,2.758 -26.671,9.512 -37.417,20.258 -14.493,14.394 -21.739,31.847 -21.739,52.355 H 274.41 c 0,-24.551 8.625,-45.453 25.879,-62.707 17.356,-17.351 38.305,-26.027 62.856,-26.027 z m 0,0 v -14.789 z"
       style="fill:#161650;fill-opacity:1;fill-rule:nonzero;stroke:none"
       id="path40" /><path
       id="path40-0"
       style="fill:#161650;fill-opacity:1;fill-rule:nonzero;stroke:none;stroke-width:0.999998"
       d="m 274.41,203.496 h 14.789 v 72.613 c 14.199,-2.758 26.668,-9.512 37.418,-20.258 14.492,-14.394 21.738,-31.847 21.738,-52.355 h 14.789 c 0,24.551 -8.629,45.453 -25.883,62.707 -17.351,17.351 -38.3,26.027 -62.851,26.027 z m -73.946,0 h 14.79 v 72.613 c 14.199,-2.758 26.671,-9.512 37.417,-20.258 14.493,-14.394 21.739,-31.847 21.739,-52.355 h 14.789 c 0,24.551 -8.625,45.453 -25.879,62.707 -17.356,17.351 -38.305,26.027 -62.856,26.027 z m 0,0 v 14.789 z" /><path
       sodipodi:nodetypes="cccccccccc"
       d="M 363.10872,208.18141 H 200.96301 v -13.02076 h 162.14571 z m 0,-13.02076 h -16.18264 v 0 z"
       style="fill:#3737c8;fill-opacity:1;fill-rule:nonzero;stroke:none;stroke-width:1.11157"
       id="path42-8-4" /><path
       id="path42-8-4-0"
       style="fill:#3737c8;fill-opacity:1;fill-rule:nonzero;stroke:none;stroke-width:0.906072"
       d="m 215.19298,195.66472 -0.0786,95.36483 -5.85975,0.78405 -8.73975,0.37327 -0.0498,-96.52215 z m -14.72798,0 v 9.50593 0 z"
       sodipodi:nodetypes="cccccccccc" /><path
       sodipodi:nodetypes="cccccccccc"
       d="M 363.145,188.707 H 274.56885 V 175.68624 H 363.145 Z m 0,-13.02076 h -8.84017 v 0 z"
       style="fill:#3737c8;fill-opacity:1;fill-rule:nonzero;stroke:none;stroke-width:0.821566"
       id="path42-8-4-0-4" /><path
       id="path42-8-4-0-4-0"
       style="fill:#3737c8;fill-opacity:1;fill-rule:nonzero;stroke:none;stroke-width:0.822284"
       d="M 289.18309,228.17106 H 200.45174 V 215.1503 h 88.73135 z m 0,-13.02076 h -8.85566 v 0 z"
       sodipodi:nodetypes="cccccccccc" /><path
       sodipodi:nodetypes="ccccccccccc"
       d="m 363.12604,114.79789 -0.37746,80.31343 h -14.2922 l 0.1098,-79.17846 5.58087,-0.73951 3.70659,-0.24681 z m -13.65396,1.05262 -1.0157,7.71277 v 0 z"
       style="fill:#3737c8;fill-opacity:1;fill-rule:nonzero;stroke:none;stroke-width:0.815352"
       id="path42-8-4-0-7" /></g></svg>
