<?xml version="1.0" encoding="UTF-8" standalone="no"?>
<svg
   xmlns:dc="http://purl.org/dc/elements/1.1/"
   xmlns:cc="http://creativecommons.org/ns#"
   xmlns:rdf="http://www.w3.org/1999/02/22-rdf-syntax-ns#"
   xmlns:svg="http://www.w3.org/2000/svg"
   xmlns="http://www.w3.org/2000/svg"
   xmlns:sodipodi="http://sodipodi.sourceforge.net/DTD/sodipodi-0.dtd"
   xmlns:inkscape="http://www.inkscape.org/namespaces/inkscape"
   inkscape:version="1.0 (4035a4f, 2020-05-01)"
   sodipodi:docname="newf_5.svg"
   viewBox="0 0 617.70081 377.51967"
   height="377.51965"
   width="617.70081"
   xml:space="preserve"
   id="svg28"
   version="1.1"><metadata
     id="metadata34"><rdf:RDF><cc:Work
         rdf:about=""><dc:format>image/svg+xml</dc:format><dc:type
           rdf:resource="http://purl.org/dc/dcmitype/StillImage" /><dc:title></dc:title></cc:Work></rdf:RDF></metadata><defs
     id="defs32" /><sodipodi:namedview
     inkscape:current-layer="g222"
     inkscape:window-maximized="0"
     inkscape:window-y="28"
     inkscape:window-x="0"
     inkscape:cy="434.65012"
     inkscape:cx="167.92824"
     inkscape:zoom="0.53703546"
     inkscape:snap-global="false"
     showgrid="false"
     id="namedview30"
     inkscape:window-height="872"
     inkscape:window-width="1440"
     inkscape:pageshadow="2"
     inkscape:pageopacity="0"
     guidetolerance="10"
     gridtolerance="10"
     objecttolerance="10"
     borderopacity="1"
     bordercolor="#666666"
     pagecolor="#ffffff" /><g
     transform="matrix(1.3333333,0,0,1.3333333,0,3.3396326e-5)"
     inkscape:label="name_font4"
     inkscape:groupmode="layer"
     id="g36"><g
       transform="rotate(180,281.8045,203.496)"
       id="g222"><path
         sodipodi:nodetypes="cccccccccc"
         d="m 231.4092,298.39374 h -96.55381 v -22.10421 h 96.55381 z m 0,-22.10421 h -9.63637 v 0 z"
         style="fill:#3737c8;fill-opacity:1;fill-rule:nonzero;stroke:none;stroke-width:1.11761"
         id="path42-8-4-0-4-9" /><path
         id="path40"
         style="fill:#000000;fill-opacity:1;fill-rule:nonzero;stroke:none;stroke-width:1.78083"
         d="M 273.81646,298.61018 H 246.18863 V 175.3415 c -26.52563,4.68202 -49.81939,16.14769 -69.90182,34.39022 -27.073,24.43542 -40.60949,54.06384 -40.60949,88.87846 h -27.62783 c 0,-41.67806 16.12012,-77.16154 48.3529,-106.45213 32.41399,-29.45527 71.54952,-44.18374 117.41407,-44.18374 z m 138.14102,0 h -27.6297 V 175.3415 c -26.52563,4.68202 -49.82499,16.14769 -69.89996,34.39022 -27.07486,24.43542 -40.61136,54.06384 -40.61136,88.87846 h -27.62783 c 0,-41.67806 16.11266,-77.16154 48.34544,-106.45213 32.42332,-29.45527 71.55886,-44.18374 117.42341,-44.18374 z m 0,0 V 273.5042 Z" /><path
         d="m 384.32965,247.68183 h 27.62783 v 123.26868 c 26.52563,-4.68201 49.81939,-16.14768 69.90182,-34.39022 27.073,-24.43542 40.6095,-54.06384 40.6095,-88.87846 h 27.62782 c 0,41.67807 -16.12012,77.16155 -48.3529,106.45214 -32.41399,29.45526 -71.54952,44.18374 -117.41407,44.18374 z m -138.14102,0 h 27.6297 v 123.26868 c 26.52563,-4.68201 49.825,-16.14768 69.89996,-34.39022 27.07486,-24.43542 40.61136,-54.06384 40.61136,-88.87846 h 27.62783 c 0,41.67807 -16.11266,77.16155 -48.34543,106.45214 -32.42333,29.45526 -71.55887,44.18374 -117.42342,44.18374 z m 0,0 v 25.10598 z"
         style="fill:#000000;fill-opacity:1;fill-rule:nonzero;stroke:none;stroke-width:1.78083"
         id="path40-0" /><path
         id="path42-8-4-0-4"
         style="fill:#000000;fill-opacity:1;fill-rule:nonzero;stroke:none;stroke-width:1.20102"
         d="m 549.40644,137.24311 0.69018,110.43872 H 522.74631 V 138.85591 Z m -26.66013,1.6128 v 27.70271 0 z"
         sodipodi:nodetypes="ccccccccc" /><path
         id="path42-8-4-0-4-9-0"
         style="fill:#3737c8;fill-opacity:1;fill-rule:nonzero;stroke:none;stroke-width:1.11761"
         d="m 273.81646,172.41648 -27.62783,2.92502 -16.17495,3.50112 -14.10082,5.21692 -13.25435,6.33351 -15.47215,10.07908 -2.46859,-29.25041 11.81364,-6.25161 12.10387,-5.29201 13.78946,-4.77467 15.94928,-3.92138 19.146,-2.19224 16.29644,-0.8155 z m 0,-24.44217 h -9.63637 v 0 z"
         sodipodi:nodetypes="cccccccccccccccccc" /><path
         id="path42-8-4-0-4-9-4"
         style="fill:#3737c8;fill-opacity:1;fill-rule:nonzero;stroke:none;stroke-width:1.86097"
         d="M 272.56851,172.41648 V 398.30947 H 246.37207 V 172.41648 Z m -26.19644,0 v 22.54483 0 z"
         sodipodi:nodetypes="cccccccccc" /></g></g></svg>
