<?xml version="1.0" standalone="no"?>
<!DOCTYPE svg PUBLIC "-//W3C//DTD SVG 20010904//EN"
 "http://www.w3.org/TR/2001/REC-SVG-20010904/DTD/svg10.dtd">
<svg version="1.0" xmlns="http://www.w3.org/2000/svg"
 width="2320.000000pt" height="3088.000000pt" viewBox="0 0 2320.000000 3088.000000"
 preserveAspectRatio="xMidYMid meet">
<metadata>
Created by potrace 1.16, written by Peter Selinger 2001-2019
</metadata>
<g transform="translate(0.000000,3088.000000) scale(0.100000,-0.100000)"
fill="#000000" stroke="none">
<path  d="M0 30560 c0 -278 2 -320 15 -320 13 0 15 24 15 160 l0 161 36 -3 c19
-1 38 3 42 9 4 5 17 13 29 17 20 6 23 4 23 -18 0 -24 3 -26 45 -26 25 0 45 5
45 10 0 16 116 12 129 -4 12 -14 51 -10 51 5 0 5 11 9 25 9 20 0 25 5 25 25 0
14 5 25 12 25 7 0 24 12 39 26 29 28 49 25 49 -5 0 -10 7 -24 15 -31 12 -10
16 -8 25 14 11 29 27 33 44 10 22 -30 42 -7 41 49 0 36 4 52 13 52 17 0 43 35
36 47 -3 5 -12 7 -19 4 -23 -9 -44 16 -34 42 10 27 25 28 41 2 14 -22 58 -27
58 -7 0 7 -6 25 -12 40 l-13 27 -387 0 -388 0 0 -320z"/>
<path d="M1460 30865 c0 -23 37 -55 64 -55 27 0 56 -24 56 -46 0 -17 30 -18
63 -3 18 8 32 7 62 -5 52 -22 55 -21 55 24 0 32 -4 40 -18 40 -21 0 -52 30
-52 50 0 8 -19 -4 -42 -27 -35 -33 -47 -39 -65 -33 -12 5 -24 21 -28 39 -6 29
-10 31 -51 31 -32 0 -44 -4 -44 -15z"/>
<path d="M1760 30871 c0 -5 9 -11 19 -14 14 -3 21 -15 23 -38 2 -26 8 -35 26
-37 12 -2 27 -12 32 -23 16 -28 25 -24 59 29 17 27 42 54 56 60 34 16 32 32
-4 32 -19 0 -35 -8 -45 -21 -16 -24 -46 -20 -46 6 0 12 -13 15 -60 15 -33 0
-60 -4 -60 -9z"/>
<path d="M940 30741 c-19 -3 -47 -14 -63 -25 -20 -14 -37 -17 -66 -12 -30 5
-40 2 -45 -10 -4 -11 1 -18 14 -21 11 -3 20 -9 20 -13 0 -5 9 -11 19 -15 23
-7 61 14 61 32 0 9 22 13 80 13 58 0 80 -4 80 -13 0 -18 38 -39 61 -32 12 4
19 15 19 31 0 19 -5 24 -26 24 -25 0 -64 16 -74 30 -9 12 -44 17 -80 11z"/>
<path d="M11560 21595 c-8 -9 -27 -14 -53 -13 -33 1 -45 -4 -68 -30 -16 -18
-32 -32 -37 -32 -12 0 -52 -39 -52 -50 0 -6 15 -10 33 -10 18 0 38 -5 43 -10
6 -6 31 -11 56 -12 l46 -1 4 -44 c3 -37 -1 -49 -19 -67 -13 -11 -23 -27 -23
-34 0 -32 -64 -112 -90 -112 -9 0 -26 8 -38 18 -16 14 -18 22 -10 30 9 9 9 12
0 12 -17 0 -49 34 -45 47 5 15 -36 53 -57 53 -8 0 -23 9 -33 20 -40 47 -79 13
-99 -85 -6 -33 -22 -75 -35 -95 -27 -41 -24 -37 -94 -120 -38 -45 -59 -81 -68
-115 -26 -99 -33 -115 -62 -140 -17 -14 -36 -25 -42 -25 -7 -1 -30 -9 -52 -20
-22 -11 -44 -19 -49 -20 -5 0 -23 -15 -41 -33 -19 -20 -55 -40 -91 -52 -56
-19 -137 -65 -149 -86 -4 -5 -28 -20 -54 -33 -68 -35 -74 -44 -59 -100 8 -32
17 -46 29 -46 10 0 21 5 24 10 7 12 72 14 78 3 3 -5 2 -34 0 -65 -5 -49 -11
-62 -41 -93 -39 -39 -77 -54 -95 -36 -23 23 -43 10 -76 -51 -19 -35 -47 -81
-62 -104 -15 -22 -31 -53 -35 -68 -4 -17 -19 -33 -43 -45 -20 -11 -45 -29 -55
-40 -11 -12 -39 -30 -63 -41 -47 -21 -48 -22 -31 -49 12 -19 -20 -56 -219
-258 -29 -29 -53 -57 -53 -62 0 -5 -3 -16 -6 -25 -4 -11 0 -16 13 -16 11 0 28
-6 39 -14 19 -15 19 -15 -5 -60 -13 -25 -40 -56 -61 -71 -20 -14 -43 -38 -51
-53 -7 -15 -22 -38 -31 -52 -16 -23 -16 -30 -4 -77 13 -50 13 -55 -8 -85 -47
-71 -78 -147 -71 -178 7 -31 -10 -63 -61 -120 -43 -48 -95 -168 -106 -243 -11
-76 -55 -161 -103 -202 -13 -11 -31 -37 -40 -59 -15 -35 -15 -38 -1 -33 22 9
20 -14 -3 -55 -10 -18 -22 -58 -25 -88 -8 -63 -25 -131 -38 -145 -4 -5 -8 -18
-8 -29 0 -11 -4 -33 -9 -50 -5 -17 -15 -51 -22 -76 -6 -25 -20 -70 -30 -101
-11 -30 -19 -63 -19 -72 0 -30 -47 -100 -62 -91 -4 3 -5 -2 -2 -10 3 -8 -2
-17 -14 -20 -10 -4 -24 -18 -30 -31 -13 -28 -32 -33 -32 -9 0 8 -4 12 -10 9
-5 -3 -10 -17 -10 -31 0 -18 -5 -24 -21 -24 -20 0 -21 -4 -15 -47 4 -27 9 -86
12 -132 2 -46 11 -99 19 -118 13 -30 13 -38 0 -63 -8 -16 -15 -56 -15 -89 0
-33 -4 -70 -9 -83 -5 -13 -17 -50 -26 -83 -10 -33 -30 -95 -46 -138 -16 -43
-29 -86 -29 -96 0 -10 -13 -59 -30 -109 -16 -50 -30 -111 -30 -134 0 -24 -6
-55 -14 -70 -8 -15 -17 -69 -20 -120 -3 -51 -12 -121 -21 -155 -9 -35 -18 -72
-20 -84 -2 -11 -7 -29 -10 -39 -3 -10 -1 -21 5 -25 13 -8 13 -81 0 -105 -11
-20 -16 -58 -30 -230 -10 -109 -5 -262 12 -415 5 -49 12 -155 15 -235 2 -80 8
-149 14 -154 5 -6 9 -24 9 -41 0 -17 4 -35 9 -41 12 -12 23 -192 12 -198 -5
-3 -40 11 -79 31 -75 38 -150 49 -174 25 -7 -7 -20 -12 -31 -12 -10 0 -52 -30
-93 -67 -74 -67 -98 -110 -129 -223 -4 -14 -13 -34 -20 -46 -27 -43 -35 -159
-19 -298 8 -72 20 -153 28 -181 8 -27 24 -88 35 -135 11 -47 31 -130 45 -185
39 -158 50 -273 50 -510 0 -224 -17 -606 -29 -637 -4 -11 0 -18 14 -23 11 -3
21 -16 23 -31 2 -13 8 -24 13 -24 16 1 22 -63 8 -90 -7 -14 -13 -32 -13 -41 0
-32 -33 -80 -63 -93 -116 -50 -162 -209 -122 -414 20 -98 39 -116 125 -117 33
0 60 3 60 9 0 5 9 1 19 -8 13 -12 21 -14 26 -6 9 14 34 -6 46 -37 9 -24 29
-32 29 -11 0 9 3 9 12 -1 11 -10 9 -15 -7 -27 -16 -12 -18 -18 -7 -34 17 -27
16 -30 -13 -30 -17 0 -25 -6 -26 -17 0 -17 -4 -51 -13 -115 -2 -16 1 -28 5
-28 18 0 8 -20 -17 -33 l-26 -14 24 -15 c26 -17 68 -27 146 -35 43 -4 52 -8
52 -24 0 -10 -4 -19 -10 -19 -14 0 -13 -46 2 -69 9 -16 8 -31 -8 -77 -32 -95
-79 -110 -223 -69 -51 14 -101 25 -110 23 -9 -1 -32 1 -52 5 -36 7 -59 36 -59
74 0 17 -31 58 -86 114 -50 52 -103 70 -297 98 -97 14 -157 53 -311 206 l-131
130 -97 33 c-53 17 -108 32 -121 32 -56 0 -133 -24 -162 -51 l-30 -27 -35 18
c-19 11 -46 24 -60 29 -14 6 -33 16 -42 21 -10 6 -24 10 -32 10 -8 0 -28 11
-44 25 -17 14 -37 25 -45 25 -9 0 -42 26 -75 58 -33 31 -84 80 -115 107 -78
72 -227 240 -272 308 -21 32 -61 76 -89 97 -29 20 -63 52 -76 69 -14 17 -30
31 -36 31 -6 0 -23 18 -38 40 -14 22 -31 40 -36 40 -6 0 -10 7 -10 15 0 8 -9
19 -20 25 -11 6 -20 17 -20 24 0 8 -7 17 -16 20 -8 3 -13 2 -9 -3 10 -17 -99
-81 -137 -81 -10 0 -18 -5 -18 -11 0 -8 -4 -8 -15 1 -11 9 -19 8 -37 -4 -12
-9 -32 -16 -44 -16 -12 0 -28 -7 -35 -16 -10 -12 -26 -15 -71 -12 -53 4 -63 8
-102 48 -35 34 -48 56 -62 106 -9 35 -20 64 -24 64 -7 0 -16 21 -67 165 -26
73 -26 104 -4 223 12 62 51 152 88 200 25 33 63 152 63 197 0 11 9 38 20 60
11 22 20 42 20 46 0 4 5 20 11 36 15 35 12 84 -5 101 -7 8 -31 18 -52 23 -98
23 -193 39 -238 39 -27 0 -67 8 -90 19 -23 11 -53 22 -68 25 -15 3 -44 23 -65
43 -21 20 -74 56 -118 81 -44 24 -89 52 -100 62 -11 10 -35 27 -52 37 -77 46
-426 385 -438 425 -4 13 -18 47 -31 76 -13 29 -24 55 -24 58 0 4 -14 22 -31
42 -31 35 -104 175 -139 267 -69 182 -93 349 -66 472 17 79 10 184 -18 266
-34 102 -29 213 14 302 29 59 61 75 195 95 125 19 154 19 196 -2 28 -13 44
-16 53 -9 7 6 22 7 35 4 20 -5 22 -3 16 16 -4 14 -1 31 9 46 9 14 12 25 6 25
-19 0 -10 28 10 33 12 3 20 14 20 26 0 14 6 21 20 21 16 0 20 7 20 31 0 27 -3
30 -20 25 -11 -3 -29 -9 -40 -12 -16 -5 -20 -2 -20 15 0 11 -6 21 -13 21 -13
0 -50 67 -53 94 0 6 -2 16 -4 21 -1 6 -1 36 0 68 1 46 -1 57 -14 57 -8 0 -22
12 -30 28 -27 52 -19 132 13 132 14 0 17 7 13 28 -2 16 2 35 10 43 8 8 15 30
16 48 3 42 7 47 26 32 12 -10 16 -8 21 8 9 31 -4 64 -22 57 -22 -9 -42 23 -43
68 0 32 -2 37 -15 26 -17 -14 -36 -5 -28 15 3 9 0 22 -7 29 -6 8 -15 27 -20
43 -7 24 -8 25 -9 6 -1 -32 -17 -29 -24 5 -3 15 -17 40 -31 55 -14 16 -26 31
-26 34 0 13 -54 63 -67 63 -7 0 -13 7 -13 15 0 9 -11 21 -25 27 -14 6 -25 17
-25 23 0 19 -40 26 -47 9 -6 -17 -40 -19 -46 -1 -3 8 -10 5 -22 -10 -20 -28
-35 -29 -35 -3 0 11 -7 20 -15 20 -8 0 -15 -6 -15 -12 0 -9 -3 -8 -10 2 -7 11
-14 12 -32 3 -69 -32 -79 -34 -141 -21 -34 7 -66 18 -72 24 -12 14 -59 25
-130 29 -27 2 -87 13 -133 24 -45 12 -86 20 -90 19 -4 0 -14 1 -22 5 -33 12
-91 15 -122 6 -23 -6 -40 -6 -55 2 -18 10 -27 9 -47 -5 -14 -9 -36 -16 -48
-16 -27 0 -116 -51 -114 -64 0 -5 -17 -15 -40 -23 -22 -7 -49 -22 -60 -31 -28
-26 -151 -62 -212 -62 -29 0 -52 -5 -52 -10 0 -6 -6 -10 -13 -9 -18 2 -57 -12
-57 -21 0 -4 -12 -10 -28 -13 -15 -3 -58 -13 -97 -23 -50 -12 -70 -14 -73 -5
-6 17 -42 13 -42 -4 0 -8 -7 -15 -16 -15 -40 0 -94 -24 -94 -41 0 -10 -4 -21
-10 -24 -5 -3 -17 -22 -26 -42 -10 -19 -31 -50 -47 -67 -24 -26 -46 -64 -49
-86 -1 -3 -6 -9 -13 -15 -6 -5 -28 -31 -48 -57 -21 -26 -55 -57 -77 -69 -22
-13 -40 -26 -40 -30 0 -11 -95 -67 -143 -85 -23 -8 -77 -18 -120 -21 -62 -5
-86 -2 -120 12 -46 21 -104 69 -118 100 -5 11 -13 27 -17 35 -45 80 -44 118 5
179 21 25 42 51 48 56 35 34 104 69 200 100 128 42 154 57 135 80 -8 10 -9 15
-1 15 12 0 14 41 4 78 -4 16 -8 20 -13 12 -5 -9 -10 -5 -15 11 -4 13 -13 31
-20 39 -7 8 -15 29 -17 45 -2 18 -9 31 -18 31 -8 1 -23 2 -32 3 -13 1 -18 10
-18 31 0 32 -26 43 -36 15 -9 -24 -19 -18 -34 19 -12 33 -18 36 -87 51 -44 10
-86 14 -101 9 -15 -4 -43 -6 -63 -5 -30 2 -43 -4 -73 -33 -19 -20 -42 -36 -50
-36 -8 0 -26 -10 -38 -22 -36 -34 -106 -88 -115 -88 -4 0 -28 -19 -53 -41 -25
-23 -62 -51 -83 -61 -20 -11 -39 -24 -42 -28 -3 -5 -31 -16 -63 -26 -31 -9
-64 -23 -73 -31 -8 -7 -21 -13 -27 -13 -7 0 -30 -11 -52 -25 -22 -14 -46 -25
-54 -25 -8 0 -20 -8 -25 -17 -6 -10 -11 -13 -11 -6 0 7 -28 -3 -67 -24 -109
-57 -113 -61 -113 -93 0 -23 -5 -30 -19 -30 -10 0 -22 -10 -26 -22 -8 -21 -10
-33 -14 -79 -1 -19 -54 -44 -70 -34 -8 4 -11 -1445 -11 -4899 l0 -4904 39 -7
c48 -8 184 -96 213 -139 12 -17 39 -46 60 -64 21 -19 53 -55 71 -80 30 -44 32
-53 32 -133 0 -86 0 -86 -42 -141 -24 -30 -53 -59 -65 -65 -103 -48 -147 -39
-245 49 -24 21 -47 38 -53 38 -7 0 -10 -254 -10 -775 0 -426 3 -775 8 -775 4
0 48 12 97 26 50 14 113 32 140 40 59 16 109 18 136 4 29 -16 25 -84 -9 -143
-38 -66 -309 -337 -344 -344 l-28 -5 0 -2034 0 -2034 8349 0 8349 0 5 28 c9
43 43 54 95 30 27 -13 42 -27 42 -39 0 -19 31 -19 1221 -19 l1222 0 -7 73 c-4
39 -6 90 -6 112 0 22 -6 60 -14 83 -11 30 -13 50 -6 68 17 43 11 74 -26 153
-34 72 -36 80 -30 147 6 65 4 79 -23 147 -24 60 -30 88 -29 148 1 63 -3 82
-26 127 -26 49 -27 56 -17 99 13 51 8 87 -21 151 -12 28 -18 60 -16 90 3 40 7
48 29 56 21 7 31 5 50 -12 12 -12 26 -22 30 -22 20 0 49 -93 59 -188 6 -57 16
-116 21 -130 6 -14 12 -62 14 -106 2 -59 10 -98 29 -141 14 -33 26 -75 26 -93
0 -19 13 -91 29 -160 16 -70 31 -153 35 -185 3 -32 13 -75 22 -95 8 -20 22
-77 29 -127 8 -49 20 -114 26 -143 l12 -52 789 0 c674 0 788 2 788 14 0 22
-38 179 -55 227 -8 23 -15 71 -15 108 0 39 -8 89 -19 121 -10 30 -22 81 -26
113 -3 32 -17 83 -31 113 -14 31 -24 74 -24 99 0 42 -27 223 -36 236 -2 4 -8
47 -14 96 -5 50 -17 109 -25 133 -8 23 -15 71 -15 106 0 62 -6 97 -56 334 -13
63 -24 138 -24 166 0 28 -9 77 -20 109 -11 32 -20 81 -20 109 -1 28 -7 78 -15
111 -8 33 -15 89 -15 125 0 36 -9 94 -20 130 -11 36 -20 85 -20 110 -1 25 -7
70 -14 102 -8 31 -11 77 -9 102 4 33 0 59 -16 95 -15 36 -21 70 -21 124 0 52
-6 88 -19 118 -11 25 -24 79 -30 122 -5 43 -17 89 -26 103 -13 20 -15 39 -9
94 6 66 5 71 -29 134 -20 35 -41 83 -47 106 -11 41 -17 48 -83 108 -20 18 -43
48 -51 67 -10 23 -22 35 -34 35 -11 0 -33 7 -48 15 -16 8 -36 15 -44 15 -17 0
-56 53 -83 114 -10 22 -22 43 -26 46 -24 16 -96 139 -113 193 -10 34 -34 87
-53 118 -19 31 -42 85 -51 119 -8 34 -28 84 -44 110 -17 28 -31 71 -35 104 -4
31 -15 65 -26 77 -20 23 -51 110 -73 205 -9 40 -29 85 -57 125 -30 45 -43 75
-45 104 -3 58 -13 92 -50 167 -19 37 -34 80 -34 96 0 16 -17 64 -39 108 -21
43 -44 97 -51 119 -6 22 -27 72 -46 111 -19 39 -34 80 -34 91 0 11 -24 56 -52
99 -29 44 -60 95 -68 116 -14 34 -158 218 -170 218 -4 0 -16 18 -28 39 -22 39
-75 91 -93 91 -19 0 -8 -47 20 -80 42 -52 78 -126 99 -208 13 -46 34 -94 59
-130 64 -92 73 -114 73 -191 0 -75 6 -94 58 -184 60 -104 71 -150 70 -305 -1
-148 6 -176 45 -186 19 -4 30 -21 52 -81 27 -74 27 -80 21 -213 -6 -128 -5
-139 14 -170 11 -18 35 -39 53 -47 43 -18 57 -51 57 -136 l0 -71 48 -46 c42
-41 50 -54 56 -99 3 -29 15 -71 26 -95 15 -34 20 -66 20 -148 1 -117 6 -131
62 -149 20 -7 42 -19 49 -27 7 -9 14 -57 16 -117 l5 -102 46 -42 46 -41 6 -94
c6 -95 15 -124 55 -168 57 -63 75 -101 75 -162 0 -46 6 -70 31 -116 29 -54 30
-61 25 -132 -10 -121 -29 -219 -43 -224 -7 -3 -13 -1 -13 4 0 6 -4 10 -9 10
-5 0 -12 -19 -15 -43 -11 -74 48 -293 109 -403 43 -79 69 -110 107 -130 15 -8
43 -38 61 -67 19 -28 49 -65 67 -82 72 -66 104 -146 88 -217 -13 -59 -33 -78
-80 -78 -47 0 -70 11 -122 58 -37 32 -41 34 -90 27 -28 -3 -58 -13 -67 -21
-20 -18 -80 -18 -127 1 -20 9 -86 20 -147 25 -81 6 -138 18 -218 44 -121 40
-203 56 -292 56 -65 0 -199 48 -251 89 -21 16 -41 21 -93 21 -99 0 -222 17
-256 34 -17 9 -55 16 -86 16 -59 0 -161 30 -189 55 -26 24 -74 29 -108 11 -24
-12 -37 -14 -58 -6 -15 6 -64 13 -108 17 -64 4 -95 12 -150 39 -38 19 -83 34
-100 34 -17 0 -40 7 -50 15 -11 8 -34 15 -50 15 -35 0 -118 45 -158 84 l-26
27 -7 -30 c-8 -36 -43 -48 -84 -27 -51 27 -110 88 -127 132 -14 37 -21 44 -43
44 -15 0 -36 -7 -47 -15 -25 -19 -70 -19 -77 -1 -7 18 2 84 15 108 5 10 22 25
39 33 28 15 33 15 76 -6 l46 -22 19 22 c10 13 18 27 18 32 0 13 -60 69 -91 84
-50 27 -77 103 -47 133 9 9 8 15 -5 24 -19 14 -33 93 -24 130 4 13 16 34 29
47 l22 24 -18 66 c-31 109 -31 124 -2 158 15 18 33 52 41 78 7 26 21 52 30 59
12 9 19 33 22 86 5 68 8 78 44 120 21 25 41 61 44 80 14 82 12 80 53 77 l37
-2 -3 70 c-3 82 8 103 58 114 33 6 35 10 40 53 7 56 24 78 61 78 35 0 41 9 41
67 0 27 12 77 28 120 27 69 27 75 13 104 -19 39 -11 64 20 54 53 -16 61 -12
78 39 11 32 24 53 38 58 25 9 27 39 6 71 -19 30 -9 65 25 82 25 13 29 22 35
77 4 35 6 68 5 73 -7 34 2 55 26 61 26 7 26 9 21 63 -4 40 -2 61 9 75 9 13 14
44 14 87 0 50 4 70 17 80 13 11 17 11 20 2 7 -20 23 -15 23 7 0 20 -3 27 -34
87 -22 42 -20 76 4 98 26 24 25 28 -10 68 -33 39 -36 53 -15 81 8 11 15 28 15
37 0 20 -44 89 -88 136 -22 24 -27 34 -18 43 8 9 8 14 -1 17 -18 6 -16 42 2
49 11 5 12 11 5 25 -19 34 -85 97 -108 102 -21 5 -23 3 -18 -19 8 -29 -13 -33
-37 -6 -18 20 -24 67 -7 57 18 -11 10 14 -9 27 -20 15 -15 44 9 43 8 0 25 -6
38 -13 19 -11 22 -10 22 4 0 9 -7 28 -16 44 -17 27 -17 27 -36 8 -14 -14 -23
-16 -32 -9 -10 8 -11 4 -8 -20 4 -29 3 -30 -24 -23 -16 4 -47 24 -68 45 -22
22 -46 39 -52 39 -7 0 -16 9 -19 20 -5 15 -12 19 -26 15 -13 -4 -19 -2 -19 8
0 8 -9 26 -21 41 -16 21 -17 26 -5 26 8 0 20 -8 26 -17 8 -13 13 -14 16 -5 8
17 24 15 24 -3 0 -8 -4 -15 -10 -15 -5 0 -10 -4 -10 -8 0 -4 18 -8 39 -7 27 0
36 3 30 11 -5 6 -5 15 -1 19 4 5 -1 5 -12 1 -15 -5 -17 -2 -12 18 4 16 1 26
-10 30 -8 3 -14 13 -12 22 2 11 -5 18 -21 21 -14 2 -30 8 -38 14 -7 6 -19 9
-27 6 -15 -6 -47 32 -56 67 -3 11 -14 24 -25 30 -44 25 -60 56 -30 56 8 0 15
7 15 15 0 18 5 18 31 5 10 -6 19 -18 19 -28 0 -9 7 -26 15 -36 15 -19 15 -19
15 1 0 11 7 24 16 27 15 6 15 9 -1 34 -23 36 -65 73 -76 66 -13 -8 -49 15 -49
31 0 8 -4 15 -9 15 -5 0 -10 25 -10 56 0 41 -4 59 -17 68 -9 7 -14 18 -10 25
4 6 0 14 -8 17 -9 3 -16 14 -16 24 0 10 -11 25 -24 33 -21 14 -26 14 -36 2
-11 -13 -7 -15 19 -15 20 0 31 -5 31 -14 0 -19 -17 -29 -25 -16 -3 5 -14 10
-25 10 -20 0 -32 22 -24 44 4 10 -4 16 -24 21 -37 8 -76 40 -69 57 2 7 0 21
-5 31 -8 16 0 22 25 18 4 0 7 6 7 14 0 8 -7 15 -15 15 -19 0 -19 14 -1 29 18
15 26 3 30 -46 2 -20 9 -39 15 -41 6 -2 11 -10 11 -18 0 -19 16 -18 24 1 3 9
18 15 36 15 36 0 40 15 5 24 -15 4 -25 14 -25 24 0 32 -52 72 -93 72 -26 0
-37 4 -37 15 0 8 -9 19 -20 25 -11 6 -23 22 -26 35 -3 14 -10 25 -15 25 -5 0
-9 9 -9 21 0 12 -5 19 -12 17 -20 -7 -21 -38 -2 -59 12 -14 14 -23 7 -30 -15
-15 -82 58 -83 88 0 12 -2 27 -5 35 -3 7 4 19 16 26 26 17 40 5 16 -13 -26
-19 -9 -25 56 -20 35 3 57 1 57 -6 0 -5 -8 -9 -17 -7 -10 2 -19 -5 -21 -15 -3
-16 1 -18 26 -12 26 5 31 3 34 -16 4 -28 49 -62 71 -53 21 8 22 30 2 38 -8 3
-15 13 -15 23 0 10 -20 33 -44 50 -33 25 -53 33 -86 33 -37 0 -41 2 -30 15 10
12 9 15 -4 15 -12 0 -16 7 -14 23 2 16 -1 21 -14 19 -19 -3 -24 13 -8 23 6 4
4 13 -6 22 -11 12 -15 28 -11 55 4 26 1 38 -7 38 -16 0 -61 48 -53 56 9 9 27
-5 27 -22 0 -8 7 -14 15 -14 8 0 15 6 15 14 0 7 -7 19 -15 26 -8 7 -15 19 -15
26 0 8 -4 14 -10 14 -5 0 -10 5 -10 12 0 6 3 8 7 5 3 -4 13 -1 21 6 9 7 17 8
19 2 22 -57 40 -80 61 -77 12 2 22 -2 22 -7 0 -6 5 -11 10 -11 6 0 10 9 10 20
0 19 -10 24 -37 21 -16 -2 -28 20 -15 28 13 8 4 22 -23 37 -11 6 -20 15 -21
20 -1 12 -13 45 -25 66 -15 28 -11 41 11 35 32 -8 23 7 -25 42 -38 27 -47 30
-64 19 -25 -15 -35 -7 -26 21 7 23 34 28 52 10 13 -13 36 -3 28 12 -4 5 -2 9
3 9 5 0 13 -10 16 -22 l7 -23 11 25 10 25 10 -30 c5 -16 12 -37 14 -45 4 -12
6 -12 14 0 7 11 11 11 24 1 9 -8 16 -20 16 -28 0 -8 5 -11 10 -8 14 9 12 37
-5 72 -12 24 -20 30 -37 25 -14 -3 -19 -2 -14 7 9 14 -12 35 -42 43 -18 5 -21
4 -13 -6 12 -14 5 -26 -15 -26 -8 0 -11 6 -8 15 4 8 1 15 -6 15 -7 0 -9 8 -5
19 8 25 -7 33 -39 21 -17 -6 -26 -6 -26 0 0 6 5 10 11 10 5 0 8 4 4 10 -3 5
-12 7 -19 4 -17 -6 -30 26 -17 39 7 7 13 5 17 -7 5 -13 18 -17 53 -16 25 1 55
0 65 -2 28 -5 31 20 3 27 -29 8 -49 45 -36 66 13 21 11 39 -5 33 -8 -3 -12
-12 -9 -21 4 -11 1 -14 -12 -12 -19 4 -42 55 -31 67 4 3 16 1 26 -6 16 -10 20
-10 20 0 0 18 -35 69 -43 62 -3 -3 -9 11 -13 32 -4 22 -11 42 -16 45 -15 10 3
39 24 39 10 0 16 4 13 10 -3 5 -14 10 -23 10 -16 0 -69 73 -65 89 1 4 -9 8
-23 9 -28 2 -61 -43 -102 -139 -37 -84 -70 -148 -83 -159 -9 -7 -21 -120 -25
-240 -3 -58 -6 -143 -8 -190 -9 -188 -7 -449 4 -510 29 -177 26 -523 -10 -895
-12 -123 -51 -351 -80 -465 -5 -19 -11 -48 -14 -65 -10 -65 -75 -362 -85 -390
-6 -16 -31 -92 -56 -167 -25 -76 -66 -178 -90 -228 -25 -49 -45 -93 -45 -98 0
-4 -16 -32 -36 -62 -19 -29 -42 -69 -50 -88 -7 -19 -37 -61 -66 -95 -55 -62
-67 -80 -92 -135 -15 -33 -30 -39 -56 -22 -19 12 -60 -25 -60 -53 0 -11 -12
-31 -27 -45 -25 -23 -27 -23 -39 -7 -10 14 -22 17 -54 12 -22 -3 -40 -1 -40 4
0 5 -9 9 -20 9 -15 0 -20 7 -20 26 0 24 2 25 43 20 23 -3 34 -3 25 0 -14 4
-16 13 -11 49 4 30 1 50 -10 65 l-15 22 -7 -21 c-6 -21 -35 -30 -35 -11 0 6
-9 10 -20 10 -11 0 -20 5 -20 12 0 6 -3 8 -7 5 -3 -4 6 -21 22 -37 l28 -29
-26 -10 c-15 -6 -35 -7 -44 -4 -17 7 -17 5 0 -21 24 -36 15 -60 -18 -52 -20 5
-25 3 -25 -13 0 -10 -7 -24 -15 -31 -8 -7 -15 -19 -15 -27 0 -8 7 -21 15 -29
8 -9 15 -20 15 -25 0 -14 -31 -24 -39 -13 -15 21 -80 46 -67 26 3 -4 7 -27 10
-50 3 -22 10 -50 15 -61 17 -32 13 -39 -21 -37 l-33 1 0 -72 c0 -71 -12 -102
-34 -89 -6 4 -14 25 -17 47 -7 41 -13 46 -31 28 -8 -8 -9 -16 -1 -29 16 -24
-3 -75 -28 -75 -16 0 -19 -6 -16 -40 4 -48 -30 -105 -105 -177 -26 -25 -56
-59 -65 -74 -10 -16 -33 -49 -53 -74 -19 -25 -47 -67 -61 -95 -15 -27 -44 -77
-66 -109 -21 -32 -45 -71 -53 -85 -7 -14 -46 -60 -85 -101 -40 -41 -79 -87
-87 -103 -8 -15 -30 -45 -49 -66 -45 -51 -134 -173 -134 -185 0 -5 -51 -61
-112 -123 -122 -123 -152 -137 -178 -88 -11 21 -11 34 0 81 11 43 11 60 2 75
-10 15 -8 20 11 30 32 17 37 28 37 90 0 47 4 61 27 85 15 16 44 48 66 71 l38
42 -22 39 -23 39 30 46 c16 26 32 47 37 47 11 0 9 48 -3 55 -15 9 -12 44 7 75
16 27 16 31 -2 63 -10 19 -15 42 -12 51 8 21 45 21 68 0 17 -15 39 -12 39 6 0
5 -12 15 -27 23 -16 7 -26 20 -24 28 2 8 5 36 7 64 3 31 12 57 24 70 11 12 20
26 20 32 0 13 44 43 64 43 8 0 19 -7 24 -15 14 -26 40 -6 47 36 9 52 -1 61
-27 26 -21 -29 -48 -36 -48 -13 0 8 -10 22 -22 31 -19 12 -21 19 -12 33 7 9
19 16 28 14 13 -2 16 7 16 48 0 42 3 50 19 50 23 0 43 -23 36 -42 -3 -8 3 -25
13 -39 17 -20 22 -21 36 -10 23 19 20 49 -10 89 -19 24 -23 36 -15 41 13 8 4
41 -10 41 -5 0 -12 -7 -15 -15 -7 -18 -24 -19 -59 -3 -25 11 -26 16 -21 52 4
22 12 46 18 54 10 11 7 17 -10 31 -21 15 -21 18 -8 36 21 28 20 30 -16 30 -26
0 -33 4 -33 20 0 30 62 34 82 6 8 -12 23 -21 34 -21 11 0 24 -11 31 -25 10
-22 8 -29 -13 -53 -46 -50 -61 -113 -21 -84 9 6 38 21 65 33 40 18 47 26 47
50 0 18 -5 29 -14 29 -17 0 -46 43 -46 69 0 25 -17 36 -34 22 -29 -25 -65 14
-46 50 8 14 7 19 -3 19 -7 0 -22 8 -33 18 -10 9 -30 16 -43 14 -19 -3 -22 0
-17 13 4 11 2 15 -6 13 -16 -6 -23 -48 -9 -48 6 0 11 -16 11 -35 0 -35 -23
-51 -32 -23 -5 15 -38 -13 -38 -31 0 -14 -13 -14 -28 1 -21 21 -13 33 33 56
l44 21 -17 30 c-20 36 -7 87 21 85 10 -1 16 3 14 10 -2 6 -11 10 -21 8 -12 -2
-16 5 -16 33 0 41 -5 43 -37 13 -21 -19 -26 -20 -34 -8 -5 8 -8 30 -5 47 3 18
1 35 -4 38 -5 3 -10 -5 -12 -17 -5 -36 -33 -28 -36 10 -5 51 3 65 28 52 12 -6
25 -22 30 -36 14 -36 46 -32 54 7 3 17 6 39 6 48 -1 14 -2 14 -11 -1 -15 -27
-39 -22 -39 7 0 25 8 29 43 26 23 -3 31 22 19 56 -7 18 -11 22 -11 10 -1 -15
-5 -16 -21 -7 -17 9 -20 8 -20 -10 0 -11 -7 -23 -15 -26 -8 -4 -15 -14 -15
-24 0 -10 -6 -23 -14 -30 -12 -9 -17 -8 -27 8 -7 11 -18 18 -25 15 -7 -2 -14
5 -16 16 -2 15 -7 18 -18 11 -13 -8 -13 -11 1 -22 13 -10 15 -24 10 -62 -3
-27 -11 -51 -16 -53 -14 -4 -38 54 -29 68 5 9 0 10 -16 6 -16 -4 -28 0 -36 11
-12 16 -13 16 -14 -2 0 -15 -5 -17 -27 -12 -16 4 -40 10 -55 13 -22 4 -29 13
-35 42 -4 20 -6 39 -5 43 3 12 -28 30 -43 24 -22 -8 -18 -36 5 -36 21 0 27
-14 11 -25 -5 -3 -7 -21 -4 -40 4 -23 2 -35 -6 -35 -6 0 -11 8 -11 19 0 29
-28 47 -51 33 -10 -7 -19 -9 -19 -5 0 18 -51 32 -76 21 -26 -12 -33 -38 -9
-38 19 0 19 -14 0 -30 -12 -10 -16 -8 -25 15 -5 14 -10 32 -10 39 0 7 -13 25
-30 41 -16 16 -30 35 -30 42 0 8 -5 11 -11 7 -7 -4 -10 1 -7 12 2 11 12 19 23
19 16 0 19 6 17 27 -2 19 3 27 19 31 17 5 20 11 15 31 -4 15 -2 26 4 26 5 0
10 11 10 25 0 16 6 25 15 25 9 0 15 9 15 24 0 14 7 32 16 41 11 11 18 40 21
88 3 56 9 77 25 92 l20 20 -7 -39 c-5 -29 -3 -37 7 -34 7 3 14 13 16 24 7 48
13 62 24 60 7 0 14 4 16 9 2 6 18 19 35 30 18 11 38 25 45 32 7 7 24 13 36 13
13 0 31 9 41 20 10 11 25 20 34 20 23 1 59 34 66 61 3 13 13 33 21 44 13 17
16 18 24 5 8 -12 10 -10 11 10 1 14 2 37 3 52 1 15 -4 30 -12 33 -8 3 -11 12
-7 24 3 11 2 22 -3 25 -6 3 -13 -9 -16 -28 -4 -19 -13 -37 -22 -40 -10 -4 -13
-13 -9 -26 3 -11 3 -20 -2 -20 -15 1 -50 36 -57 58 -4 12 -20 31 -35 42 -19
13 -31 33 -35 55 -7 34 -9 36 -39 32 -18 -2 -40 -7 -49 -10 -10 -4 -25 -9 -33
-12 -8 -2 -15 -16 -15 -30 0 -14 -3 -25 -6 -25 -9 0 -30 24 -37 43 -4 10 -17
17 -31 17 -22 0 -36 16 -36 41 0 5 6 9 14 9 9 0 12 8 8 25 -2 14 -9 25 -14 25
-6 0 -8 11 -6 24 6 28 -23 50 -53 41 -15 -5 -19 -2 -19 14 0 12 -4 21 -10 21
-5 0 -7 6 -4 14 3 8 13 12 22 10 15 -5 15 -4 0 6 -10 6 -18 21 -18 33 0 12
-14 37 -30 56 l-31 34 3 -33 c2 -19 -2 -35 -9 -37 -8 -3 -13 5 -13 21 0 14 -4
26 -9 26 -5 0 -8 17 -6 38 1 20 1 28 -2 17 -9 -45 -13 -51 -23 -35 -6 8 -10
29 -10 45 0 23 -3 26 -10 15 -7 -11 -14 -3 -31 35 -12 28 -24 44 -26 38 -8
-24 -21 -13 -27 23 -4 19 -14 38 -22 41 -7 3 -14 14 -14 24 0 11 -7 22 -15 25
-8 4 -15 16 -15 28 0 26 -10 41 -32 49 -11 4 -18 18 -19 34 -1 15 -2 35 -3 43
-2 8 -3 25 -4 37 -1 14 -7 21 -16 17 -21 -8 -29 38 -9 56 9 8 13 9 9 2 -4 -6
-2 -12 3 -12 14 0 14 20 1 40 -8 12 -12 13 -19 2 -6 -10 -11 -4 -16 20 l-9 33
-3 -42 c-3 -33 -8 -43 -22 -43 -14 0 -17 -6 -13 -31 4 -26 2 -30 -14 -27 -23
5 -23 43 0 90 19 37 20 52 4 42 -7 -4 -8 -3 -4 5 4 6 12 9 17 6 17 -11 8 60
-11 85 -11 14 -20 31 -20 38 0 17 -10 15 -34 -5 -19 -17 -20 -17 -7 -1 11 15
10 20 -3 34 -20 19 -16 40 7 38 19 -2 19 55 -1 78 -7 9 -13 33 -15 55 -2 32
-5 39 -19 35 -20 -5 -24 -27 -8 -37 6 -3 10 -22 10 -41 0 -20 5 -34 13 -34 8
0 9 -3 1 -8 -18 -12 -34 -68 -22 -80 12 -12 2 -62 -12 -62 -6 0 -10 9 -10 21
0 16 -4 19 -20 14 -17 -5 -20 -2 -20 20 0 22 4 26 20 22 17 -4 20 0 20 32 0
41 -15 62 -36 54 -8 -3 -21 0 -29 7 -8 6 -19 9 -24 5 -6 -3 -8 0 -5 8 3 8 -2
21 -10 30 -9 9 -16 25 -16 36 0 29 -18 26 -26 -4 -7 -26 -31 -51 -41 -42 -3 4
0 14 7 22 11 13 10 18 -6 30 -19 15 -19 15 2 33 26 22 38 62 18 62 -8 0 -14 5
-14 10 0 6 6 10 14 10 8 0 21 3 29 6 17 6 32 -47 16 -57 -5 -3 -7 -13 -3 -22
4 -12 13 -15 31 -11 23 6 24 5 15 -13 -9 -15 -7 -23 9 -36 10 -9 19 -24 19
-32 0 -8 4 -15 9 -15 13 0 22 28 11 35 -17 10 -11 33 10 40 11 3 20 11 20 16
0 6 -9 7 -20 4 -17 -5 -20 -2 -20 27 0 19 5 39 11 45 7 7 9 19 5 29 -8 20 -15
15 -21 -16 -2 -12 -10 -29 -16 -37 -10 -12 -15 -8 -30 24 -18 38 -18 38 4 48
12 5 24 12 27 15 14 17 39 18 43 2 3 -13 7 -10 15 11 11 26 25 32 64 29 10 -1
17 4 15 11 -1 6 3 11 10 10 6 -1 33 4 59 12 26 8 51 12 55 10 4 -3 22 1 40 9
19 8 55 13 81 11 26 -2 50 0 53 5 3 5 31 11 63 15 31 4 76 12 98 20 25 8 47 9
55 4 19 -12 66 -11 74 1 5 8 11 8 20 0 7 -6 16 -7 19 -2 10 17 135 6 156 -13
19 -18 22 -16 24 15 1 9 13 16 28 18 24 3 27 0 25 -25 -2 -22 3 -29 21 -31 20
-3 23 0 17 17 -7 23 18 56 35 46 6 -4 8 -9 6 -13 -2 -4 2 -16 10 -27 11 -15
14 -16 14 -3 0 21 26 42 35 29 5 -10 13 -7 54 16 2 2 -2 9 -9 17 -6 9 -10 21
-7 28 2 7 0 21 -5 31 -7 13 -4 17 12 17 21 0 27 14 10 25 -17 11 -11 28 8 23
16 -5 19 1 20 37 0 24 5 52 11 63 15 28 14 69 -1 75 -10 3 -10 9 0 29 7 13 12
42 10 64 -2 32 -7 40 -25 42 -13 2 -23 9 -23 16 0 16 -42 56 -58 56 -16 0 -15
47 1 54 10 5 10 7 0 12 -7 3 -13 11 -13 17 0 8 4 7 12 -1 18 -18 38 -14 38 8
0 14 7 20 23 20 21 1 21 1 3 12 -15 8 -22 7 -31 -5 -9 -12 -14 -14 -23 -5 -7
7 -12 18 -12 24 0 19 -31 46 -46 40 -9 -3 -14 2 -14 14 0 25 8 25 33 2 19 -16
19 -16 12 8 -4 14 -14 30 -22 37 -13 10 -13 15 4 37 21 29 29 32 37 11 6 -17
32 -20 41 -5 11 19 -13 37 -51 38 -41 2 -74 29 -74 61 0 26 -40 39 -52 17 -5
-9 -15 -16 -23 -16 -11 0 -12 -7 -4 -32 11 -40 11 -38 0 -38 -15 0 -23 54 -11
84 7 19 7 33 -1 47 -5 11 -9 28 -7 37 3 12 8 8 18 -15 15 -32 35 -48 24 -18
-9 21 8 19 34 -5 21 -20 22 -20 22 -2 0 11 -7 25 -15 32 -18 15 -20 52 -2 49
20 -3 47 12 41 23 -4 6 2 7 16 3 13 -4 20 -3 17 2 -3 5 -31 15 -62 22 -63 14
-90 4 -80 -30 4 -11 2 -19 -4 -19 -17 0 -23 20 -10 36 10 12 9 16 -8 20 -11 3
-25 15 -31 27 -6 12 -11 16 -11 10 -1 -7 -10 -13 -21 -13 -12 0 -25 -10 -32
-25 -14 -32 -28 -32 -28 0 0 15 -6 25 -14 25 -28 0 -46 -12 -46 -32 0 -11 -5
-16 -10 -13 -6 4 -8 16 -4 27 4 13 0 24 -12 32 -11 8 -15 21 -12 34 4 15 2 19
-8 15 -19 -7 -18 13 6 76 21 53 20 134 0 146 -5 3 -6 13 -3 23 2 10 -5 26 -16
36 -12 11 -21 26 -21 34 0 9 -3 13 -6 9 -3 -3 3 -33 15 -66 27 -79 26 -119 -5
-211 -8 -22 -23 7 -17 31 4 13 0 19 -12 19 -9 0 -19 9 -22 20 -13 48 -39 -4
-47 -93 -4 -36 -7 -39 -34 -18 -20 14 -22 21 -13 44 6 15 16 27 23 27 9 0 13
14 13 40 0 22 -2 40 -6 40 -4 0 -9 11 -11 25 -3 13 -1 23 5 22 5 -1 11 3 14 9
2 7 -2 12 -9 11 -36 -1 -48 4 -48 22 0 16 -18 31 -36 31 -2 0 -4 -20 -4 -45 0
-25 -5 -45 -10 -45 -6 0 -8 -10 -4 -24 3 -13 1 -27 -6 -31 -12 -8 -42 13 -35
25 2 4 -11 19 -30 34 -19 15 -34 31 -33 34 1 4 -2 29 -6 55 -7 40 -11 47 -27
42 -14 -5 -19 -1 -19 13 0 11 6 23 13 25 10 4 10 6 0 6 -7 1 -13 12 -13 25 0
14 -4 28 -10 31 -5 3 -10 11 -10 16 0 6 5 7 10 4 6 -4 25 2 43 12 18 10 55 27
82 37 28 10 54 23 60 27 5 5 24 9 41 9 18 0 44 4 59 10 14 5 51 12 83 14 31 3
114 11 184 17 103 10 134 10 170 -1 23 -7 67 -12 96 -11 31 1 52 -2 52 -8 0
-6 8 -11 18 -11 10 0 22 -3 26 -7 4 -4 29 -9 56 -10 26 -1 57 -6 68 -12 12 -6
34 -11 49 -11 16 0 38 -7 49 -15 10 -8 26 -15 35 -15 9 0 24 -9 34 -20 10 -11
25 -20 33 -20 7 0 26 -6 40 -14 38 -20 99 -46 108 -46 4 0 42 -35 83 -78 42
-44 91 -87 109 -96 17 -9 32 -24 32 -34 0 -9 14 -30 31 -47 25 -24 32 -27 40
-15 7 11 8 7 3 -13 -6 -27 5 -67 32 -119 9 -16 12 -28 7 -29 -4 0 1 -4 12 -9
11 -4 31 -30 45 -56 14 -27 31 -53 38 -57 6 -4 12 -16 12 -26 0 -9 6 -25 13
-34 11 -17 15 -17 44 -2 18 9 36 22 39 28 5 8 3 8 -7 -1 -23 -21 -31 -13 -25
23 6 28 4 35 -9 35 -9 0 -18 7 -21 15 -4 8 -10 15 -15 15 -5 0 -9 -7 -9 -15 0
-8 -7 -15 -16 -15 -12 0 -14 7 -9 29 5 24 1 33 -25 55 -18 14 -36 24 -41 20
-12 -7 -11 47 0 65 8 12 12 13 25 1 9 -7 19 -10 23 -6 3 3 21 -6 40 -20 33
-25 37 -24 34 9 -4 30 19 19 26 -13 3 -17 10 -33 14 -36 5 -3 4 -14 -1 -25 -8
-14 -7 -19 2 -20 7 0 4 -4 -7 -9 -17 -8 -16 -9 9 -9 23 -1 27 2 21 17 -4 9 -9
33 -11 52 -3 19 -9 37 -14 38 -18 6 -10 22 10 22 23 0 27 15 5 24 -8 3 -15 1
-15 -4 0 -6 -7 -10 -16 -10 -8 0 -13 4 -10 9 4 5 3 17 -1 27 -6 15 -7 15 -14
-4 -11 -30 -29 -28 -29 4 0 16 -5 24 -12 21 -7 -2 -12 -14 -10 -27 3 -16 0
-20 -10 -16 -7 3 -20 9 -29 12 -18 6 -32 55 -23 78 3 8 1 17 -5 21 -6 3 -11
16 -11 29 0 12 -11 33 -25 46 -25 24 -33 50 -15 50 6 0 10 -7 10 -15 0 -11 7
-14 25 -9 19 5 31 -1 55 -24 16 -17 30 -35 30 -41 0 -7 12 -16 26 -21 33 -13
39 -13 26 3 -9 11 -14 97 -5 97 2 0 13 -5 23 -10 16 -8 18 -8 14 5 -4 8 -12
15 -19 15 -6 0 -16 14 -21 32 -5 17 -16 34 -24 36 -11 4 -11 0 3 -21 15 -23
15 -27 3 -27 -22 0 -38 37 -40 86 -1 30 -8 50 -25 68 -18 19 -24 38 -25 71 -1
26 -6 47 -13 50 -7 2 -13 14 -13 25 0 11 -6 23 -14 26 -8 3 -17 16 -20 29 -3
13 -20 38 -38 55 -24 24 -32 41 -31 65 1 27 -4 34 -22 39 -14 4 -25 15 -27 28
-3 25 -28 37 -28 14 0 -31 -23 -29 -51 5 -16 19 -29 40 -29 47 0 6 -4 12 -10
12 -5 0 -10 8 -10 18 0 9 -8 27 -18 40 -14 18 -24 22 -45 17 -28 -7 -31 -13
-21 -39 5 -12 10 -14 19 -6 10 9 19 6 34 -9 38 -38 22 -46 -46 -25 -18 5 -16
-13 1 -19 10 -4 13 -20 10 -58 -4 -54 -16 -80 -29 -60 -3 6 1 18 9 27 17 16
21 34 8 34 -18 0 -35 -48 -33 -92 2 -40 -3 -53 -34 -95 -45 -58 -50 -60 -67
-34 -7 12 -21 21 -31 21 -9 0 -22 11 -27 24 -5 13 -14 27 -19 31 -6 3 -20 26
-31 51 -11 24 -25 44 -30 44 -6 0 -10 7 -10 15 0 8 -4 15 -10 15 -5 0 -10 7
-10 15 0 9 -7 18 -15 21 -8 4 -15 14 -15 23 0 27 -20 41 -45 31 -25 -9 -35 -4
-35 16 0 23 -50 64 -78 64 -15 0 -42 9 -60 20 -18 11 -44 20 -58 20 -13 0 -27
6 -30 14 -3 8 -13 12 -24 9 -10 -3 -21 0 -24 6 -4 6 -16 11 -27 11 -11 0 -31
12 -44 26 -19 21 -25 23 -25 10 0 -9 -4 -16 -10 -16 -5 0 -10 4 -10 9 0 14
-44 21 -52 8 -5 -8 -8 -6 -8 6 0 14 -6 17 -27 14 -25 -4 -28 -8 -25 -35 2 -18
-1 -32 -5 -32 -9 0 -32 25 -49 55 -15 27 -35 30 -41 6 -7 -27 -23 -27 -23 -1
0 13 -7 20 -18 20 -10 0 -29 11 -42 25 -17 18 -30 23 -46 19 -16 -4 -26 -1
-29 8 -8 21 -52 11 -58 -13 -3 -10 -12 -19 -21 -19 -22 0 -56 31 -56 52 0 10
-5 18 -11 18 -5 0 -8 4 -4 10 3 5 -13 14 -35 20 -22 6 -40 15 -40 20 0 6 -5
10 -10 10 -6 0 -8 -10 -5 -23 5 -18 0 -24 -24 -33 -16 -7 -31 -20 -34 -30 -2
-11 -3 -4 -1 13 1 18 -2 35 -7 39 -14 9 -39 -15 -39 -38 0 -14 -5 -18 -16 -14
-12 4 -15 2 -11 -9 9 -21 -14 -31 -25 -11 -5 9 -16 16 -23 16 -15 0 -18 -9
-19 -59 -1 -13 -7 -26 -14 -29 -7 -2 -13 2 -11 9 4 34 0 42 -17 29 -9 -8 -14
-25 -12 -44 2 -23 -2 -32 -14 -34 -19 -4 -21 3 -18 55 1 18 -3 33 -9 33 -6 0
-11 -11 -11 -25 0 -16 -6 -25 -15 -25 -10 0 -15 10 -15 26 0 22 -2 24 -15 14
-12 -10 -20 -7 -46 14 -17 14 -41 26 -55 26 -13 0 -24 5 -24 10 0 7 -13 8 -35
4 -36 -6 -44 3 -23 24 8 8 8 12 1 12 -6 0 -16 -7 -23 -15 -16 -20 -30 -19 -30
1 0 25 31 44 52 33 12 -7 18 -6 18 1 0 6 6 8 13 4 8 -5 7 -2 -2 10 -10 12 -11
20 -3 28 15 15 32 1 32 -26 0 -34 10 -38 47 -15 18 11 33 16 33 10 0 -18 50
-12 77 9 14 11 31 20 39 20 7 0 14 6 17 13 3 8 9 6 20 -8 12 -16 20 -18 34 -9
25 14 48 7 63 -21 12 -22 14 -23 36 -8 13 8 26 24 30 35 4 13 12 18 25 15 20
-5 45 25 34 43 -11 17 48 100 71 100 8 0 18 9 24 20 12 23 30 27 30 6 0 -25
17 -27 44 -5 20 16 30 18 40 10 10 -9 15 -8 19 4 4 8 1 14 -6 12 -16 -3 -16
35 1 41 6 2 12 -4 12 -13 0 -9 5 -13 11 -10 6 4 8 13 5 20 -3 8 2 19 10 26 12
10 18 9 30 -3 14 -14 14 -18 -1 -42 -16 -24 -16 -26 -1 -26 9 0 16 7 16 15 0
9 6 12 15 9 11 -5 15 1 15 20 0 27 9 33 25 17 6 -5 20 -12 33 -16 16 -5 22 -2
22 10 0 9 4 14 9 11 5 -3 15 1 22 10 10 13 10 17 -1 24 -20 12 -4 40 21 37 12
-1 24 4 26 11 3 6 -3 12 -12 12 -9 0 -30 13 -46 29 l-29 29 0 -24 c0 -16 -6
-24 -17 -24 -16 0 -15 -3 4 -18 18 -14 21 -23 15 -51 l-8 -35 -27 30 c-28 29
-36 27 -50 -11 -3 -5 -7 -7 -11 -3 -4 3 -2 16 4 29 10 18 10 24 -3 34 -11 7
-13 16 -6 26 13 21 11 49 -4 49 -7 0 -21 -11 -31 -25 -23 -31 -32 -25 -41 26
-5 30 -10 38 -18 30 -19 -19 -37 -12 -37 13 0 14 -5 28 -10 31 -6 4 -8 15 -5
26 4 11 2 19 -4 19 -6 0 -11 -5 -11 -11 0 -8 -5 -8 -15 1 -8 7 -15 20 -15 30
0 10 -7 21 -16 24 -8 3 -13 10 -9 15 7 13 -47 101 -62 101 -7 0 -17 18 -23 41
-9 34 -8 45 5 65 9 14 24 28 33 31 47 16 92 38 92 45 0 5 15 6 34 3 26 -5 37
-3 47 12 11 15 24 19 57 17 23 -2 42 1 42 5 0 5 8 8 17 7 11 0 19 7 21 21 2
12 16 27 34 36 18 9 26 17 19 21 -18 12 -12 23 12 22 16 -1 23 5 25 22 2 13 9
25 17 28 7 3 11 14 7 26 -3 14 -1 19 6 14 7 -4 12 -1 12 7 0 14 47 27 103 27
16 0 26 4 23 9 -3 4 20 9 51 9 58 0 108 25 108 53 0 8 8 13 19 11 10 -2 15 1
12 6 -3 5 2 18 12 28 31 36 42 64 36 90 -5 18 -1 29 12 39 11 8 15 15 10 15
-5 0 -3 7 4 15 11 13 8 15 -17 15 -36 0 -53 16 -53 49 0 25 -3 26 -57 27 -32
0 -76 2 -98 3 -48 3 -105 -8 -105 -20 0 -5 -5 -9 -12 -9 -6 0 -26 -11 -44 -25
-18 -14 -39 -25 -48 -25 -8 0 -18 -5 -21 -10 -4 -6 -24 -22 -45 -35 -44 -28
-90 -69 -153 -135 -16 -17 -32 -30 -36 -30 -7 0 -32 -22 -166 -147 -16 -15
-35 -26 -42 -25 -6 1 -20 -9 -31 -23 -11 -14 -29 -25 -40 -25 -12 0 -24 -4
-27 -10 -3 -5 -32 -10 -63 -10 l-57 0 39 26 c44 30 76 60 76 72 0 5 11 14 24
20 13 6 51 30 83 54 49 35 62 51 73 88 7 25 12 49 11 54 -1 5 5 16 13 25 14
15 14 19 0 39 -8 12 -13 30 -10 40 7 22 -8 112 -20 121 -5 3 -18 23 -28 44
-11 21 -31 44 -46 52 -36 18 -64 51 -51 60 6 3 11 15 11 26 0 11 -5 17 -10 14
-5 -3 -10 -1 -10 5 0 6 -7 18 -15 26 -8 9 -15 24 -15 35 0 10 -5 19 -10 19 -6
0 -29 12 -51 27 -36 23 -40 30 -35 55 5 25 2 29 -24 35 -24 4 -30 10 -27 27 1
11 6 26 9 32 11 17 -2 24 -29 18 -17 -5 -28 0 -43 17 -23 28 -25 40 -7 33 10
-4 12 3 9 25 -4 30 -22 34 -22 5 0 -8 -7 -14 -15 -14 -26 0 -16 24 20 50 19
14 35 29 35 33 0 5 -4 6 -9 2 -6 -3 -18 6 -28 21 -10 15 -28 37 -40 51 -17 18
-23 36 -23 71 0 27 4 52 10 58 6 6 6 15 0 24 -7 10 -10 11 -10 3 0 -7 -7 -13
-15 -13 -23 0 -18 37 5 43 20 5 20 6 -5 54 -14 26 -33 54 -43 62 -12 10 -14
15 -4 18 6 3 12 11 12 18 0 7 7 15 15 19 17 6 21 46 4 46 -12 0 -2 88 13 107
5 6 6 23 2 37 -4 18 -2 26 7 26 10 0 14 16 15 51 1 29 -2 46 -6 39 -6 -9 -9
-9 -15 0 -4 6 3 22 15 35 24 25 21 55 -5 55 -8 0 -15 5 -15 10 0 6 7 10 16 10
11 0 14 5 10 16 -3 9 -6 18 -6 20 0 3 -4 2 -10 -1 -16 -10 -11 31 5 45 22 18
19 30 -7 30 l-23 1 22 18 c14 12 20 25 17 39 -3 11 -1 23 6 27 8 5 6 11 -6 19
-19 14 -11 36 12 36 17 0 9 46 -12 71 -19 22 -17 36 6 42 22 6 28 43 8 49 -12
4 -18 24 -22 76 -1 27 2 32 21 32 33 0 37 17 17 62 -17 38 -17 40 0 50 23 13
3 38 -24 31 -23 -6 -27 15 -5 23 8 4 15 15 15 25 0 14 10 20 40 25 42 7 60 26
60 63 0 15 6 19 26 17 14 -2 30 -9 35 -17 6 -10 9 -10 9 -1 0 18 41 15 55 -4
11 -15 15 -15 43 6 18 13 34 31 37 39 8 23 75 64 75 46 0 -8 -4 -17 -10 -20
-5 -3 -10 -11 -10 -18 0 -8 3 -8 12 1 7 7 20 12 29 12 9 0 22 6 29 14 14 17
43 9 36 -9 -3 -10 4 -12 29 -9 38 5 84 -26 86 -55 0 -11 2 -12 6 -3 6 16 53
16 53 -1 0 -13 44 -57 56 -57 12 0 34 -34 65 -100 17 -36 37 -78 46 -93 8 -15
23 -56 32 -90 21 -73 54 -140 87 -180 13 -16 24 -36 24 -45 0 -10 10 -22 22
-27 24 -11 92 -116 117 -182 9 -23 34 -61 56 -86 48 -53 85 -103 85 -115 0 -5
12 -19 26 -33 15 -13 34 -36 44 -51 21 -34 128 -108 146 -101 8 3 14 1 14 -5
0 -14 55 -26 113 -24 35 2 46 -1 41 -10 -5 -8 -2 -9 12 -3 10 4 29 10 42 12
12 3 22 9 22 13 0 11 157 2 180 -10 11 -6 44 -13 73 -16 28 -3 56 -9 62 -15 5
-5 19 -9 30 -9 12 0 40 -9 63 -20 23 -11 69 -23 102 -27 52 -5 60 -4 60 11 0
19 13 20 42 5 25 -14 108 -18 108 -6 0 21 26 -3 30 -28 6 -34 30 -46 30 -16 0
12 3 20 8 20 22 -4 28 4 24 32 -3 24 -1 30 9 27 8 -3 15 -15 17 -29 3 -23 27
-49 45 -49 4 0 5 20 1 45 -5 40 -4 45 13 45 10 0 29 -8 43 -17 22 -15 23 -15
17 0 -7 18 11 35 22 21 3 -5 14 -10 24 -12 21 -4 23 25 3 53 -7 11 -16 32 -20
48 -3 15 -11 27 -17 27 -5 0 -21 11 -33 24 -13 12 -32 26 -41 30 -11 4 -15 12
-11 22 4 9 1 23 -5 30 -6 7 -8 18 -4 24 4 6 1 17 -5 25 -16 19 -3 37 21 30 11
-4 19 -2 19 4 0 14 63 14 77 0 6 -6 17 -9 25 -6 8 3 3 9 -14 16 -33 13 -35 22
-7 47 15 13 19 26 15 45 -3 18 0 29 9 33 8 3 15 1 15 -4 0 -6 5 -10 11 -10 8
0 8 5 -1 15 -7 8 -21 15 -31 15 -26 0 -25 40 1 47 15 4 18 11 14 28 -4 17 0
26 15 35 12 6 21 17 21 26 0 8 7 17 15 20 10 4 13 13 10 25 -4 12 1 23 14 31
12 7 21 18 21 25 0 7 11 15 24 19 22 5 31 19 41 63 4 16 -15 61 -26 61 -4 0
-11 -4 -14 -10 -12 -19 -38 -11 -32 10 4 14 0 20 -13 20 -13 0 -16 6 -12 25 3
20 0 25 -17 25 -12 0 -21 6 -21 15 0 11 8 13 30 10 88 -14 95 -15 81 -6 -7 5
-10 14 -7 20 4 6 -4 16 -20 23 -22 10 -28 10 -32 0 -4 -14 -22 -16 -22 -3 0 5
9 13 20 16 11 3 20 13 20 21 0 17 22 18 38 2 13 -13 16 -3 13 35 -2 18 24 24
34 7 10 -16 19 -11 33 18 11 23 10 29 -5 40 -10 7 -28 10 -41 7 -15 -4 -24 0
-28 10 -4 8 -10 15 -16 15 -5 0 -7 -4 -4 -9 3 -5 -21 -9 -55 -8 -33 0 -64 -4
-67 -10 -11 -16 -49 -25 -57 -13 -11 18 5 52 22 46 9 -4 22 -1 29 5 7 6 35 11
61 11 26 1 68 10 93 20 24 11 59 18 77 16 17 -1 35 1 39 5 12 11 92 8 100 -4
4 -8 9 -7 15 2 6 11 18 4 50 -26 24 -22 51 -50 62 -62 10 -13 24 -23 30 -23 7
0 18 -9 24 -19 14 -22 53 -18 53 6 0 12 7 14 28 9 46 -11 55 -11 58 -1 6 17
-49 49 -84 49 -27 0 -32 3 -29 17 3 10 -4 32 -15 50 -12 19 -17 41 -14 55 5
18 -1 29 -27 48 -19 15 -40 26 -47 26 -6 0 -10 6 -7 14 8 20 -24 53 -53 58
-17 2 -26 10 -28 25 -2 12 -15 26 -33 33 -31 13 -36 29 -17 48 9 9 4 12 -22
12 -19 0 -45 3 -56 6 -18 5 -22 0 -28 -30 -4 -20 -12 -36 -18 -36 -6 0 -8 10
-4 28 4 15 8 38 9 52 2 21 6 24 30 22 16 -2 27 1 27 9 0 8 15 10 50 7 37 -4
56 -12 75 -32 13 -14 28 -26 34 -26 12 0 121 -108 121 -120 0 -4 11 -31 25
-58 27 -55 31 -72 14 -72 -7 0 -9 -12 -4 -36 9 -48 26 -74 49 -74 10 0 29 -11
42 -25 13 -14 28 -25 34 -25 5 0 10 -5 10 -11 0 -7 11 -9 28 -6 20 4 31 1 39
-12 7 -11 24 -18 44 -19 38 -1 34 3 -46 45 -27 15 -57 27 -65 27 -8 1 -16 11
-18 24 -3 20 1 22 36 22 64 0 67 3 64 68 -2 31 -7 66 -12 77 -16 36 -21 75
-10 75 16 0 30 44 16 52 -8 5 -8 13 2 28 11 17 10 21 -5 27 -36 12 -43 23 -30
44 10 16 9 21 -3 29 -8 5 -18 6 -23 3 -5 -3 -6 4 -2 16 3 12 3 21 -2 20 -23
-4 -33 3 -33 24 0 12 -3 32 -6 44 -5 20 -8 20 -21 8 -20 -21 -26 -19 -46 15
-10 17 -25 30 -34 30 -9 0 -33 5 -52 11 -20 7 -42 14 -50 16 -11 3 -10 8 5 25
14 15 16 22 6 25 -6 3 -10 9 -7 13 3 5 -18 34 -47 63 -38 39 -63 56 -90 61
-21 4 -38 11 -38 16 0 4 14 20 31 34 29 25 34 56 10 56 -6 0 -8 -7 -5 -15 4
-9 0 -15 -10 -15 -9 0 -16 -5 -16 -10 0 -16 -41 -28 -77 -23 -20 3 -33 11 -33
20 0 14 11 13 56 -4 7 -2 15 1 20 8 4 7 2 15 -4 17 -7 2 -12 10 -12 17 0 7 -9
15 -19 18 -13 3 -22 17 -26 40 -5 23 -14 37 -26 40 -10 3 -19 1 -19 -4 0 -4
-7 -6 -15 -3 -24 9 -19 37 5 29 24 -8 29 22 5 31 -8 4 -15 15 -15 25 0 12 -7
19 -20 19 -29 0 -25 15 10 40 30 21 32 47 3 36 -11 -4 -13 -1 -8 14 8 24 3 25
-33 6 -59 -30 -69 -29 -74 4 -4 27 -2 30 23 30 15 0 31 5 34 10 4 6 11 8 16 4
5 -3 30 4 54 16 49 24 60 35 19 20 -14 -6 -37 -10 -52 -10 l-27 0 34 21 c40
24 37 29 -19 33 -23 2 -45 7 -49 12 -11 16 -98 16 -114 0 -13 -14 -17 -13 -31
7 l-15 22 -7 -22 c-3 -13 -10 -23 -15 -23 -6 0 -13 10 -18 23 -10 27 1 35 55
38 36 2 116 39 85 39 -8 0 -23 7 -33 17 -17 15 -18 15 -18 0 0 -18 -11 -20
-47 -11 -14 4 -23 14 -23 25 0 11 -4 19 -9 19 -5 0 -19 11 -32 25 -31 32 -46
32 -25 0 l16 -25 -50 0 c-43 0 -50 -3 -50 -20 0 -16 5 -19 23 -15 15 4 28 1
36 -9 8 -9 29 -16 47 -16 19 0 34 -4 34 -10 0 -5 -13 -10 -30 -10 -16 0 -30
-4 -30 -10 0 -5 7 -10 15 -10 17 0 19 -9 6 -29 -12 -19 -28 -6 -36 28 -6 30
-35 64 -35 42 0 -6 -11 -11 -25 -11 -14 0 -25 5 -25 11 0 6 -6 9 -14 6 -9 -4
-12 0 -9 12 3 11 -2 21 -13 25 -14 5 -15 4 -4 -9 10 -12 10 -15 -1 -16 -105
-5 -140 -3 -174 7 -21 7 -41 11 -44 9 -2 -3 1 -5 7 -5 7 0 12 -9 12 -20 0 -11
-7 -20 -15 -20 -8 0 -15 9 -15 19 0 14 -9 20 -37 24 -21 2 -44 0 -50 -6 -9 -6
-23 -5 -43 3 -34 14 -49 8 -31 -14 8 -9 25 -12 58 -8 35 4 44 2 38 -7 -4 -7
-16 -10 -28 -7 -30 8 -77 -5 -77 -20 0 -8 -7 -14 -15 -14 -8 0 -15 9 -15 19 0
13 -11 23 -34 31 -19 6 -37 16 -39 23 -3 8 -10 6 -19 -7 -11 -14 -17 -16 -22
-7 -6 9 -11 9 -22 0 -18 -15 -64 6 -64 28 0 8 -8 13 -17 12 -40 -4 -52 3 -70
39 -13 24 -27 37 -41 38 -24 1 -61 41 -62 66 0 9 -16 36 -35 60 -19 23 -39 48
-44 54 -5 6 -4 19 2 30 9 17 9 17 -6 6 -9 -8 -21 -11 -27 -7 -5 3 -10 -1 -10
-10 0 -10 -7 -15 -17 -13 -11 2 -17 11 -15 22 2 10 -1 15 -7 12 -11 -7 -61 36
-61 53 0 13 22 15 36 2 5 -6 10 1 11 20 1 16 -2 29 -6 29 -5 0 -12 16 -15 35
-4 19 -11 35 -16 35 -6 0 -10 5 -10 11 0 6 10 9 22 7 15 -2 24 -14 32 -42 13
-45 31 -57 39 -25 5 19 8 20 21 9 9 -7 16 -9 16 -5 0 10 -43 44 -57 45 -18 0
-16 30 2 30 8 0 15 7 15 15 0 8 -4 15 -10 15 -5 0 -10 -4 -10 -10 0 -16 -47
-11 -54 5 -4 12 0 15 17 14 12 -1 29 -1 39 -1 25 3 10 40 -23 58 -30 15 -39 8
-17 -14 20 -20 -1 -26 -23 -6 -17 15 -20 27 -15 60 3 22 1 45 -5 51 -6 6 -12
27 -14 48 -4 42 -45 93 -45 56 0 -11 4 -21 8 -23 13 -5 22 -62 12 -77 -4 -8
-15 -11 -24 -8 -13 5 -15 11 -6 26 14 28 13 36 -5 21 -8 -7 -15 -19 -15 -28 0
-14 -27 -41 -42 -42 -5 0 -8 7 -8 15 0 8 4 15 9 15 17 0 21 45 5 60 -14 13
-15 12 -12 -15 2 -21 -2 -30 -14 -33 -19 -4 -25 12 -32 85 -5 49 -4 51 17 47
14 -3 9 2 -11 11 -27 13 -52 14 -91 6 -2 -1 2 -8 9 -16 7 -9 10 -18 7 -21 -3
-3 2 -14 11 -25 12 -14 18 -16 25 -6 6 9 7 8 4 -3 -2 -8 5 -34 15 -57 24 -54
15 -77 -25 -69 -16 3 -33 6 -38 6 -4 0 -9 17 -11 37 -2 20 -9 38 -17 41 -10 3
-11 -2 -6 -18 5 -15 4 -20 -4 -16 -6 4 -11 0 -11 -8 0 -9 -4 -16 -10 -16 -9 0
-12 16 -14 80 -1 16 -9 29 -23 35 -13 5 -24 18 -24 27 -3 37 -4 41 -15 45 -6
2 -14 -7 -16 -20 -5 -26 4 -59 15 -57 17 2 37 -30 37 -59 0 -35 1 -35 -34 -21
-18 6 -26 17 -26 33 0 32 -32 61 -48 45 -8 -8 -12 -8 -12 -1 0 15 28 25 35 13
4 -6 11 -10 16 -10 14 0 -1 53 -19 68 -9 6 -13 12 -9 12 7 0 -13 63 -23 70
-11 8 -20 80 -9 80 5 0 9 5 9 11 0 8 -5 7 -15 -1 -9 -7 -19 -10 -22 -6 -10 9
17 26 42 26 17 1 16 3 -6 15 -15 8 -29 26 -31 40 -5 25 -5 25 14 8 11 -10 23
-18 27 -18 3 0 5 -5 5 -12 -1 -7 12 -15 28 -18 16 -4 31 -12 33 -18 13 -46 16
-50 27 -39 19 19 28 14 28 -13 0 -30 20 -33 27 -5 6 23 43 27 43 5 0 -10 10
-15 28 -15 26 0 28 3 24 29 -2 16 -13 39 -23 50 -10 11 -19 32 -19 46 0 14 -3
25 -8 25 -20 0 -31 39 -20 74 10 33 9 38 -10 52 -25 18 -29 34 -7 34 8 0 15
-8 16 -17 0 -10 5 -5 9 11 7 21 5 32 -4 40 -21 17 -30 66 -12 66 12 0 13 6 5
32 -11 41 -11 41 1 33 6 -3 10 -1 10 4 0 17 -12 13 -42 -14 -17 -14 -28 -34
-28 -50 0 -16 -6 -25 -15 -25 -8 0 -15 7 -15 15 0 8 -5 15 -11 15 -6 0 -9 9
-6 20 3 11 2 20 -3 20 -4 0 -10 13 -13 29 -3 16 -13 31 -21 34 -12 5 -16 -1
-16 -24 0 -38 -21 -34 -35 5 -8 22 -6 30 8 37 23 13 22 77 -2 108 l-18 23 -21
-22 c-20 -21 -22 -22 -28 -6 -4 11 -1 21 6 26 11 7 11 11 0 25 -8 10 -24 21
-37 26 -24 9 -32 29 -10 29 19 -1 52 -22 95 -62 29 -26 46 -35 61 -31 21 5 30
23 11 23 -5 0 -10 7 -10 15 0 8 -6 15 -13 15 -17 0 -43 47 -33 57 4 5 18 -4
30 -19 12 -16 25 -28 29 -28 12 0 8 28 -5 32 -6 2 -8 9 -4 16 5 9 13 8 32 -4
23 -16 23 -17 7 -30 -17 -12 -17 -13 4 -14 16 0 23 -8 28 -31 8 -37 1 -47 -21
-28 -14 11 -16 10 -12 -11 2 -20 9 -25 31 -25 34 0 47 -19 37 -54 -7 -26 -7
-26 51 -27 42 -1 56 2 52 11 -2 7 -13 15 -24 18 -13 4 -19 14 -19 35 0 16 -3
44 -6 61 -11 51 11 35 26 -20 10 -34 21 -54 35 -59 23 -9 48 7 41 26 -3 7 0
14 6 16 19 7 -2 28 -27 28 -21 0 -24 5 -27 42 -2 33 -7 44 -23 47 -24 4 -44
29 -45 54 0 14 -5 17 -21 12 -14 -5 -25 -2 -30 6 -13 20 -11 29 6 29 8 0 15 8
15 18 0 14 8 19 30 19 18 0 30 -6 30 -14 0 -7 7 -13 15 -13 11 0 14 7 9 25 -5
19 -2 25 10 25 9 0 16 -7 16 -16 0 -8 4 -13 9 -9 5 3 13 1 16 -5 8 -13 -14
-42 -25 -35 -4 3 -14 -3 -21 -12 -10 -12 -10 -15 -1 -9 13 8 34 -9 45 -36 4
-11 12 -15 22 -12 9 4 17 -1 22 -12 14 -40 43 -39 43 1 0 15 7 26 21 30 l21 7
-22 23 c-30 32 -20 55 24 55 43 0 56 17 22 30 -14 5 -26 13 -26 16 0 4 3 4 6
1 9 -9 44 11 44 24 0 7 -12 9 -29 7 -39 -6 -82 25 -63 44 11 11 15 10 23 -5 8
-13 14 -15 30 -7 20 11 26 45 9 55 -5 3 -10 17 -10 29 0 31 -28 56 -40 36 -11
-18 -17 -12 -20 20 -4 46 0 60 16 60 11 0 14 -5 10 -16 -3 -8 0 -22 8 -29 12
-12 15 -8 20 25 3 22 8 40 9 40 2 0 22 -9 45 -20 47 -23 58 -24 67 -10 8 12
-21 60 -35 60 -6 0 -10 -9 -10 -20 0 -11 -4 -20 -10 -20 -5 0 -10 7 -10 15 0
9 -9 26 -20 37 -20 22 -22 45 -3 41 6 -1 8 10 5 25 -5 26 -4 26 15 10 11 -10
34 -18 51 -18 22 0 32 -5 32 -15 0 -8 4 -15 9 -15 5 0 11 -10 13 -22 2 -16 9
-22 21 -20 11 2 28 -4 38 -14 26 -24 31 -15 23 46 -6 44 -10 51 -25 47 -11 -3
-22 -1 -25 4 -3 5 -14 9 -26 9 -16 0 -19 5 -15 23 4 12 2 29 -3 37 -7 10 -10
11 -10 3 0 -18 -28 -16 -47 3 -12 11 -13 18 -4 27 6 6 11 28 11 49 0 31 -4 38
-19 38 -11 0 -21 5 -23 11 -2 5 -20 11 -41 12 -27 1 -37 6 -37 19 0 9 -4 20
-10 23 -5 3 -10 16 -10 28 0 42 -15 50 -41 23 -13 -14 -32 -26 -41 -26 -11 0
-24 -14 -32 -35 -8 -19 -20 -35 -25 -35 -16 0 -13 22 4 47 14 20 14 23 -5 33
-20 11 -23 37 -3 33 5 -1 7 11 5 28 -5 34 22 42 31 9 3 -11 13 -20 22 -20 9 0
19 9 22 20 7 26 33 26 33 -1 0 -12 4 -17 11 -14 6 4 21 -3 35 -16 17 -16 24
-19 24 -8 0 8 -5 20 -11 26 -13 13 -5 43 10 43 5 0 11 -9 14 -21 6 -23 27 -17
27 8 0 9 6 13 15 9 18 -7 19 3 1 27 -11 14 -15 15 -19 5 -4 -10 -6 -10 -6 1
-1 11 -4 11 -16 1 -12 -10 -15 -9 -15 4 0 13 -7 15 -40 10 -37 -6 -40 -5 -40
18 0 13 5 29 12 36 8 8 8 15 -2 26 -13 17 -35 12 -24 -6 9 -14 -16 -58 -34
-58 -11 0 -13 8 -8 32 l6 31 -30 -31 c-16 -18 -30 -36 -30 -42 0 -5 -7 -10
-15 -10 -17 0 -20 25 -5 35 13 8 13 25 0 25 -11 0 -59 50 -60 61 0 3 11 11 25
17 15 7 25 8 25 2 0 -16 22 -12 35 6 27 38 -17 74 -91 74 -17 0 -22 4 -18 15
7 17 44 21 44 5 0 -12 37 -14 44 -2 7 12 -8 31 -24 30 -35 -2 -50 3 -50 18 0
31 -35 10 -38 -24 -3 -27 -6 -31 -21 -22 -10 5 -21 7 -24 4 -7 -8 30 -44 46
-44 6 0 21 -8 32 -16 20 -15 20 -15 1 -30 -11 -7 -22 -11 -25 -8 -3 3 1 9 8
13 10 6 10 10 1 16 -14 9 -16 7 -24 -27 -5 -21 -3 -28 9 -28 10 0 15 -10 15
-30 0 -35 -15 -40 -25 -9 -5 16 -9 18 -15 9 -12 -20 -32 0 -26 25 4 16 1 25
-10 29 -24 9 -26 8 -19 -15 6 -18 4 -20 -15 -14 -15 5 -20 4 -16 -4 4 -6 0
-11 -8 -11 -18 0 -21 16 -5 26 6 3 9 19 7 35 -3 15 -1 26 4 23 4 -3 8 1 8 9 0
8 7 20 15 27 8 7 15 21 15 31 0 14 7 19 25 19 28 0 32 12 10 34 -8 8 -15 24
-15 35 0 22 -14 28 -25 11 -9 -15 -25 -2 -25 21 0 23 11 24 49 4 16 -8 31 -11
35 -8 3 4 19 -5 34 -18 61 -55 88 -65 36 -14 -14 14 -23 29 -19 33 3 4 11 -1
16 -11 14 -23 39 -22 39 3 0 13 -7 20 -18 20 -49 0 -125 59 -157 121 -9 16
-22 29 -30 29 -8 0 -15 5 -15 10 0 7 7 7 21 -1 20 -10 21 -9 15 16 -6 24 -5
27 13 22 12 -3 21 -1 21 5 0 6 7 8 15 4 11 -4 15 2 15 25 0 24 4 30 18 27 9
-2 18 -13 20 -26 2 -13 10 -22 22 -22 21 0 33 23 18 38 -15 15 -2 43 17 36 9
-4 15 -1 15 9 0 8 -7 17 -15 21 -8 3 -15 12 -15 20 0 7 7 16 15 20 19 7 45 -3
45 -17 0 -5 9 -2 19 7 28 26 36 2 8 -27 -24 -27 -31 -87 -11 -94 15 -5 25 35
18 65 -8 27 23 43 40 21 6 -8 21 -13 34 -11 13 2 29 -1 36 -7 17 -15 86 -11
86 5 0 6 -7 14 -15 18 -8 3 -15 12 -15 20 0 24 -19 29 -37 10 -13 -13 -14 -19
-5 -22 14 -4 7 -22 -9 -22 -6 0 -8 4 -4 9 3 5 0 13 -6 16 -6 4 -8 18 -5 31 4
14 2 24 -4 24 -5 0 -10 8 -10 18 1 16 1 16 14 0 15 -20 56 -14 56 8 0 8 10 14
24 14 15 0 26 7 29 20 5 20 37 29 37 11 0 -20 -13 -41 -21 -35 -5 3 -9 -2 -9
-11 0 -9 5 -13 10 -10 6 3 10 2 10 -3 0 -6 11 -13 24 -16 29 -7 43 -41 26 -61
-7 -8 -9 -15 -4 -15 31 1 56 66 29 76 -37 15 4 104 48 104 18 0 19 2 7 10 -13
9 -12 13 9 30 28 24 47 25 68 5 12 -13 13 -18 3 -31 -17 -19 -5 -31 15 -14 18
15 45 6 45 -16 0 -14 3 -14 15 -4 9 7 12 16 8 19 -16 12 -14 41 4 48 10 3 26
13 36 21 22 19 32 10 17 -17 -9 -17 -8 -21 6 -21 40 0 92 66 100 127 6 51 -30
56 -56 7 -19 -35 -42 -29 -64 16 -23 47 -13 97 17 92 10 -2 17 4 17 13 0 8 5
15 10 15 6 0 10 -4 10 -10 0 -19 19 -10 22 11 5 32 33 47 59 31 16 -10 24 -10
35 -1 9 8 14 8 14 1 0 -12 -40 -38 -53 -34 -5 1 -6 -2 -2 -8 14 -22 87 -8 78
16 -3 8 1 14 10 14 8 0 17 9 20 20 3 11 14 20 25 20 11 0 25 7 32 15 7 8 21
15 31 15 11 0 19 5 19 10 0 6 -5 10 -10 10 -6 0 -3 11 6 25 14 22 22 25 48 19
17 -3 36 -10 41 -15 7 -5 12 4 13 27 3 32 1 34 -23 28 -21 -5 -25 -3 -25 15 0
25 -17 27 -42 4 -21 -19 -36 -10 -19 11 27 32 -18 49 -55 21 -19 -14 -18 -14
4 -15 17 0 22 -6 22 -24 0 -13 6 -26 13 -29 7 -3 5 -7 -8 -12 -63 -22 -75 -29
-75 -41 0 -8 -5 -14 -11 -14 -6 0 -9 -9 -6 -20 6 -24 1 -25 -19 -5 -19 18 -35
20 -33 3 4 -30 -1 -42 -12 -31 -12 12 -3 53 12 53 5 0 9 7 9 15 0 8 5 15 10
15 6 0 10 5 10 10 0 6 -9 10 -20 10 -11 0 -21 -4 -21 -10 -3 -21 -6 -26 -36
-57 -38 -41 -47 -41 -63 -3 -10 24 -10 33 0 45 18 22 32 18 25 -7 -6 -22 -6
-22 14 2 30 37 26 45 -23 47 -31 1 -46 -2 -50 -13 -5 -14 -57 -20 -68 -8 -4 3
3 15 13 25 15 15 19 28 14 50 -5 24 -4 28 9 23 9 -3 16 -1 16 5 0 21 65 81 87
81 13 0 23 -3 23 -6 0 -12 -25 -51 -53 -84 -30 -34 -30 -35 -9 -38 12 -2 36 4
54 12 17 9 44 16 61 16 28 0 29 -2 23 -32 -6 -30 -5 -30 12 -15 10 10 24 17
30 17 19 0 14 16 -9 26 -20 9 -20 10 5 47 14 21 26 42 26 46 0 5 10 11 23 15
33 9 37 8 37 -9 0 -16 27 -19 79 -9 36 7 40 39 6 39 -24 0 -47 40 -43 74 2 19
-2 27 -17 29 -11 3 -22 7 -25 11 -19 24 -40 32 -59 21 -28 -14 -64 4 -56 29 3
9 -2 26 -10 37 -8 10 -15 14 -15 7 -1 -36 -70 16 -70 51 0 16 6 18 36 13 20
-3 44 -12 53 -20 27 -23 94 -45 159 -53 l61 -6 -8 28 c-4 15 -14 31 -22 34 -7
4 -32 15 -54 25 -22 9 -48 21 -57 26 -24 12 -58 11 -58 -1 0 -5 -7 -10 -16
-10 -11 0 -14 6 -9 20 4 11 2 20 -4 20 -6 0 -11 -4 -11 -10 0 -19 -27 -10 -66
24 -21 18 -49 36 -60 40 -12 4 -29 15 -39 26 -10 11 -28 20 -41 20 -30 0 -77
18 -86 33 -15 24 -8 37 21 37 30 0 49 14 32 24 -4 3 -11 18 -14 34 -4 17 -16
33 -31 40 -14 6 -26 16 -26 21 0 5 -14 14 -32 20 -29 10 -30 12 -14 30 15 16
15 19 1 31 -25 21 -17 37 25 54 22 9 40 22 40 29 0 7 -19 26 -42 41 -37 24
-49 27 -89 22 -36 -5 -51 -3 -63 9 -19 20 -20 27 -4 43 24 24 177 4 228 -30
53 -34 94 -40 152 -23 29 9 59 19 66 21 10 3 5 15 -17 39 -17 20 -31 44 -31
54 0 22 -19 31 -64 31 -17 0 -50 10 -73 23 -64 34 -153 96 -153 105 0 5 20 13
43 19 36 8 54 6 98 -10 30 -10 101 -27 159 -37 58 -11 106 -19 107 -20 1 0 8
-6 15 -13 42 -42 167 -111 213 -118 199 -30 256 -55 271 -115 8 -32 -7 -48
-56 -63 -39 -11 -40 -13 -40 -56 0 -47 -5 -51 -66 -54 -18 0 -43 9 -62 22 -29
22 -40 24 -129 21 -54 -2 -105 -1 -115 2 -21 6 -30 30 -19 52 5 9 12 25 15 35
11 36 63 34 106 -3 25 -22 75 -27 86 -8 9 14 -27 44 -93 77 -26 14 -59 35 -73
47 -27 25 -79 48 -88 39 -3 -3 0 -16 8 -29 11 -22 9 -28 -15 -60 -29 -39 -30
-34 3 -98 2 -3 -7 -8 -20 -10 -41 -6 -27 -32 17 -32 29 -1 41 -5 43 -18 2 -13
-3 -18 -17 -18 -28 0 -81 -53 -71 -70 6 -10 12 -11 22 -3 13 11 40 16 67 14 8
-1 11 -8 8 -21 -3 -10 1 -24 9 -31 18 -15 18 -35 0 -42 -20 -8 -99 11 -111 27
-12 15 -71 26 -107 19 -20 -4 -29 -13 -33 -34 -4 -16 -11 -29 -17 -29 -5 0 -8
-6 -6 -12 3 -8 28 -15 59 -18 44 -4 56 -9 66 -29 6 -14 23 -31 37 -38 14 -8
26 -20 26 -28 0 -19 6 -19 86 1 65 17 65 17 90 -7 l25 -23 6 22 c6 26 21 28
49 7 22 -17 38 -20 29 -5 -9 15 37 29 59 18 27 -14 44 6 24 29 -8 10 -18 36
-21 57 -8 52 -40 75 -50 36 -11 -42 -90 -15 -108 37 -14 43 -47 75 -71 67 -10
-3 -18 -1 -18 5 0 30 111 1 150 -38 37 -36 46 -38 60 -11 16 31 82 28 113 -5
15 -17 29 -24 40 -19 22 8 21 19 -4 43 -12 11 -18 24 -15 29 7 12 66 21 66 10
0 -4 7 -8 15 -8 8 0 29 -6 47 -14 18 -8 50 -18 70 -21 25 -4 39 -12 43 -26 4
-12 22 -27 41 -35 34 -14 42 -28 24 -39 -5 -3 -10 -15 -10 -25 0 -18 -2 -18
-17 -5 -69 57 -99 76 -117 73 -22 -3 -22 -8 -10 -79 6 -35 5 -36 -18 -32 -30
6 -88 -9 -89 -22 0 -5 13 -13 28 -16 41 -8 73 -28 73 -45 0 -10 7 -13 23 -9
13 3 42 -4 72 -18 28 -13 62 -27 78 -31 24 -6 27 -11 27 -46 0 -34 -3 -40 -22
-41 -53 -4 -104 4 -119 17 -8 8 -28 14 -43 14 -15 0 -46 9 -69 20 -35 17 -46
19 -69 9 -16 -6 -28 -15 -28 -19 0 -18 37 -37 77 -39 7 -1 19 -14 28 -31 11
-21 23 -30 40 -30 14 0 25 5 25 10 0 11 49 14 74 4 13 -5 14 -9 5 -20 -6 -8
-8 -15 -3 -15 5 -1 18 -3 29 -4 11 -2 27 -6 36 -10 12 -5 19 2 28 26 9 26 15
30 33 25 64 -18 78 -19 78 -2 0 14 3 14 28 -2 16 -9 42 -33 59 -52 21 -24 46
-39 78 -48 51 -13 57 -35 12 -40 -18 -2 -29 2 -33 13 -6 13 -8 14 -15 3 -6 -9
-9 -6 -9 10 0 13 -4 21 -9 18 -5 -3 -41 3 -80 13 -58 15 -71 16 -71 5 0 -8 -9
-14 -20 -14 -13 0 -18 -5 -14 -15 4 -8 17 -15 29 -15 13 0 31 -7 40 -17 9 -9
30 -16 47 -16 22 0 33 -7 41 -24 5 -12 18 -23 27 -23 27 0 41 -20 29 -42 -9
-18 -8 -19 11 -13 17 5 23 2 27 -15 4 -13 11 -19 20 -16 8 4 27 9 41 13 24 6
26 5 13 -11 -8 -9 -11 -20 -7 -24 4 -4 12 1 17 11 13 22 106 24 134 3 18 -13
17 -15 -19 -30 -28 -12 -37 -20 -32 -32 3 -8 6 -23 6 -31 0 -11 7 -14 26 -9
22 6 25 4 20 -12 -5 -14 -1 -21 14 -25 11 -3 27 -21 35 -41 18 -42 34 -45 75
-14 16 12 43 21 59 21 17 0 28 4 25 9 -3 4 -14 8 -25 8 -44 0 -6 32 54 44 18
4 27 13 27 26 0 10 4 22 10 25 14 9 48 -12 55 -35 7 -21 55 -29 55 -10 0 6 9
10 20 10 15 0 20 -7 20 -25 0 -17 -5 -25 -18 -25 -10 0 -23 -5 -30 -12 -16
-16 -82 -38 -116 -38 -36 0 -96 -44 -96 -70 0 -10 -9 -22 -20 -25 -26 -8 -18
-21 31 -45 42 -22 50 -39 20 -47 -11 -3 -22 -14 -24 -25 -5 -17 -2 -19 16 -14
42 13 87 19 87 12 0 -4 -5 -16 -10 -27 -9 -16 -7 -21 14 -28 13 -6 26 -15 28
-22 2 -7 13 -14 24 -15 10 -1 29 -6 42 -9 21 -7 22 -6 11 19 -7 14 -10 29 -6
32 9 9 43 -13 62 -42 22 -33 6 -47 -45 -39 l-35 5 37 -31 c21 -17 36 -35 33
-39 -9 -14 63 7 80 23 8 9 15 30 15 47 0 23 -6 33 -25 40 -14 5 -25 14 -25 20
0 7 7 7 22 -1 17 -9 23 -9 26 0 2 6 12 -5 23 -26 13 -25 16 -40 9 -47 -13 -13
-13 -46 -1 -46 6 0 13 5 16 10 12 20 26 10 15 -10 -6 -11 -16 -18 -21 -14 -29
17 14 -35 45 -57 20 -13 40 -36 46 -51 5 -16 15 -42 21 -58 10 -27 76 -90 94
-90 13 0 -5 83 -25 117 -25 42 -38 152 -20 163 23 14 67 -10 118 -66 36 -39
57 -54 76 -54 21 0 26 5 26 25 0 40 -37 103 -70 120 -32 16 -50 48 -69 123 -8
27 -17 42 -28 42 -12 0 -14 7 -9 35 4 19 3 42 -2 52 -5 10 -14 34 -21 53 -9
29 -9 37 4 46 13 10 13 13 1 24 -9 6 -19 9 -24 6 -6 -3 -9 0 -9 7 1 6 -2 38
-6 70 -8 52 -10 57 -22 40 -16 -22 -17 -21 -47 42 -13 29 -36 58 -55 70 -18
11 -37 32 -44 48 -14 34 -74 87 -97 87 -22 0 -105 77 -126 118 -23 45 -42 52
-93 35 -35 -12 -43 -19 -43 -39 0 -17 6 -24 20 -24 26 0 37 -43 21 -85 -18
-50 -14 -74 14 -85 14 -5 25 -16 25 -24 0 -38 -72 -48 -78 -11 -2 11 -9 26
-14 33 -14 17 -48 15 -48 -3 0 -10 -10 -15 -32 -15 -18 0 -40 -5 -48 -10 -10
-6 -22 -4 -38 6 -12 8 -28 14 -35 12 -11 -2 -97 50 -97 59 0 2 11 8 25 13 21
8 32 6 53 -10 15 -11 44 -23 65 -27 l36 -6 -5 54 c-4 32 -16 68 -30 90 -26 38
-31 69 -11 69 6 0 27 -4 46 -10 30 -8 35 -6 61 22 32 35 30 51 -8 67 -28 12
-65 45 -131 118 -36 40 -51 77 -51 129 0 36 -52 64 -117 64 -29 0 -53 -4 -53
-9 0 -4 17 -28 38 -52 56 -65 112 -154 112 -179 0 -21 0 -21 -48 5 -34 19 -66
50 -113 112 -63 83 -70 89 -190 153 -33 17 -89 101 -89 131 0 12 -18 41 -40
66 -22 25 -40 53 -40 61 0 8 -16 30 -35 49 -19 18 -39 51 -45 72 -5 21 -22 52
-37 68 -16 17 -36 43 -46 57 -14 20 -23 25 -43 20 -20 -5 -24 -3 -24 16 0 19
4 21 25 16 33 -8 32 0 -5 31 -17 14 -42 47 -55 73 -39 78 -240 256 -276 245
-9 -3 -22 1 -29 10 -7 8 -21 15 -31 15 -10 0 -21 5 -25 11 -3 6 -14 9 -24 6
-13 -3 -20 3 -24 22 -7 30 -90 86 -172 116 -27 10 -77 28 -111 41 -34 13 -97
29 -140 35 -59 8 -104 23 -183 61 -58 28 -117 59 -132 69 -14 11 -34 19 -44
19 -9 0 -25 7 -35 16 -16 14 -26 15 -88 3 -61 -10 -86 -10 -179 5 -72 12 -149
17 -228 15 -106 -3 -179 1 -281 17 -22 3 -37 13 -47 31 -11 22 -22 27 -54 29
-24 1 -63 15 -94 32 -29 17 -73 36 -98 42 -25 7 -63 21 -84 32 -31 16 -50 19
-88 14 -40 -6 -57 -2 -100 19 -28 14 -65 26 -82 26 -43 2 -177 -36 -219 -61
-40 -24 -56 -20 -111 27 -47 39 -81 45 -73 11 15 -57 -59 -81 -106 -34 -22 22
-28 23 -81 14 -55 -8 -61 -7 -105 21 -25 16 -63 33 -84 37 -22 3 -61 22 -89
40 -27 19 -54 34 -59 34 -5 0 -14 9 -21 20 -15 24 -22 25 -38 5z m965 -287
c15 -7 25 -19 25 -33 0 -11 5 -26 11 -32 9 -9 5 -20 -15 -43 -28 -34 -27 -50
5 -50 11 0 22 -7 26 -16 8 -20 -21 -49 -41 -41 -18 7 -22 15 -31 69 -4 27 -11
38 -27 40 -23 3 -52 39 -63 76 -5 17 -1 24 17 31 32 13 63 13 93 -1z m2524
-827 c11 -16 22 -44 23 -62 3 -33 2 -34 -31 -32 -25 1 -44 11 -68 37 -39 41
-34 39 -67 26 -29 -11 -41 0 -31 30 4 14 17 20 48 23 101 9 105 8 126 -22z
m-1092 -3283 c4 -7 8 -17 8 -23 0 -5 11 -12 25 -15 16 -4 26 -14 28 -28 4 -24
17 -29 28 -11 3 6 1 15 -6 19 -9 5 -9 9 -1 14 6 4 11 2 11 -5 0 -8 4 -8 15 1
16 13 15 14 19 -64 1 -19 14 -29 49 -40 13 -4 17 -12 12 -26 -7 -22 11 -53 26
-45 5 3 14 -3 21 -14 9 -15 19 -19 36 -14 20 5 23 2 20 -13 -2 -11 -13 -20
-25 -22 -15 -2 -19 -8 -16 -23 4 -13 0 -19 -12 -19 -9 0 -19 9 -22 20 -3 11
-9 20 -14 20 -5 0 -9 6 -9 13 0 7 -7 22 -15 33 -14 18 -16 18 -29 2 -18 -25
-31 -22 -51 8 -21 32 -13 42 21 24 21 -12 27 -12 34 0 11 18 4 30 -20 30 -10
0 -21 6 -23 13 -4 9 -8 9 -15 -2 -9 -12 -13 -12 -26 -2 -9 8 -16 20 -16 27 0
8 -6 13 -12 12 -7 -2 -12 5 -12 14 1 9 -4 14 -11 12 -18 -7 -31 16 -15 26 10
6 8 16 -8 45 -12 20 -22 38 -22 41 0 9 19 3 27 -8z m-10648 -607 c24 -5 46
-13 50 -19 3 -5 32 -15 63 -22 67 -13 107 -32 133 -60 10 -11 24 -20 32 -20 7
0 13 -4 13 -9 0 -8 48 -23 80 -25 8 -1 16 -9 18 -19 2 -9 12 -17 23 -17 12 0
19 -7 19 -18 0 -22 19 -42 40 -42 17 0 60 -43 60 -60 0 -14 -27 -12 -34 3 -3
6 -3 0 0 -15 6 -25 3 -28 -20 -28 -18 0 -27 -6 -31 -23 -7 -27 -54 -53 -109
-61 -22 -3 -42 -9 -45 -14 -10 -14 -71 -32 -110 -32 -20 0 -45 -6 -56 -14 -31
-21 -165 -15 -265 13 -150 40 -164 45 -198 68 -46 31 -99 46 -134 39 -37 -7
-66 8 -78 40 -12 30 -27 31 -32 2 -3 -13 -4 1 -4 29 1 29 3 48 4 43 2 -6 12
-10 23 -10 18 0 24 18 21 63 -2 19 24 24 31 5 4 -10 7 -10 18 0 16 14 59 16
59 2 0 -22 18 -8 23 19 4 20 14 31 31 35 13 3 42 23 64 43 104 100 188 127
311 104z m10471 -126 c-10 -12 -8 -16 14 -25 14 -5 26 -16 26 -24 0 -8 6 -16
13 -19 9 -3 9 -8 1 -18 -17 -23 -18 -79 -1 -79 21 0 27 11 16 31 -12 23 1 81
21 87 9 3 11 -1 7 -11 -4 -10 1 -22 13 -30 14 -10 19 -23 17 -47 -3 -39 -27
-54 -27 -18 -1 22 -1 22 -16 -5 -13 -23 -13 -34 -3 -65 6 -20 16 -40 21 -43 6
-4 8 -15 5 -25 -4 -17 -6 -17 -12 4 -4 12 -11 22 -16 22 -5 0 -9 7 -9 15 0 8
-11 22 -25 31 -14 9 -25 25 -25 35 0 11 -4 19 -10 19 -14 0 -30 -35 -30 -68 0
-20 -6 -31 -18 -34 -15 -4 -17 0 -14 23 2 15 -6 58 -18 94 -12 36 -20 68 -17
71 2 3 17 -16 31 -41 15 -25 32 -45 38 -45 7 0 7 4 1 13 -6 6 -13 24 -15 40
-4 21 -1 27 13 27 21 0 24 -11 8 -27 -7 -7 -6 -12 4 -16 11 -4 16 3 19 25 4
24 0 31 -17 38 -12 5 -25 16 -28 24 -4 9 -12 15 -19 14 -7 -2 -13 4 -13 12 0
10 8 14 24 12 15 -2 21 0 17 7 -5 7 2 11 15 11 18 0 19 -2 9 -15z m2207 -2601
c8 -21 39 -53 85 -87 20 -15 39 -36 43 -47 3 -11 11 -19 17 -17 9 1 68 -94 68
-110 0 -12 -19 1 -30 21 -7 14 -18 22 -25 20 -14 -6 -78 70 -68 80 3 3 0 6 -8
6 -19 1 -64 40 -74 65 -5 13 -9 15 -12 7 -7 -19 -23 -3 -23 24 0 14 -4 22 -10
19 -15 -9 -30 4 -23 20 7 20 52 19 60 -1z m-7170 -954 c3 -11 12 -20 20 -20
10 0 13 -6 9 -15 -4 -11 3 -19 19 -25 14 -5 25 -15 24 -22 0 -8 -2 -9 -5 -2
-3 6 -15 9 -28 7 -19 -4 -24 -1 -23 13 1 10 -5 20 -15 22 -13 3 -16 -5 -14
-40 1 -40 3 -43 29 -41 29 2 37 -11 12 -21 -23 -9 -19 -35 5 -29 24 6 26 -5 5
-21 -8 -6 -16 -30 -19 -54 -2 -23 -6 -45 -10 -49 -13 -13 -5 -25 14 -20 28 7
35 -10 14 -34 -11 -13 -21 -16 -27 -10 -14 14 -36 -17 -37 -50 0 -20 -6 -28
-25 -31 -31 -6 -44 11 -22 27 21 15 23 65 2 65 -11 0 -14 8 -11 33 3 17 5 36
5 40 1 5 11 5 24 2 12 -3 17 -3 12 2 -6 4 -8 23 -4 43 3 19 7 29 8 23 1 -14
31 -18 31 -5 0 4 -10 16 -22 27 l-23 20 23 3 c24 4 25 4 16 26 -8 20 -18 20
-39 0 -22 -23 -27 -13 -10 19 8 15 12 34 9 41 -3 7 7 21 22 30 19 13 23 21 15
29 -6 6 -11 17 -11 24 0 21 21 15 27 -7z m4543 -3966 c0 -19 -7 -45 -15 -58
-11 -16 -15 -42 -13 -82 2 -47 0 -59 -12 -59 -8 0 -20 15 -26 35 -6 19 -16 36
-23 38 -12 4 -15 63 -5 97 6 21 74 75 87 68 4 -2 7 -20 7 -39z m-12985 -1669
c57 -27 105 -75 105 -106 0 -11 4 -27 9 -37 5 -9 16 -71 25 -137 18 -134 12
-175 -30 -230 -13 -18 -24 -36 -24 -42 0 -16 -32 -40 -64 -47 -52 -13 -83 2
-123 57 -21 29 -43 57 -49 62 -21 17 -64 93 -78 137 -17 50 -35 208 -33 290 1
52 3 57 32 71 45 23 164 14 230 -18z m5052 -626 c27 -7 68 -21 93 -32 24 -10
55 -23 69 -28 22 -9 23 -13 17 -56 -9 -69 -115 -207 -168 -218 -29 -7 -154 20
-172 37 -6 4 -24 8 -42 8 -17 0 -37 7 -44 15 -6 7 -37 28 -68 46 -67 37 -76
48 -56 70 7 8 14 21 14 28 0 6 11 17 25 23 14 6 25 15 25 19 0 10 107 71 150
85 47 16 100 16 157 3z m-4172 -273 c113 -52 188 -224 139 -319 -21 -40 -91
-109 -127 -125 -35 -15 -91 -15 -157 0 -66 15 -109 63 -139 153 -35 108 -27
182 25 244 60 69 168 89 259 47z m9961 -4315 c84 -5 96 -9 145 -43 30 -20 83
-51 119 -67 36 -17 92 -53 125 -81 32 -27 62 -50 66 -50 4 0 27 -16 51 -36 23
-20 65 -51 93 -69 27 -18 66 -49 85 -70 19 -20 61 -50 93 -66 39 -20 68 -44
89 -74 34 -48 70 -67 197 -106 112 -33 181 -105 181 -187 0 -17 12 -44 28 -64
33 -41 300 -288 312 -288 12 0 128 -166 156 -224 22 -47 156 -191 309 -333 37
-35 45 -49 45 -78 0 -23 -6 -38 -16 -42 -20 -8 -134 24 -193 53 -65 34 -414
124 -569 148 -24 4 -65 18 -92 31 -26 13 -80 33 -120 44 -39 11 -85 29 -103
39 -18 11 -59 25 -92 32 -33 7 -85 25 -115 40 -31 15 -83 39 -116 52 -33 14
-80 39 -104 57 -24 17 -64 37 -88 43 -25 6 -72 32 -107 58 -33 26 -81 58 -105
70 -23 12 -66 38 -94 58 -28 19 -62 43 -76 52 -14 9 -45 30 -70 46 -46 31
-116 65 -159 79 -13 4 -50 23 -83 42 -55 32 -66 35 -151 37 -65 1 -102 7 -124
19 -97 51 -94 50 -139 40 -23 -6 -49 -6 -56 -2 -7 5 -28 9 -45 9 -18 0 -55 8
-82 19 l-50 19 -22 -24 c-29 -31 -74 -32 -90 -3 -6 12 -11 42 -11 68 -1 34
-12 69 -43 131 -24 47 -45 103 -48 124 -6 41 -34 77 -78 103 -81 48 -75 184
10 235 20 11 53 32 73 46 49 32 139 52 268 58 119 5 219 20 445 63 47 9 146 7
351 -8z m5852 -212 c52 -44 65 -62 102 -147 23 -53 53 -115 65 -137 12 -22 28
-62 34 -89 7 -27 23 -70 36 -96 13 -26 29 -69 36 -96 7 -27 15 -53 19 -59 4
-5 10 -23 14 -39 5 -22 2 -34 -15 -52 -21 -22 -24 -23 -41 -7 -10 9 -18 27
-18 40 0 29 -11 51 -56 110 -18 24 -43 75 -54 114 -22 73 -171 417 -196 453
-18 26 -18 56 0 56 8 0 41 -23 74 -51z"/>
<path d="M17466 19185 c-11 -8 -17 -18 -13 -21 4 -4 2 -13 -4 -20 -7 -8 -27
-11 -62 -7 -37 3 -61 0 -82 -11 l-30 -16 38 0 c21 0 37 -5 37 -11 0 -8 -15
-10 -45 -7 -25 3 -48 2 -51 -3 -3 -5 2 -9 10 -9 9 0 16 -4 16 -10 0 -5 8 -10
18 -10 14 0 15 -2 2 -10 -12 -8 -12 -10 5 -10 17 0 18 -1 4 -16 -14 -13 -20
-14 -60 0 -55 20 -78 21 -61 4 7 -7 12 -20 12 -29 0 -10 11 -19 31 -23 l31 -6
-23 -19 c-26 -21 -24 -23 34 -35 44 -10 35 -35 -12 -29 -22 3 -47 0 -57 -6
-16 -10 -12 -11 24 -8 53 6 110 -8 114 -29 2 -11 16 -17 46 -18 41 -2 87 -26
49 -26 -27 0 -20 -16 28 -65 28 -28 53 -45 64 -43 21 4 51 -19 51 -38 0 -8 9
-14 19 -14 24 0 35 -67 15 -91 -8 -8 -14 -21 -14 -27 0 -21 -23 -62 -35 -62
-18 0 -56 -32 -59 -50 -1 -8 -16 -30 -33 -48 -34 -35 -156 -122 -172 -122 -5
0 -23 -16 -40 -35 -31 -36 -38 -69 -32 -160 3 -46 29 -161 46 -197 8 -18 24
-67 36 -108 12 -41 41 -115 65 -165 25 -49 45 -103 45 -120 0 -16 0 -109 0
-205 -1 -166 6 -227 28 -254 14 -16 34 -129 36 -201 1 -33 11 -87 23 -120 16
-48 21 -82 20 -160 -1 -59 5 -133 15 -180 9 -44 21 -111 26 -150 12 -93 37
-221 46 -235 4 -6 11 -50 16 -98 5 -48 14 -125 20 -172 6 -47 13 -262 15 -479
2 -314 0 -400 -10 -420 -27 -51 -69 -207 -74 -271 -2 -36 -13 -81 -23 -101
-11 -22 -21 -70 -24 -120 -4 -52 -18 -121 -37 -179 -36 -110 -34 -159 7 -186
32 -21 68 -12 135 31 61 39 111 50 230 50 68 -1 99 -6 157 -29 40 -15 87 -37
105 -49 42 -29 86 -115 108 -212 6 -27 18 -77 26 -110 45 -195 -17 -530 -154
-826 -22 -48 -52 -127 -67 -175 -14 -49 -41 -138 -60 -199 -52 -170 -55 -191
-46 -298 8 -95 4 -143 -16 -222 -10 -37 -18 -187 -29 -547 -3 -107 0 -144 12
-173 8 -20 19 -73 24 -118 9 -76 8 -86 -20 -168 -50 -143 -108 -235 -231 -363
-110 -115 -149 -143 -204 -146 -46 -3 -55 -1 -55 13 0 7 -11 23 -25 35 -15 13
-22 28 -19 37 4 8 1 15 -6 15 -6 0 -8 4 -5 10 3 5 -6 12 -20 16 -25 6 -36 34
-12 34 7 1 5 6 -5 14 -10 7 -18 18 -18 25 0 6 -4 11 -9 11 -10 0 -22 -89 -25
-182 -1 -29 -10 -69 -21 -88 -10 -19 -20 -65 -23 -103 -3 -37 -9 -70 -13 -73
-5 -3 -9 -28 -9 -56 0 -29 -4 -65 -10 -82 -10 -35 -36 -160 -52 -251 -10 -64
-16 -90 -71 -310 -50 -201 -66 -258 -77 -277 -6 -10 -10 -27 -10 -37 0 -11 -4
-30 -9 -43 -5 -13 -15 -43 -22 -68 -7 -25 -15 -49 -19 -55 -4 -5 -12 -28 -18
-50 -6 -22 -19 -65 -28 -95 -9 -30 -21 -65 -27 -78 -11 -24 4 -59 63 -147 15
-22 51 -80 80 -130 29 -49 72 -115 95 -145 23 -30 51 -75 63 -100 22 -46 118
-170 132 -170 4 0 19 -11 34 -25 15 -14 53 -42 84 -64 32 -21 64 -46 72 -56 7
-9 28 -22 45 -29 17 -8 48 -30 68 -51 20 -21 51 -48 69 -62 55 -40 260 -230
414 -383 80 -80 158 -156 172 -170 15 -14 51 -52 82 -85 30 -32 91 -95 135
-140 45 -44 87 -93 95 -109 12 -22 41 -41 125 -81 60 -29 121 -56 135 -60 14
-4 30 -11 35 -15 6 -4 28 -13 50 -20 22 -7 63 -28 90 -46 28 -19 95 -51 150
-73 101 -39 218 -93 239 -109 6 -6 36 -23 66 -39 169 -92 196 -107 210 -118 8
-7 47 -29 85 -50 39 -21 86 -48 105 -60 82 -51 219 -125 233 -125 22 0 105
-39 109 -51 4 -13 97 -51 203 -84 44 -13 96 -35 115 -48 19 -13 74 -47 122
-76 111 -67 140 -99 136 -155 -3 -35 -7 -43 -35 -55 -38 -17 -39 -21 -17 -63
9 -17 25 -68 36 -112 10 -45 29 -97 42 -116 62 -94 68 -114 63 -228 -8 -207
-28 -477 -37 -506 -6 -16 -10 -59 -10 -95 0 -36 -5 -84 -10 -106 -19 -85 -33
-905 -19 -1145 21 -362 40 -634 49 -720 6 -52 15 -138 21 -190 11 -98 36 -228
68 -360 11 -41 22 -97 26 -125 10 -76 34 -200 56 -294 12 -47 25 -110 30 -140
4 -31 19 -119 33 -196 14 -77 32 -196 40 -263 9 -68 25 -163 37 -210 11 -48
24 -118 29 -157 22 -185 50 -395 60 -444 5 -29 10 -71 10 -92 l0 -39 915 0
c503 0 915 1 915 3 0 2 -7 27 -16 56 -14 48 -14 57 1 101 21 63 13 105 -37
197 l-40 73 17 55 c14 49 14 61 1 110 -7 30 -23 66 -35 81 -27 34 -27 59 0 78
23 16 23 16 -6 116 -18 61 -21 121 -10 163 6 21 3 35 -12 55 -24 32 -36 130
-23 186 9 42 -5 93 -37 128 -13 14 -14 32 -9 100 6 74 4 88 -15 122 -17 33
-20 50 -15 95 4 37 1 75 -9 111 -9 30 -20 96 -25 147 -4 51 -16 113 -26 139
-15 39 -16 54 -7 98 10 46 9 56 -12 103 -18 40 -24 71 -24 126 0 51 -6 85 -20
117 -15 32 -21 66 -21 117 0 48 -7 91 -20 125 -11 29 -20 67 -20 84 0 17 -9
57 -20 89 -11 32 -20 79 -20 104 0 25 -10 66 -21 91 -15 31 -21 64 -20 107 1
34 -3 65 -9 68 -19 12 -50 88 -65 159 -8 39 -21 85 -30 102 -8 17 -18 53 -21
80 -7 54 -31 137 -75 257 -16 43 -29 85 -29 92 0 7 -17 49 -39 92 -40 82 -61
137 -90 239 -10 33 -32 85 -49 115 -17 30 -34 74 -38 97 -4 23 -19 62 -35 87
-15 24 -42 78 -58 120 -17 41 -43 99 -59 127 -16 29 -37 78 -48 108 -10 30
-30 73 -45 96 -14 22 -29 51 -32 65 -4 13 -24 48 -46 76 -22 29 -42 66 -46 83
-4 16 -11 32 -16 36 -5 3 -20 26 -33 52 -13 26 -36 61 -50 77 -14 17 -26 33
-26 37 0 4 -22 33 -50 63 -27 30 -50 58 -50 61 0 2 9 23 20 45 12 22 18 44 15
49 -8 14 -103 40 -144 40 -41 0 -103 26 -146 61 -30 25 -63 38 -144 59 -61 16
-77 33 -46 50 14 7 21 18 18 24 -4 7 -1 6 8 -1 20 -16 176 -32 219 -21 19 4
60 5 90 2 30 -3 83 -1 117 5 84 16 146 -3 236 -70 57 -43 74 -63 102 -120 18
-37 42 -81 54 -97 12 -17 21 -34 21 -39 0 -16 113 -229 130 -243 3 -3 11 -17
17 -32 14 -31 70 -49 84 -27 10 15 14 75 11 129 -4 44 16 129 34 155 28 38
191 36 253 -4 34 -22 67 -80 75 -133 9 -57 -22 -186 -61 -261 -31 -59 -26
-113 11 -127 13 -5 39 -22 57 -38 46 -40 65 -48 133 -61 42 -8 71 -21 102 -46
23 -19 46 -35 50 -35 4 0 15 -6 23 -14 9 -8 43 -29 76 -47 33 -17 81 -47 107
-65 44 -31 121 -74 133 -74 3 0 5 382 5 849 0 742 -2 850 -15 861 -8 7 -15 19
-15 27 0 11 -8 14 -30 11 -18 -3 -35 1 -41 9 -14 17 -101 17 -117 1 -9 -9 -15
-9 -20 -2 -4 6 -33 21 -65 33 -31 13 -60 27 -63 32 -3 5 -20 9 -39 9 -19 0
-36 4 -39 9 -3 4 -18 11 -33 15 -43 9 -78 47 -97 106 -10 30 -31 84 -48 119
-46 98 -58 149 -59 235 0 89 29 195 66 236 93 105 129 274 89 411 -16 53 -74
168 -98 192 -21 21 -71 100 -93 147 -30 61 -43 115 -43 175 0 87 15 119 99
207 80 86 92 107 111 198 7 30 18 77 26 104 16 56 18 83 5 90 -5 4 -12 50 -16
104 -4 53 -11 113 -16 133 -12 49 -13 207 -1 222 5 7 12 24 16 38 3 15 17 37
31 50 13 13 25 29 25 36 0 6 3 13 8 15 22 10 73 116 83 176 12 64 16 387 8
557 -4 75 17 181 51 270 5 11 14 41 20 67 7 26 19 53 26 59 8 7 22 28 32 48
23 48 22 305 -1 378 -19 59 -19 114 -1 222 18 105 8 138 -77 264 -66 96 -98
175 -101 246 -3 60 9 145 29 202 11 31 13 56 8 75 -5 16 -9 32 -9 37 -3 23
-70 87 -164 153 -106 75 -202 157 -202 173 0 5 -9 20 -20 34 -34 42 -58 130
-66 232 -6 91 -8 96 -32 102 -18 4 -46 -4 -96 -30 -89 -45 -128 -52 -191 -35
-72 20 -126 51 -160 93 -36 45 -105 174 -105 197 0 9 -4 20 -10 23 -5 3 -10
16 -10 29 0 36 -46 69 -86 63 -22 -4 -39 -1 -48 9 -8 8 -31 14 -50 14 -20 0
-36 5 -36 10 0 6 -7 10 -16 10 -16 0 -64 44 -64 57 0 4 -17 27 -39 53 -28 33
-40 57 -42 87 -3 23 -1 39 3 37 4 -3 10 6 14 19 3 14 19 37 35 53 16 15 29 33
29 38 0 11 20 26 70 54 14 8 58 17 98 20 l72 5 17 56 c22 78 39 101 74 101 19
0 32 -6 36 -17 3 -10 15 -29 27 -41 12 -13 21 -33 21 -45 0 -16 6 -22 22 -22
11 0 25 -3 29 -7 4 -5 -1 -8 -11 -8 -10 0 -24 -8 -31 -17 -12 -16 -15 -16 -23
-3 -8 12 -13 12 -30 -4 -14 -13 -28 -16 -51 -11 -19 4 -36 2 -45 -5 -21 -18
-18 -40 5 -40 11 0 20 -6 20 -13 0 -8 10 -23 23 -35 22 -20 23 -27 16 -80 -8
-52 -6 -61 19 -102 25 -40 32 -45 69 -48 23 -2 51 2 62 7 25 14 113 26 169 24
25 -1 40 2 37 7 -4 6 1 10 9 10 9 0 17 5 17 10 1 6 2 14 3 19 0 5 5 13 9 18 5
4 15 23 22 41 8 17 20 32 28 32 7 0 52 40 98 90 46 49 89 90 96 90 26 0 106
42 171 89 38 28 76 51 84 51 7 0 24 7 37 16 20 14 28 15 65 4 85 -27 144 -71
175 -130 54 -102 63 -142 62 -284 -1 -72 3 -146 8 -163 9 -32 154 -257 172
-269 5 -3 9 339 9 857 l0 861 -22 -6 c-58 -15 -195 -27 -242 -22 -55 7 -121
40 -111 55 3 5 -13 24 -35 41 -22 17 -37 36 -34 42 3 5 -3 12 -15 15 -12 3
-21 10 -21 15 0 28 -80 71 -153 82 -124 19 -267 78 -345 142 -57 47 -102 51
-113 10 -7 -24 -1 -40 34 -98 60 -98 87 -149 87 -163 0 -7 9 -20 19 -29 10 -9
31 -52 46 -94 67 -187 20 -348 -120 -412 -144 -65 -272 -48 -380 51 -50 46
-119 133 -150 189 -19 33 -25 41 -53 75 -24 28 -60 18 -82 -22 -70 -127 -93
-152 -210 -232 -118 -82 -177 -136 -190 -176 -11 -33 -9 -37 28 -82 66 -79 84
-126 87 -225 2 -64 7 -91 19 -103 19 -19 20 -29 6 -56 -10 -17 -13 -18 -34 -4
-12 8 -25 12 -29 9 -3 -4 -47 -6 -96 -5 -66 1 -97 -2 -113 -13 -13 -8 -26 -15
-30 -16 -5 0 -10 -1 -13 -1 -3 -1 -9 -3 -15 -4 -5 -1 -11 -3 -12 -5 -2 -1 -16
-4 -33 -6 -16 -3 -55 -16 -85 -30 -78 -36 -165 -44 -260 -26 l-77 15 -88 -32
c-76 -27 -105 -32 -225 -38 -123 -5 -144 -4 -208 16 -73 22 -131 50 -167 82
-27 23 -93 59 -108 59 -7 0 -35 -22 -62 -50 -27 -27 -55 -50 -62 -50 -7 0 -13
-4 -13 -9 0 -16 -74 -22 -125 -11 -27 6 -83 27 -123 46 -41 19 -82 34 -93 34
-18 0 -117 40 -149 60 -8 5 -33 18 -55 29 -108 53 -186 166 -190 276 -1 36 2
65 7 65 4 0 8 24 8 53 0 34 15 98 45 191 25 76 43 142 40 146 -3 5 1 12 8 17
7 4 33 34 57 66 25 31 48 57 52 57 7 0 32 25 78 77 18 21 40 70 40 91 0 8 11
29 23 46 13 17 26 36 28 41 11 28 56 85 80 101 17 11 29 30 32 51 3 18 10 38
16 45 6 7 27 31 46 53 42 49 43 70 8 129 -31 49 -69 72 -108 62 -14 -3 -37 -9
-52 -13 -43 -10 -89 -50 -123 -105 -17 -28 -45 -65 -61 -82 -16 -17 -29 -36
-29 -42 0 -6 -7 -17 -15 -24 -8 -7 -15 -21 -15 -32 0 -39 -167 -189 -225 -203
-11 -2 -40 -9 -64 -15 -83 -20 -165 5 -262 81 -42 33 -94 150 -104 237 -8 63
-37 133 -77 184 -50 64 -97 132 -118 170 -20 38 -28 128 -11 128 5 0 13 9 16
20 10 31 91 104 143 130 26 13 54 29 62 36 33 28 130 43 280 45 82 0 167 5
188 10 67 15 224 31 288 29 43 -1 82 7 135 26 41 15 76 29 79 33 3 4 17 14 33
24 22 14 27 25 27 58 0 62 -27 130 -83 212 -223 325 -235 349 -309 601 -11 37
-33 94 -50 125 -65 121 -78 146 -78 154 0 8 -41 100 -66 149 -8 14 -14 34 -14
45 0 10 -7 32 -16 48 -9 17 -24 54 -35 83 -20 58 -62 158 -87 210 -9 19 -17
40 -18 47 -1 7 -14 55 -29 106 -31 107 -64 189 -76 189 -5 0 -18 19 -30 42
-12 24 -34 58 -49 78 -15 19 -33 53 -40 75 -7 22 -15 45 -19 50 -3 6 -6 15 -6
20 -1 39 -165 247 -204 260 -10 3 -24 16 -31 30 -7 13 -17 22 -21 19 -4 -2
-11 2 -16 10 -4 8 -22 30 -39 48 -17 19 -37 51 -43 71 -7 20 -19 37 -27 37
-11 0 -14 15 -14 64 0 35 3 71 6 80 9 23 31 20 37 -5 8 -29 30 -19 41 19 7 26
17 34 49 44 29 9 43 20 51 39 6 16 20 30 34 34 21 5 23 10 19 38 -3 18 -9 58
-13 90 l-6 57 -39 0 c-22 0 -39 5 -39 10 0 6 -9 10 -19 10 -11 0 -22 6 -25 13
-3 9 -8 7 -16 -5 -12 -20 -32 -15 -66 18 -20 21 -32 24 -106 24 -89 1 -118 12
-115 46 2 14 -5 20 -25 22 -16 2 -28 6 -28 10 0 4 -35 8 -77 9 -46 1 -79 6
-81 12 -5 15 -33 13 -56 -4z m1193 -7355 c101 -37 161 -96 161 -159 0 -18 5
-41 10 -52 6 -11 7 -19 1 -19 -5 0 -15 -21 -22 -46 -15 -48 -116 -179 -147
-188 -9 -3 -37 -24 -61 -46 -32 -30 -52 -40 -77 -40 -18 0 -36 -4 -39 -10 -9
-14 -58 -12 -87 3 -61 31 -83 60 -101 133 -25 107 -12 211 42 320 24 49 33 57
107 94 72 35 137 38 213 10z m1216 -542 c14 -6 25 -17 25 -24 0 -7 9 -16 20
-19 19 -6 21 -11 24 -43 1 -7 12 -19 26 -26 20 -10 30 -10 50 -1 52 25 179 48
232 42 89 -9 159 -60 172 -122 12 -55 -22 -166 -66 -220 -66 -80 -111 -145
-128 -183 -12 -26 -27 -58 -33 -71 -17 -34 -128 -133 -181 -160 -42 -22 -53
-23 -153 -18 -126 7 -219 21 -236 35 -7 6 -49 23 -94 38 -48 16 -105 44 -137
68 -30 23 -64 48 -76 56 -54 37 -70 53 -93 94 -13 24 -27 60 -31 79 -6 32 -3
39 24 63 33 30 90 54 128 54 13 0 51 11 85 25 34 13 86 29 115 35 28 7 52 16
52 21 0 5 8 9 18 9 24 1 46 20 63 55 8 17 24 34 37 40 17 7 22 18 22 45 0 23
9 45 25 64 14 16 25 33 25 37 0 6 44 36 57 39 1 0 14 -5 28 -12z"/>
<path d="M18960 19002 c0 -6 6 -13 13 -16 6 -3 1 -3 -12 0 -18 5 -23 3 -18 -8
4 -13 -7 -14 -69 -10 -75 5 -90 -2 -59 -28 12 -10 19 -10 28 -1 9 9 14 4 23
-21 10 -30 8 -34 -18 -56 -15 -13 -28 -32 -28 -43 0 -10 -7 -19 -15 -19 -29 0
-2 -30 36 -40 23 -6 39 -17 39 -25 0 -8 7 -15 15 -15 8 0 14 -3 14 -7 -3 -21
2 -33 15 -33 8 0 21 -9 28 -19 8 -11 29 -27 49 -36 19 -9 39 -27 45 -38 5 -12
21 -28 35 -34 17 -8 29 -24 32 -43 5 -23 12 -30 30 -30 13 0 28 5 35 12 17 17
28 0 14 -22 -16 -26 -16 -26 18 -40 17 -7 30 -16 30 -21 0 -5 9 -9 20 -9 11 0
20 -4 20 -10 0 -5 17 -12 38 -16 27 -4 42 -14 54 -34 12 -21 13 -27 3 -24 -20
8 -31 -37 -11 -48 9 -5 16 -15 16 -23 0 -17 -66 -56 -84 -49 -11 4 -14 -3 -12
-33 2 -21 8 -51 15 -66 6 -16 11 -37 11 -47 0 -10 5 -22 10 -25 6 -3 10 -18
10 -32 0 -35 55 -143 97 -193 18 -21 33 -42 33 -46 0 -6 106 -139 137 -172 7
-8 18 -23 24 -34 6 -12 24 -35 39 -52 85 -94 188 -214 203 -238 10 -16 24 -28
31 -28 7 0 24 -9 38 -19 13 -11 48 -27 77 -37 34 -11 56 -24 61 -38 5 -12 9
-15 9 -7 1 10 9 12 31 8 43 -9 60 1 60 34 0 20 5 29 16 29 11 0 15 -6 11 -20
-3 -11 -2 -22 3 -25 18 -11 30 227 13 260 -6 11 -14 38 -18 60 -3 22 -13 47
-20 55 -13 15 -18 48 -16 103 1 20 6 27 21 27 11 0 28 9 37 20 37 43 167 17
246 -48 9 -7 26 -13 39 -14 13 0 32 -4 43 -8 51 -21 112 -28 157 -20 71 14
103 43 134 121 25 64 26 72 16 149 -10 81 -34 136 -54 124 -6 -4 -8 1 -4 14 4
11 2 23 -4 27 -5 3 -10 18 -10 32 0 22 -3 25 -30 21 -21 -3 -30 0 -30 9 0 18
-44 34 -105 39 -27 2 -51 8 -53 14 -2 5 -14 10 -28 10 -33 0 -104 30 -104 44
0 17 -34 35 -82 42 -24 4 -48 11 -55 16 -7 5 -16 7 -22 4 -5 -4 -16 1 -24 9
-9 8 -24 15 -34 15 -11 0 -28 8 -39 18 -10 9 -36 26 -56 37 -21 11 -38 23 -38
27 0 5 -9 8 -20 8 -11 0 -23 6 -26 14 -3 9 -36 19 -90 27 -53 8 -93 19 -106
31 -12 10 -29 18 -40 18 -10 0 -26 4 -36 9 -9 5 -29 14 -44 22 -16 7 -28 18
-28 26 0 8 -12 13 -30 13 -16 0 -42 6 -57 13 -35 15 -83 63 -83 82 0 8 -9 15
-20 15 -11 0 -20 5 -20 11 0 23 -55 69 -82 69 -21 0 -28 5 -28 20 0 13 -7 20
-19 20 -10 0 -21 7 -25 15 -3 8 -17 15 -32 15 -20 0 -25 4 -20 16 4 11 -5 20
-34 32 -23 10 -40 23 -39 32 3 31 -2 38 -30 43 -16 3 -36 13 -45 22 -9 9 -32
19 -51 22 -25 4 -35 11 -35 24 0 13 -7 19 -24 19 -13 0 -31 3 -40 6 -9 3 -16
2 -16 -4z"/>
<path d="M22740 17965 c0 -24 12 -45 25 -45 7 0 15 -16 18 -36 4 -26 22 -51
66 -95 39 -38 61 -68 61 -83 0 -16 11 -28 37 -42 20 -10 50 -26 67 -36 36 -19
56 -9 56 28 0 21 -5 24 -35 24 -34 0 -35 1 -35 40 0 22 5 40 10 40 16 0 12 15
-10 40 -26 30 -25 56 1 71 16 8 18 14 9 22 -9 9 -15 7 -26 -8 -13 -17 -16 -18
-24 -5 -5 8 -10 21 -10 28 0 7 -13 12 -30 12 -20 0 -30 -5 -30 -15 0 -8 -9
-15 -20 -15 -24 0 -28 38 -5 46 28 11 15 24 -25 24 -22 0 -40 3 -40 8 0 4 -14
8 -30 9 -20 1 -30 -2 -30 -12z"/>
<path d="M5795 17360 c-10 -11 -24 -20 -31 -20 -25 0 -84 -61 -84 -86 0 -13
-4 -24 -10 -24 -5 0 -10 -6 -10 -14 0 -7 -14 -31 -31 -52 l-30 -38 33 -28 c18
-14 63 -39 100 -53 36 -14 72 -33 78 -41 7 -8 16 -14 21 -14 5 0 40 -30 77
-67 37 -38 77 -75 90 -83 12 -8 22 -20 22 -27 0 -16 22 -17 38 -1 10 10 17 10
32 0 17 -10 21 -10 26 3 4 10 13 13 25 10 11 -4 20 -5 20 -3 5 12 13 229 9
231 -8 4 -40 77 -40 92 0 8 -15 38 -34 67 -18 30 -35 62 -37 73 -3 11 -10 20
-16 20 -7 0 -18 6 -25 13 -6 6 -17 12 -24 12 -6 0 -17 7 -24 15 -9 10 -29 14
-68 12 -37 -1 -57 2 -59 11 -7 18 -27 15 -48 -8z"/>
<path d="M5055 17301 l-20 -8 20 -5 c17 -4 16 -6 -10 -17 -23 -10 -26 -14 -15
-21 12 -8 13 -13 2 -30 -7 -11 -8 -20 -3 -20 5 0 11 5 13 11 2 5 11 7 21 4 18
-8 23 -40 7 -50 -5 -3 -10 -15 -10 -25 0 -10 -6 -21 -12 -23 -8 -3 -5 -6 5 -6
10 -1 31 -8 47 -16 20 -10 31 -12 35 -4 4 6 17 14 29 19 16 7 17 9 4 9 -10 1
-23 11 -29 23 -10 18 -8 24 7 35 24 17 29 66 9 83 -24 20 -18 30 18 31 l32 1
-30 8 c-40 10 -95 10 -120 1z"/>
<path d="M20800 16750 c0 -19 -43 -50 -62 -44 -12 4 -18 0 -18 -10 0 -9 -8
-16 -20 -16 -10 0 -24 -10 -31 -21 -11 -21 -10 -22 21 -15 l33 6 -21 -19 c-27
-23 -28 -41 -2 -71 13 -14 20 -37 20 -62 0 -31 -3 -38 -20 -38 -19 0 -19 -2 7
-42 45 -71 142 -187 205 -247 21 -20 38 -39 38 -42 0 -3 38 -45 85 -95 47 -49
93 -101 102 -116 15 -25 86 -64 106 -60 14 4 49 -25 61 -50 6 -13 21 -24 33
-26 17 -3 24 3 28 25 10 44 37 107 53 120 7 6 33 15 55 18 23 4 60 17 82 28
22 12 43 20 48 19 4 -1 7 3 7 9 0 7 9 9 22 6 14 -4 29 0 40 10 10 9 37 17 61
17 36 1 42 4 45 24 2 14 -2 22 -12 22 -10 0 -13 6 -10 15 4 8 1 15 -5 15 -6 0
-11 6 -11 13 0 8 -9 24 -20 37 -11 13 -20 28 -20 35 0 7 -9 20 -20 30 -11 10
-22 27 -26 39 -10 31 -34 56 -58 57 -12 0 -15 3 -8 6 27 11 11 25 -23 19 -26
-5 -37 -3 -41 7 -3 9 -26 17 -54 21 -46 6 -81 26 -46 26 9 0 16 5 16 10 0 6
-6 10 -14 10 -8 0 -18 -4 -21 -10 -9 -15 -25 -12 -25 4 0 7 -12 26 -26 41 -22
23 -31 27 -62 21 -26 -4 -32 -2 -22 4 12 8 9 10 -12 10 -30 0 -45 17 -30 32 7
7 8 18 3 27 -18 35 -2 81 30 81 10 0 19 5 19 10 0 16 28 12 38 -6 6 -10 20
-14 43 -12 32 3 34 5 37 46 2 26 -2 47 -11 56 -11 12 -77 22 -172 27 -39 2
-138 -11 -149 -20 -18 -14 -60 -21 -85 -14 -17 4 -20 8 -9 15 8 6 -2 7 -29 3
-37 -6 -78 1 -125 20 -11 4 -18 3 -18 -5z"/>
<path d="M6149 16689 c-2 -19 -1 -65 2 -104 3 -38 7 -56 8 -40 l1 30 20 -25
c18 -24 22 -25 119 -22 l101 4 0 -36 c0 -35 -1 -36 -40 -36 -29 0 -40 -4 -40
-15 0 -11 11 -15 36 -15 35 0 64 18 64 39 0 6 5 11 10 11 6 0 10 18 10 40 0
29 -4 40 -15 40 -9 0 -18 7 -21 15 -4 8 -11 15 -17 15 -6 0 -36 22 -66 48 -46
40 -65 50 -105 54 -27 3 -52 11 -56 18 -5 7 -9 -1 -11 -21z"/>
<path d="M5605 16395 c-16 -13 -36 -24 -43 -25 -28 0 -72 -32 -78 -55 -3 -13
-12 -29 -20 -36 -8 -6 -12 -15 -9 -19 3 -4 6 -30 7 -56 1 -43 6 -53 42 -86 32
-30 49 -38 78 -38 27 0 38 -4 38 -15 0 -19 36 -20 44 0 4 11 11 13 28 6 29
-11 68 3 68 24 0 8 6 15 14 15 11 0 13 14 9 68 -8 125 -20 165 -58 195 -27 21
-75 47 -88 47 -1 0 -15 -11 -32 -25z"/>
<path d="M6665 14790 c3 -5 25 -10 48 -10 l42 0 -38 -32 c-31 -27 -37 -40 -37
-70 0 -31 -4 -38 -19 -38 -20 0 -31 -17 -24 -37 2 -7 11 -9 19 -6 8 3 21 0 28
-6 10 -8 16 -9 21 -1 9 15 25 12 19 -4 -4 -11 5 -17 32 -22 25 -4 39 -3 42 4
2 6 10 8 18 5 26 -10 64 6 64 27 0 11 6 20 13 20 23 0 67 25 67 37 0 7 -18 22
-40 33 -27 14 -40 16 -40 8 0 -9 -3 -9 -12 1 -10 11 -10 14 0 18 14 6 16 23 2
23 -15 0 -105 43 -108 52 -2 4 -26 8 -53 8 -31 0 -48 -4 -44 -10z"/>
<path d="M17917 13658 c-9 -4 -87 -80 -174 -167 -149 -150 -182 -193 -234
-301 -12 -25 -25 -47 -28 -50 -14 -10 -51 -91 -51 -110 0 -10 -7 -23 -15 -28
-19 -10 -11 -38 13 -46 9 -3 41 -19 71 -36 30 -16 58 -30 63 -30 24 0 89 -55
120 -102 47 -71 62 -139 62 -288 0 -101 3 -127 16 -137 13 -11 12 -12 -6 -13
-19 0 -22 -8 -30 -97 -4 -54 -9 -134 -10 -178 -1 -44 -2 -82 -3 -85 -9 -20
-23 -122 -23 -160 0 -14 -5 -32 -12 -40 -18 -21 -28 -90 -13 -90 6 0 1 -9 -11
-20 -25 -23 -28 -36 -9 -42 22 -9 37 3 37 28 0 14 4 22 10 19 6 -3 10 -1 10 5
0 6 5 8 10 5 10 -6 14 6 10 38 -2 22 26 84 40 89 12 4 15 97 5 161 -5 33 -4
47 4 47 7 0 11 -6 10 -12 -3 -24 1 -38 10 -38 18 0 22 40 10 75 -10 27 -10 38
-1 47 7 7 12 20 12 30 0 10 7 21 15 24 10 4 13 13 10 24 -3 11 1 20 11 24 15
6 15 8 0 31 -20 31 -20 32 4 38 15 4 20 14 20 41 0 20 7 47 16 60 11 18 12 26
3 31 -8 6 -8 10 2 15 10 7 10 12 1 23 -10 12 -9 16 3 21 8 3 15 15 15 27 0 12
8 23 20 26 22 6 27 29 8 36 -9 3 -7 13 10 35 12 17 22 41 22 52 0 12 13 40 28
63 16 23 34 67 40 97 7 30 21 69 32 85 11 17 20 38 20 48 0 9 4 25 9 35 14 27
39 112 52 177 7 33 19 70 27 83 10 16 12 33 7 60 -4 20 -9 62 -10 92 -1 30
-10 77 -19 104 -9 27 -15 55 -12 62 3 7 -2 18 -10 25 -8 7 -13 18 -10 25 3 8
-5 25 -17 38 -19 21 -33 25 -99 29 -42 2 -83 0 -91 -5z"/>
<path d="M17396 12831 c-3 -5 -3 -46 0 -92 3 -46 5 -111 5 -144 0 -33 5 -78
11 -100 6 -22 13 -47 14 -55 3 -15 25 -61 34 -70 16 -16 30 -54 30 -84 0 -19
5 -38 10 -41 6 -3 8 -23 6 -43 -3 -20 0 -42 6 -49 16 -20 18 -61 3 -67 -8 -3
-16 0 -19 7 -2 7 -5 0 -5 -15 -1 -15 -6 -30 -11 -33 -8 -5 -7 -11 0 -20 9 -11
7 -21 -9 -42 -21 -29 -33 -68 -35 -115 0 -16 -4 -28 -8 -28 -5 0 -8 -5 -8 -11
0 -15 56 -4 87 16 13 9 23 24 23 35 0 11 8 24 19 29 13 7 17 18 14 36 -3 15
-1 25 6 25 8 0 9 5 1 19 -12 24 -13 78 -1 85 8 5 2 57 -14 124 -4 17 -1 22 15
22 12 0 20 7 20 16 0 12 -6 15 -25 10 -18 -5 -25 -2 -25 9 0 10 10 15 30 15
31 0 35 9 30 68 -1 13 3 28 8 35 6 7 12 66 13 132 4 111 2 122 -18 152 -13 17
-23 41 -23 53 0 14 -8 24 -20 27 -14 4 -20 12 -18 27 2 16 -5 23 -28 31 -17 5
-39 17 -49 25 -21 17 -61 24 -69 11z"/>
<path d="M6863 12096 c-16 -95 11 -189 75 -258 34 -37 52 -35 80 7 34 53 26
121 -20 167 -10 10 -18 24 -18 31 0 19 -89 115 -90 97 -1 -11 -3 -10 -9 3 -4
13 -10 -2 -18 -47z"/>
<path d="M14166 12108 c4 -24 11 -44 16 -46 4 -2 8 -10 8 -18 0 -8 27 -47 59
-88 141 -173 231 -436 192 -562 -5 -16 -15 -49 -22 -74 -7 -25 -20 -56 -28
-70 -31 -50 -105 -136 -153 -178 l-50 -43 56 -54 c31 -30 56 -62 56 -70 0 -9
7 -18 15 -21 8 -4 15 -12 15 -19 0 -6 9 -20 20 -30 11 -10 20 -29 20 -42 0
-13 4 -22 9 -18 6 3 15 -4 21 -15 6 -11 17 -20 24 -20 15 0 126 -103 126 -117
0 -6 17 -18 38 -29 20 -10 63 -45 95 -76 33 -32 64 -58 71 -58 7 0 21 -9 31
-20 10 -11 24 -20 32 -20 7 0 13 -4 13 -10 0 -5 8 -10 19 -10 10 0 24 -6 30
-14 7 -8 25 -17 40 -21 32 -7 53 -27 100 -98 23 -34 38 -47 49 -42 9 3 27 -5
44 -22 24 -23 31 -25 38 -13 7 12 12 12 28 -3 10 -9 23 -17 28 -17 5 0 15 -10
23 -22 13 -20 15 -21 20 -5 5 15 14 10 54 -29 32 -31 53 -44 64 -40 12 5 14 9
5 18 -14 14 -16 38 -2 38 5 0 14 -10 21 -21 9 -17 8 -23 -2 -30 -11 -6 -10
-12 4 -27 9 -10 17 -28 17 -40 0 -12 5 -22 10 -22 6 0 8 10 4 24 -9 37 15 43
42 10 30 -37 33 -9 3 30 -11 14 -17 31 -14 36 7 11 -31 47 -49 48 -12 0 -26
24 -20 34 9 15 22 8 29 -14 l8 -23 4 23 c3 14 -2 29 -10 35 -11 9 -13 18 -6
35 11 29 21 28 41 -8 9 -17 21 -30 26 -30 16 0 9 35 -10 48 -21 15 -25 37 -4
29 10 -4 13 9 11 64 -1 38 2 66 6 63 5 -3 9 0 9 5 0 6 -4 11 -10 11 -5 0 -10
5 -10 10 0 6 9 10 21 10 18 0 19 2 5 15 -8 8 -28 18 -45 21 -20 4 -28 11 -24
21 3 9 -2 16 -14 19 -24 7 -50 44 -30 44 7 0 22 -7 34 -15 20 -14 21 -14 19
23 -1 20 -7 47 -14 58 -13 24 -52 39 -52 21 -1 -7 -9 4 -19 23 -10 19 -16 41
-13 48 3 8 -9 26 -25 40 -36 32 -49 62 -31 73 9 6 9 11 -1 23 -15 18 -41 21
-41 6 0 -5 -4 -10 -10 -10 -5 0 -10 7 -10 15 0 8 5 15 11 15 8 0 9 4 0 13 -6
8 -8 17 -4 21 4 4 1 11 -7 16 -25 16 -31 11 -24 -16 6 -24 5 -25 -13 -15 -37
19 -34 71 4 71 16 0 6 29 -20 54 -19 19 -19 20 -1 34 18 14 18 14 -5 9 -17 -4
-30 0 -43 15 -10 12 -18 25 -18 30 0 13 27 9 40 -7 18 -22 30 -18 30 10 0 16
-6 25 -15 25 -8 0 -15 4 -15 9 0 6 -15 11 -32 13 -25 2 -32 7 -30 20 3 18 -83
108 -103 108 -7 0 -9 15 -7 35 3 27 1 35 -12 35 -9 0 -16 -5 -16 -12 0 -8 -6
-6 -17 5 -13 13 -14 20 -5 29 7 7 12 18 12 25 0 18 -34 50 -48 45 -7 -2 -12 4
-12 13 0 9 -13 21 -29 26 -35 12 -61 48 -61 85 0 23 -23 41 -45 35 -11 -3 -35
27 -35 43 0 10 -9 16 -21 16 -22 0 -49 22 -49 39 0 6 -4 11 -10 11 -5 0 -6 8
-3 17 6 15 5 16 -9 3 -11 -10 -12 -17 -5 -22 16 -10 3 -20 -17 -12 -14 5 -21
30 -17 57 0 4 -2 7 -6 6 -18 -3 -52 14 -57 27 -3 8 -10 14 -16 14 -16 0 -54
42 -57 64 -5 28 -12 33 -24 16 -9 -12 -10 -12 -5 3 3 9 1 17 -4 17 -5 0 -7 14
-3 30 5 26 3 30 -16 30 -11 0 -21 -5 -21 -11 0 -22 -50 38 -70 85 -12 25 -27
46 -34 46 -7 0 -18 11 -25 24 -11 20 -49 46 -67 46 -2 0 -1 -19 2 -42z"/>
<path d="M18806 6623 c10 -43 37 -96 54 -104 54 -27 237 -109 243 -109 3 0 39
-16 80 -35 79 -37 118 -43 136 -21 9 11 3 21 -31 51 -60 51 -113 81 -199 111
-41 14 -87 34 -104 43 -16 10 -57 35 -89 55 -74 45 -99 47 -90 9z"/>
<path d="M19202 6242 c-24 -17 23 -44 90 -52 119 -14 347 -84 463 -142 44 -22
102 -49 128 -59 27 -11 56 -26 64 -34 17 -17 33 -20 33 -5 0 6 -4 10 -8 10 -4
0 -19 9 -32 19 -103 80 -207 141 -305 180 -11 4 -40 17 -65 29 -25 11 -73 28
-107 37 -75 19 -243 30 -261 17z"/>
<path d="M20060 5905 c6 -8 49 -28 93 -45 45 -17 123 -51 172 -75 102 -50 251
-115 265 -115 39 0 -71 81 -151 111 -26 10 -75 32 -110 49 -79 39 -226 90
-258 90 -19 0 -21 -2 -11 -15z"/>
<path d="M18903 5855 c-8 -22 6 -147 22 -203 8 -26 26 -60 41 -77 l25 -30 -6
98 c-5 88 -24 191 -40 217 -9 15 -35 12 -42 -5z"/>
<path d="M19007 5479 c-20 -12 -24 -101 -7 -159 6 -19 14 -62 19 -95 5 -33 23
-90 40 -127 17 -36 31 -75 31 -85 0 -10 9 -47 20 -81 11 -35 20 -80 20 -101 0
-20 18 -88 41 -151 23 -63 54 -155 70 -203 16 -48 42 -111 58 -140 21 -36 36
-88 51 -167 36 -189 64 -270 121 -341 14 -17 23 -47 26 -90 4 -43 17 -87 40
-134 18 -38 33 -82 33 -98 0 -16 19 -74 43 -130 36 -86 48 -105 85 -131 40
-28 42 -33 42 -78 0 -59 15 -98 64 -161 20 -26 36 -57 36 -70 1 -40 37 -157
55 -177 10 -11 25 -20 33 -20 17 0 10 54 -13 105 -13 29 -62 154 -101 260 -21
57 -53 115 -63 115 -13 0 -40 105 -46 178 -6 67 -27 126 -65 177 -4 6 -10 47
-14 93 -7 89 -37 172 -63 172 -8 0 -20 6 -26 13 -37 39 -42 53 -47 156 -6 92
-11 115 -38 172 -18 36 -32 77 -32 90 0 14 -13 41 -30 61 -39 47 -47 71 -55
156 -7 62 -10 71 -31 76 -30 8 -59 50 -71 106 -8 38 -9 329 -1 410 2 19 -2 25
-17 25 -11 0 -24 -10 -29 -21 -5 -12 -19 -27 -30 -34 -16 -10 -22 -10 -32 4
-20 28 -37 139 -27 177 13 50 1 180 -19 212 -24 35 -49 48 -71 36z"/>
<path d="M20387 5343 c-11 -10 -8 -63 3 -63 6 0 10 -15 10 -34 0 -19 -4 -38
-10 -41 -5 -3 -10 -23 -10 -43 0 -21 -7 -48 -16 -60 -8 -12 -12 -22 -9 -22 4
0 -4 -19 -18 -42 -18 -31 -23 -52 -20 -76 3 -20 -1 -48 -12 -71 -15 -34 -16
-58 -5 -118 0 -1 16 -18 35 -37 42 -42 53 -79 31 -101 -9 -9 -19 -28 -22 -43
-4 -15 -19 -41 -35 -59 -27 -31 -31 -73 -7 -73 6 0 8 -14 4 -33 -4 -21 -1 -47
8 -69 9 -20 13 -38 10 -40 -2 -3 15 -8 38 -11 24 -3 46 -3 50 1 4 4 4 42 0 84
-6 62 -13 83 -32 104 l-25 27 35 -5 c41 -6 69 21 70 66 0 16 5 46 11 67 12 39
12 40 -36 105 -6 9 -3 20 13 37 17 18 21 31 17 50 -5 18 0 34 15 55 19 26 21
34 11 64 -7 22 -8 44 -2 66 6 19 6 45 1 63 -7 23 -5 37 5 53 19 26 19 74 0
106 -8 14 -21 39 -29 56 -18 38 -59 57 -79 37z"/>
<path d="M22660 4766 c0 -16 12 -31 38 -48 40 -27 253 -103 317 -114 21 -4 57
-15 80 -25 22 -9 55 -20 73 -24 27 -6 32 -4 32 13 0 23 -127 89 -225 117 -76
22 -214 74 -240 92 -11 7 -32 13 -47 13 -23 0 -28 -4 -28 -24z"/>
<path d="M17480 2791 c0 -51 -3 -61 -24 -74 -19 -13 -24 -25 -24 -63 -1 -38 4
-51 27 -74 17 -17 43 -31 67 -35 21 -3 70 -15 107 -26 63 -19 70 -19 93 -5 35
24 31 61 -16 131 -23 33 -46 65 -53 70 -7 6 -30 32 -51 58 -39 48 -81 77 -111
77 -12 0 -15 -12 -15 -59z"/>
<path d="M23084 1724 c-4 -14 0 -49 9 -78 13 -46 13 -62 1 -127 -11 -54 -12
-87 -5 -124 16 -82 33 -257 52 -525 35 -506 38 -605 18 -651 -8 -21 -8 -41 0
-79 6 -28 11 -71 11 -95 0 -33 4 -45 15 -45 13 0 15 99 15 835 l0 834 -42 40
c-50 47 -65 50 -74 15z"/>
</g>
</svg>
