<?xml version="1.0" encoding="UTF-8" standalone="no"?>
<svg
   xmlns:osb="http://www.openswatchbook.org/uri/2009/osb"
   xmlns:dc="http://purl.org/dc/elements/1.1/"
   xmlns:cc="http://creativecommons.org/ns#"
   xmlns:rdf="http://www.w3.org/1999/02/22-rdf-syntax-ns#"
   xmlns:svg="http://www.w3.org/2000/svg"
   xmlns="http://www.w3.org/2000/svg"
   xmlns:xlink="http://www.w3.org/1999/xlink"
   xmlns:sodipodi="http://sodipodi.sourceforge.net/DTD/sodipodi-0.dtd"
   xmlns:inkscape="http://www.inkscape.org/namespaces/inkscape"
   version="1.1"
   id="svg28"
   xml:space="preserve"
   width="569"
   height="374"
   viewBox="0 0 569 374.00002"
   sodipodi:docname="logo_malb_v2.svg"
   inkscape:version="1.0 (4035a4f, 2020-05-01)"><metadata
     id="metadata34"><rdf:RDF><cc:Work
         rdf:about=""><dc:format>image/svg+xml</dc:format><dc:type
           rdf:resource="http://purl.org/dc/dcmitype/StillImage" /><dc:title /></cc:Work></rdf:RDF></metadata><defs
     id="defs32"><linearGradient
       osb:paint="solid"
       id="linearGradient3574"><stop
         id="stop3572"
         offset="0"
         style="stop-color:#161650;stop-opacity:1;" /></linearGradient><linearGradient
       osb:paint="solid"
       id="linearGradient3568"><stop
         id="stop3566"
         offset="0"
         style="stop-color:#000000;stop-opacity:1;" /></linearGradient><linearGradient
       osb:paint="solid"
       id="linearGradient3562"><stop
         id="stop3560"
         offset="0"
         style="stop-color:#000000;stop-opacity:1;" /></linearGradient><linearGradient
       osb:paint="solid"
       id="linearGradient3550"><stop
         id="stop3548"
         offset="0"
         style="stop-color:#ffffff;stop-opacity:1;" /></linearGradient><linearGradient
       osb:paint="solid"
       id="linearGradient3441"><stop
         id="stop3439"
         offset="0"
         style="stop-color:#000000;stop-opacity:1;" /></linearGradient><linearGradient
       osb:paint="solid"
       id="linearGradient3431"><stop
         id="stop3429"
         offset="0"
         style="stop-color:#000000;stop-opacity:1;" /></linearGradient><linearGradient
       osb:paint="solid"
       id="dim_sun"><stop
         id="stop1505"
         offset="0"
         style="stop-color:#ffd42a;stop-opacity:1;" /></linearGradient><linearGradient
       osb:paint="solid"
       id="linearGradient1501"><stop
         id="stop1499"
         offset="0"
         style="stop-color:#000000;stop-opacity:1;" /></linearGradient><linearGradient
       gradientUnits="userSpaceOnUse"
       y2="247.49709"
       x2="363.14124"
       y1="247.49709"
       x1="199.73444"
       id="linearGradient3576"
       xlink:href="#linearGradient3574"
       inkscape:collect="always"
       gradientTransform="matrix(1.2415443,0.00127234,-0.00127234,1.2415443,7.1733984,-66.152121)" /><linearGradient
       gradientTransform="matrix(1.2415443,0.00127234,-0.00127234,1.2415443,98.975483,-65.300361)"
       inkscape:collect="always"
       xlink:href="#linearGradient3574"
       id="linearGradient3576-7"
       x1="199.73444"
       y1="247.49709"
       x2="363.14124"
       y2="247.49709"
       gradientUnits="userSpaceOnUse" /></defs><sodipodi:namedview
     inkscape:document-rotation="0"
     pagecolor="#ffffff"
     bordercolor="#666666"
     borderopacity="1"
     objecttolerance="10"
     gridtolerance="10"
     guidetolerance="10"
     inkscape:pageopacity="0"
     inkscape:pageshadow="2"
     inkscape:window-width="1440"
     inkscape:window-height="847"
     id="namedview30"
     showgrid="false"
     inkscape:snap-global="false"
     inkscape:zoom="1.1955019"
     inkscape:cx="303.77514"
     inkscape:cy="228.43099"
     inkscape:window-x="0"
     inkscape:window-y="25"
     inkscape:window-maximized="0"
     inkscape:current-layer="g222" /><g
     id="g36"
     inkscape:groupmode="layer"
     inkscape:label="name_font4"
     transform="matrix(1.3333333,0,0,1.3333333,0,3.3396326e-5)"><g
       id="g222"
       transform="rotate(180,281.8045,203.496)"><path
         sodipodi:nodetypes="ccccccccc"
         d="m 162.82125,276.92702 53.9704,0.41305 0.47634,16.1597 -55.27125,-0.34005 z m -0.66204,16.01373 5.86578,0.31859 v 0 z"
         style="fill:#161650;fill-opacity:1;fill-rule:nonzero;stroke:none;stroke-width:0.719212"
         id="path42-8-4-0-4-9-2" /><path
         id="path42-8-4-0-4-9-7-5"
         style="fill:#161650;fill-opacity:1;fill-rule:nonzero;stroke:none;stroke-width:1.37796"
         d="m 233.37134,390.05213 1.87002,-200.6834 16.16519,0.14934 -1.87001,200.6834 z m 16.1652,0.14934 0.18663,-20.02883 v 0 z"
         sodipodi:nodetypes="cccccccccc" /><path
         sodipodi:nodetypes="cccccccccc"
         d="m 216.06203,397.41293 1.87002,-200.6834 16.16519,0.14935 -1.87001,200.68339 z m 16.1652,0.14934 0.18663,-20.02882 v 0 z"
         style="fill:#161650;fill-opacity:1;fill-rule:nonzero;stroke:none;stroke-width:1.37796"
         id="path42-8-4-0-4-9-7" /><g
         inkscape:transform-center-y="67.159903"
         inkscape:transform-center-x="-126.57059"
         id="g872"
         transform="matrix(0.91864891,0,0,0.91864891,1.5641604,26.103279)"
         style="fill:#2a2aff"><path
           d="m 295.9756,281.7313 -19.98633,-0.18544 0.91047,-98.13152 c -19.22355,3.54921 -36.15923,12.52043 -50.82188,26.90812 -19.76544,19.27079 -29.77675,42.76648 -30.03389,70.48166 l -19.98633,-0.18545 c 0.30784,-33.179 12.23144,-61.31844 35.7654,-84.4197 23.66624,-23.23113 52.08618,-34.69347 85.26518,-34.38563 z m 99.93299,0.9272 -19.98769,-0.18546 0.91049,-98.13152 c -19.22357,3.54921 -36.1633,12.5204 -50.82053,26.90814 -19.76679,19.27078 -29.7781,42.76648 -30.03526,70.48164 l -19.98633,-0.18544 c 0.30784,-33.179 12.22603,-61.31849 35.75998,-84.41975 23.67346,-23.23062 52.09295,-34.69342 85.27197,-34.38557 z m 0,0 0.18544,-19.98633 z"
           style="fill:#2a2aff;fill-opacity:1;fill-rule:nonzero;stroke:none;stroke-width:1.35149"
           id="path40-0" /></g><path
         d="m 347.60703,186.77054 18.36042,0.17036 -0.8364,90.14842 c 17.65969,-3.26049 33.21765,-11.50188 46.68747,-24.71912 18.1575,-17.70309 27.35438,-39.28738 27.5906,-64.7479 l 18.36042,0.17036 c -0.28279,30.47985 -11.2364,56.33012 -32.85584,77.55206 -21.74097,21.34126 -47.84891,31.87112 -78.32876,31.58833 z m -91.80332,-0.85177 18.36166,0.17038 -0.83642,90.14841 c 17.65972,-3.26048 33.22138,-11.50185 46.68623,-24.71913 18.15874,-17.7031 27.35563,-39.28738 27.59185,-64.74789 l 18.36042,0.17036 c -0.2828,30.47985 -11.23141,56.33016 -32.85086,77.55211 -21.7476,21.34078 -47.85513,31.87107 -78.33499,31.58827 z m 0,0 -0.17036,18.36042 z"
         style="fill:url(#linearGradient3576);fill-opacity:1;fill-rule:nonzero;stroke:none;stroke-width:1.24154"
         id="path40" /><path
         id="path40-7"
         style="fill:url(#linearGradient3576-7);fill-opacity:1;fill-rule:nonzero;stroke:none;stroke-width:1.24154"
         d="m 439.40912,187.6223 18.36042,0.17035 -0.8364,90.14842 c 17.65969,-3.26048 33.21764,-11.50188 46.68747,-24.71912 18.15749,-17.70309 27.35437,-39.28738 27.59059,-64.7479 l 18.36043,0.17036 c -0.2828,30.47986 -11.23641,56.33012 -32.85584,77.55206 -21.74098,21.34126 -47.84891,31.87113 -78.32877,31.58833 z m -91.80333,-0.85177 18.36166,0.17037 -0.83641,90.14842 c 17.65971,-3.26049 33.22138,-11.50186 46.68623,-24.71914 18.15873,-17.70309 27.35562,-39.28738 27.59185,-64.74788 l 18.36042,0.17035 c -0.2828,30.47986 -11.23142,56.33016 -32.85087,77.55212 -21.7476,21.34077 -47.85513,31.87106 -78.33499,31.58826 z m 0,0 -0.17036,18.36042 z" /><path
         sodipodi:nodetypes="ccccc"
         d="m 549.48314,173.83364 0.0885,16.48827 -18.36043,-0.18964 0.0431,-16.30572 z"
         style="fill:#161650;fill-opacity:1;fill-rule:nonzero;stroke:none;stroke-width:0.422799"
         id="path42-8-4-0-4-9-1-2-9" /><path
         id="path42-8-4-0-4-9-1-2-9-3"
         style="fill:#161650;fill-opacity:1;fill-rule:nonzero;stroke:none;stroke-width:0.422799"
         d="m 457.83433,174.21275 0.0885,16.48827 -18.36043,-0.18964 0.0431,-16.30573 z"
         sodipodi:nodetypes="ccccc" /><path
         sodipodi:nodetypes="ccccc"
         d="m 366.1042,173.59101 0.0885,16.48827 -18.36043,-0.18964 0.0431,-16.30573 z"
         style="fill:#161650;fill-opacity:1;fill-rule:nonzero;stroke:none;stroke-width:0.422799"
         id="path42-8-4-0-4-9-1-2-9-3-7" /><path
         id="path42-8-4-0-4-9-1-2-9-3-7-7"
         style="fill:#161650;fill-opacity:1;fill-rule:nonzero;stroke:none;stroke-width:0.425385"
         d="m 274.38679,174.18762 0.0897,16.48827 -18.58575,-0.18964 0.0437,-16.30573 z"
         sodipodi:nodetypes="ccccc" /><path
         sodipodi:nodetypes="ccccc"
         d="m 181.8844,276.75048 -0.48065,16.22504 -18.54188,0.12791 0.74567,-16.39348 z"
         style="fill:#2a2aff;fill-opacity:1;fill-rule:nonzero;stroke:none;stroke-width:0.425385"
         id="path42-8-4-0-4-9-1-2-9-3-7-7-0" /></g></g></svg>
