<?xml version="1.0" encoding="UTF-8" standalone="no"?>
<svg
   xmlns:dc="http://purl.org/dc/elements/1.1/"
   xmlns:cc="http://creativecommons.org/ns#"
   xmlns:rdf="http://www.w3.org/1999/02/22-rdf-syntax-ns#"
   xmlns:svg="http://www.w3.org/2000/svg"
   xmlns="http://www.w3.org/2000/svg"
   xmlns:sodipodi="http://sodipodi.sourceforge.net/DTD/sodipodi-0.dtd"
   xmlns:inkscape="http://www.inkscape.org/namespaces/inkscape"
   inkscape:version="1.0 (4035a4f, 2020-05-01)"
   sodipodi:docname="newf_4.svg"
   viewBox="0 0 793.70081 1122.5197"
   height="1122.5197"
   width="793.70081"
   xml:space="preserve"
   id="svg28"
   version="1.1"><metadata
     id="metadata34"><rdf:RDF><cc:Work
         rdf:about=""><dc:format>image/svg+xml</dc:format><dc:type
           rdf:resource="http://purl.org/dc/dcmitype/StillImage" /><dc:title></dc:title></cc:Work></rdf:RDF></metadata><defs
     id="defs32" /><sodipodi:namedview
     inkscape:current-layer="g222"
     inkscape:window-maximized="0"
     inkscape:window-y="28"
     inkscape:window-x="0"
     inkscape:cy="416.78042"
     inkscape:cx="450.57565"
     inkscape:zoom="0.90180157"
     inkscape:snap-global="false"
     showgrid="false"
     id="namedview30"
     inkscape:window-height="872"
     inkscape:window-width="1440"
     inkscape:pageshadow="2"
     inkscape:pageopacity="0"
     guidetolerance="10"
     gridtolerance="10"
     objecttolerance="10"
     borderopacity="1"
     bordercolor="#666666"
     pagecolor="#ffffff" /><g
     transform="matrix(1.3333333,0,0,1.3333333,0,3.3396326e-5)"
     inkscape:label="name_font4"
     inkscape:groupmode="layer"
     id="g36"><g
       transform="rotate(180,281.8045,203.496)"
       id="g222"><path
         id="path40"
         style="fill:#000000;fill-opacity:1;fill-rule:nonzero;stroke:none"
         d="m 215.253,233.496 h -14.789 v -72.613 c -14.199,2.758 -26.668,9.512 -37.418,20.258 -14.492,14.394 -21.738,31.847 -21.738,52.355 h -14.789 c 0,-24.551 8.629,-45.453 25.883,-62.707 17.351,-17.351 38.3,-26.027 62.851,-26.027 z m 73.946,0 h -14.79 v -72.613 c -14.199,2.758 -26.671,9.512 -37.417,20.258 -14.493,14.394 -21.739,31.847 -21.739,52.355 h -14.789 c 0,-24.551 8.625,-45.453 25.879,-62.707 17.356,-17.351 38.305,-26.027 62.856,-26.027 z m 0,0 v -14.789 z" /><path
         d="m 274.41,203.496 h 14.789 v 72.613 c 14.199,-2.758 26.668,-9.512 37.418,-20.258 14.492,-14.394 21.738,-31.847 21.738,-52.355 h 14.789 c 0,24.551 -8.629,45.453 -25.883,62.707 -17.351,17.351 -38.3,26.027 -62.851,26.027 z m -73.946,0 h 14.79 v 72.613 c 14.199,-2.758 26.671,-9.512 37.417,-20.258 14.493,-14.394 21.739,-31.847 21.739,-52.355 h 14.789 c 0,24.551 -8.625,45.453 -25.879,62.707 -17.356,17.351 -38.305,26.027 -62.856,26.027 z m 0,0 v 14.789 z"
         style="fill:#000000;fill-opacity:1;fill-rule:nonzero;stroke:none;stroke-width:0.999998"
         id="path40-0" /><path
         sodipodi:nodetypes="cccccccccc"
         d="M 192.99264,233.496 H 141.308 v -13.02077 h 51.68464 z m 0,-13.02077 h -5.15829 v 0 z"
         style="fill:#3737c8;fill-opacity:1;fill-rule:nonzero;stroke:none;stroke-width:0.627578"
         id="path42-8-4-0-4-9" /><path
         id="path42-8-4-0-4"
         style="fill:#000000;fill-opacity:1;fill-rule:nonzero;stroke:none;stroke-width:0.674416"
         d="M 362.77455,138.44065 363.144,203.496 h -14.64045 v -64.10531 z m -14.271,0.95004 v 16.31864 0 z"
         sodipodi:nodetypes="ccccccccc" /><path
         id="path42-8-4-0-4-9-0"
         style="fill:#3737c8;fill-opacity:1;fill-rule:nonzero;stroke:none;stroke-width:0.627578"
         d="m 215.253,159.15998 -14.789,1.72302 -8.65835,2.06238 -14.80493,6.5664 -8.12026,6.17474 -1.7707,-16.95566 13.25217,-7.07459 12.66015,-4.16038 22.23092,-2.73389 z m 0,-14.39798 h -5.15829 v 0 z"
         sodipodi:nodetypes="cccccccccccccc" /><path
         id="path42-8-4-0-4-9-4"
         style="fill:#3737c8;fill-opacity:1;fill-rule:nonzero;stroke:none;stroke-width:1.045"
         d="M 214.58498,159.15998 V 292.22515 H 200.56219 V 159.15998 Z m -14.02279,0 v 13.28032 0 z"
         sodipodi:nodetypes="cccccccccc" /></g></g></svg>
