<?xml version="1.0" encoding="UTF-8" standalone="no"?>
<svg
   xmlns:dc="http://purl.org/dc/elements/1.1/"
   xmlns:cc="http://creativecommons.org/ns#"
   xmlns:rdf="http://www.w3.org/1999/02/22-rdf-syntax-ns#"
   xmlns:svg="http://www.w3.org/2000/svg"
   xmlns="http://www.w3.org/2000/svg"
   xmlns:sodipodi="http://sodipodi.sourceforge.net/DTD/sodipodi-0.dtd"
   xmlns:inkscape="http://www.inkscape.org/namespaces/inkscape"
   inkscape:version="1.0 (4035a4f, 2020-05-01)"
   sodipodi:docname="newf_3.svg"
   viewBox="0 0 793.70081 1122.5197"
   height="1122.5197"
   width="793.70081"
   xml:space="preserve"
   id="svg28"
   version="1.1"><metadata
     id="metadata34"><rdf:RDF><cc:Work
         rdf:about=""><dc:format>image/svg+xml</dc:format><dc:type
           rdf:resource="http://purl.org/dc/dcmitype/StillImage" /><dc:title></dc:title></cc:Work></rdf:RDF></metadata><defs
     id="defs32" /><sodipodi:namedview
     inkscape:current-layer="g222"
     inkscape:window-maximized="0"
     inkscape:window-y="28"
     inkscape:window-x="0"
     inkscape:cy="284.48871"
     inkscape:cx="385.2854"
     inkscape:zoom="1.1475558"
     inkscape:snap-global="true"
     showgrid="false"
     id="namedview30"
     inkscape:window-height="872"
     inkscape:window-width="1440"
     inkscape:pageshadow="2"
     inkscape:pageopacity="0"
     guidetolerance="10"
     gridtolerance="10"
     objecttolerance="10"
     borderopacity="1"
     bordercolor="#666666"
     pagecolor="#ffffff" /><g
     transform="matrix(1.3333333,0,0,1.3333333,0,3.3396326e-5)"
     inkscape:label="name_font4"
     inkscape:groupmode="layer"
     id="g36"><g
       transform="rotate(180,281.8045,203.496)"
       id="g222"><path
         sodipodi:nodetypes="cccccccccc"
         d="m 291.95984,166.9586 70.86327,-0.061 0.26132,5.99937 0.24324,8.73976 -71.50687,0.0498 z m -0.13904,14.72798 h 13.5641 v 0 z"
         style="fill:#3737c8;fill-opacity:1;fill-rule:nonzero;stroke:none;stroke-width:0.731435"
         id="path42-8-4-0-5-7" /><path
         id="path42-8-4-0-5"
         style="fill:#3737c8;fill-opacity:1;fill-rule:nonzero;stroke:none;stroke-width:0.741491"
         d="m 200.51486,223.05597 73.11835,-0.061 -0.4336,6.23342 0.48402,8.73975 -73.16877,-0.18425 z m 0,14.72798 h 6.3662 v 0 z"
         sodipodi:nodetypes="cccccccccc" /><path
         id="path40"
         style="fill:#000000;fill-opacity:1;fill-rule:nonzero;stroke:none"
         d="M 289.199,203.496 H 274.41 v -72.613 c -14.199,2.758 -26.668,9.512 -37.418,20.258 -14.492,14.394 -21.738,31.847 -21.738,52.355 h -14.789 c 0,-24.551 8.629,-45.453 25.883,-62.707 17.351,-17.351 38.3,-26.027 62.851,-26.027 z m 73.946,0 h -14.79 v -72.613 c -14.199,2.758 -26.671,9.512 -37.417,20.258 -14.493,14.394 -21.739,31.847 -21.739,52.355 H 274.41 c 0,-24.551 8.625,-45.453 25.879,-62.707 17.356,-17.351 38.305,-26.027 62.856,-26.027 z m 0,0 v -14.789 z" /><path
         d="m 274.41,203.496 h 14.789 v 72.613 c 14.199,-2.758 26.668,-9.512 37.418,-20.258 14.492,-14.394 21.738,-31.847 21.738,-52.355 h 14.789 c 0,24.551 -8.629,45.453 -25.883,62.707 -17.351,17.351 -38.3,26.027 -62.851,26.027 z m -73.946,0 h 14.79 v 72.613 c 14.199,-2.758 26.671,-9.512 37.417,-20.258 14.493,-14.394 21.739,-31.847 21.739,-52.355 h 14.789 c 0,24.551 -8.625,45.453 -25.879,62.707 -17.356,17.351 -38.305,26.027 -62.856,26.027 z m 0,0 v 14.789 z"
         style="fill:#000000;fill-opacity:1;fill-rule:nonzero;stroke:none;stroke-width:0.999998"
         id="path40-0" /><path
         sodipodi:nodetypes="cccccccccc"
         d="m 215.19298,195.66472 0.0265,42.16733 -5.96487,-0.0354 -8.73975,-0.0127 -0.0498,-42.11923 z m -14.72798,0 v 4.06806 0 z"
         style="fill:#3737c8;fill-opacity:1;fill-rule:nonzero;stroke:none;stroke-width:0.592734"
         id="path42-8-4-0" /><path
         id="path42-8-4-0-4"
         style="fill:#000000;fill-opacity:1;fill-rule:nonzero;stroke:none;stroke-width:0.78681"
         d="m 362.77555,129.79249 0.36945,73.54566 h -14.64045 v -72.25258 z m -14.271,1.29308 v 7.21102 0 z"
         sodipodi:nodetypes="ccccccccc" /><path
         sodipodi:nodetypes="cccccccccc"
         d="M 362.89578,208.68549 H 200.465 v -13.02077 h 162.43078 z m 0,-13.02077 h -16.21109 v 0 z"
         style="fill:#3737c8;fill-opacity:1;fill-rule:nonzero;stroke:none;stroke-width:1.11255"
         id="path42-8-4-0-4-9" /><path
         id="path42-8-4-0-2"
         style="fill:#3737c8;fill-opacity:1;fill-rule:nonzero;stroke:none;stroke-width:0.592734"
         d="m 362.83478,166.8976 0.061,41.78789 -5.99937,0.17161 -8.73975,0.15974 -0.0498,-42.11924 z m -14.72798,0 v 4.06807 0 z"
         sodipodi:nodetypes="cccccccccc" /></g></g></svg>
