<?xml version="1.0" encoding="UTF-8" standalone="no"?>
<svg
   xmlns:osb="http://www.openswatchbook.org/uri/2009/osb"
   xmlns:dc="http://purl.org/dc/elements/1.1/"
   xmlns:cc="http://creativecommons.org/ns#"
   xmlns:rdf="http://www.w3.org/1999/02/22-rdf-syntax-ns#"
   xmlns:svg="http://www.w3.org/2000/svg"
   xmlns="http://www.w3.org/2000/svg"
   xmlns:xlink="http://www.w3.org/1999/xlink"
   xmlns:sodipodi="http://sodipodi.sourceforge.net/DTD/sodipodi-0.dtd"
   xmlns:inkscape="http://www.inkscape.org/namespaces/inkscape"
   version="1.1"
   id="svg28"
   xml:space="preserve"
   width="793.70081"
   height="1122.5197"
   viewBox="0 0 793.70081 1122.5197"
   sodipodi:docname="newf_2.svg"
   inkscape:version="1.0 (4035a4f, 2020-05-01)"><metadata
     id="metadata34"><rdf:RDF><cc:Work
         rdf:about=""><dc:format>image/svg+xml</dc:format><dc:type
           rdf:resource="http://purl.org/dc/dcmitype/StillImage" /><dc:title /></cc:Work></rdf:RDF></metadata><defs
     id="defs32"><linearGradient
       osb:paint="solid"
       id="linearGradient3574"><stop
         id="stop3572"
         offset="0"
         style="stop-color:#161650;stop-opacity:1;" /></linearGradient><linearGradient
       osb:paint="solid"
       id="linearGradient3568"><stop
         id="stop3566"
         offset="0"
         style="stop-color:#000000;stop-opacity:1;" /></linearGradient><linearGradient
       osb:paint="solid"
       id="linearGradient3562"><stop
         id="stop3560"
         offset="0"
         style="stop-color:#000000;stop-opacity:1;" /></linearGradient><linearGradient
       osb:paint="solid"
       id="linearGradient3550"><stop
         id="stop3548"
         offset="0"
         style="stop-color:#ffffff;stop-opacity:1;" /></linearGradient><linearGradient
       osb:paint="solid"
       id="linearGradient3441"><stop
         id="stop3439"
         offset="0"
         style="stop-color:#000000;stop-opacity:1;" /></linearGradient><linearGradient
       osb:paint="solid"
       id="linearGradient3431"><stop
         id="stop3429"
         offset="0"
         style="stop-color:#000000;stop-opacity:1;" /></linearGradient><linearGradient
       osb:paint="solid"
       id="dim_sun"><stop
         id="stop1505"
         offset="0"
         style="stop-color:#ffd42a;stop-opacity:1;" /></linearGradient><linearGradient
       osb:paint="solid"
       id="linearGradient1501"><stop
         id="stop1499"
         offset="0"
         style="stop-color:#000000;stop-opacity:1;" /></linearGradient><linearGradient
       gradientTransform="matrix(0.74997448,0.00618978,-0.00618978,0.74997448,1.6890563,-2.3188479)"
       gradientUnits="userSpaceOnUse"
       y2="324.8585"
       x2="365.27297"
       y1="324.8585"
       x1="287.25113"
       id="linearGradient1503"
       xlink:href="#linearGradient1501"
       inkscape:collect="always" /><linearGradient
       gradientTransform="matrix(0.74997448,0.00618978,-0.00618978,0.74997448,1.6890563,-2.3188479)"
       gradientUnits="userSpaceOnUse"
       y2="324.6949"
       x2="464.83869"
       y1="324.6949"
       x1="385.1294"
       id="linearGradient3443"
       xlink:href="#linearGradient3441"
       inkscape:collect="always" /><linearGradient
       gradientUnits="userSpaceOnUse"
       y2="243.15398"
       x2="273.65359"
       y1="243.15398"
       x1="215.00485"
       id="linearGradient3552"
       xlink:href="#linearGradient3550"
       inkscape:collect="always" /><linearGradient
       gradientUnits="userSpaceOnUse"
       y2="242.22565"
       x2="348.3652"
       y1="242.22565"
       x1="288.86084"
       id="linearGradient3564"
       xlink:href="#linearGradient3562"
       inkscape:collect="always" /><linearGradient
       gradientUnits="userSpaceOnUse"
       y2="164.88647"
       x2="349.18713"
       y1="164.88647"
       x1="288.82855"
       id="linearGradient3570"
       xlink:href="#linearGradient3550"
       inkscape:collect="always" /><linearGradient
       gradientUnits="userSpaceOnUse"
       y2="247.49709"
       x2="363.14123"
       y1="247.49709"
       x1="199.73444"
       id="linearGradient3576"
       xlink:href="#linearGradient3574"
       inkscape:collect="always" /></defs><sodipodi:namedview
     inkscape:document-rotation="0"
     pagecolor="#ffffff"
     bordercolor="#666666"
     borderopacity="1"
     objecttolerance="10"
     gridtolerance="10"
     guidetolerance="10"
     inkscape:pageopacity="0"
     inkscape:pageshadow="2"
     inkscape:window-width="1440"
     inkscape:window-height="847"
     id="namedview30"
     showgrid="false"
     inkscape:snap-global="true"
     inkscape:zoom="0.88071927"
     inkscape:cx="394.20586"
     inkscape:cy="297.99007"
     inkscape:window-x="0"
     inkscape:window-y="25"
     inkscape:window-maximized="0"
     inkscape:current-layer="g3460" /><g
     id="g36"
     inkscape:groupmode="layer"
     inkscape:label="name_font4"
     transform="matrix(1.3333333,0,0,1.3333333,0,3.3396326e-5)"><g
       id="g222"
       transform="rotate(180,281.8045,203.496)"><g
         id="g3460"><path
           id="path40"
           style="fill:url(#linearGradient3576);fill-opacity:1;fill-rule:nonzero;stroke:none"
           d="m 274.41025,203.43497 14.7885,0.12206 -0.59927,72.61052 c 14.22127,-2.64072 26.74558,-9.29158 37.58391,-19.94849 14.6103,-14.2739 22.00009,-31.66651 22.16934,-52.17382 l 14.7885,0.12206 c -0.20262,24.55016 -9.00384,45.38024 -26.39965,62.49125 -17.4936,17.20721 -38.51349,25.71002 -63.06365,25.5074 z m -73.94348,-0.61028 14.7895,0.12207 -0.59928,72.61052 c 14.22128,-2.64072 26.74859,-9.29156 37.58291,-19.9485 14.6113,-14.2739 22.00109,-31.66651 22.17035,-52.17381 l 14.7885,0.12206 c -0.20262,24.55016 -8.99983,45.38027 -26.39564,62.49128 -17.49894,17.20684 -38.5185,25.70998 -63.06867,25.50736 z m 0,0 -0.12206,14.7885 z" /><path
           d="m 289.19875,203.55703 -14.7885,-0.12206 0.59927,-72.61052 c -14.22127,2.64072 -26.74558,9.29158 -37.58391,19.94849 -14.6103,14.2739 -22.00009,31.66651 -22.16934,52.17382 l -14.7885,-0.12206 c 0.20262,-24.55016 9.00384,-45.38024 26.39965,-62.49125 17.4936,-17.20721 38.51349,-25.71002 63.06365,-25.5074 z m 73.94348,0.61028 -14.7895,-0.12207 0.59928,-72.61052 c -14.22128,2.64072 -26.74859,9.29156 -37.58291,19.9485 -14.6113,14.2739 -22.00109,31.66651 -22.17035,52.17381 l -14.7885,-0.12206 c 0.20262,-24.55016 8.99983,-45.38027 26.39564,-62.49128 17.49894,-17.20684 38.5185,-25.70998 63.06867,-25.50736 z m 0,0 0.12206,-14.7885 z"
           style="fill:#161650;fill-opacity:1;fill-rule:nonzero;stroke:none;stroke-width:0.999998"
           id="path40-0" /><path
           sodipodi:nodetypes="cccccccccc"
           d="m 200.75881,197.63743 162.42525,1.34055 -0.10746,13.02033 -162.42525,-1.34054 z m -0.10746,13.02034 16.21054,0.13378 v 0 z"
           style="fill:#161650;fill-opacity:1;fill-rule:nonzero;stroke:none;stroke-width:1.11255"
           id="path42-8-4-0-4-9" /><path
           style="fill:#3737c8;fill-opacity:1;fill-rule:evenodd;stroke:url(#linearGradient3443);stroke-width:1.54583;stroke-opacity:1"
           d="m 289.29002,243.50547 0.26457,-32.05541 29.05112,0.23977 29.05111,0.23977 -0.54688,3.28047 c -3.67587,22.04927 -16.62793,40.52945 -36.72126,52.39444 -4.86538,2.87296 -14.60235,6.75182 -18.84748,7.50815 l -2.51574,0.44822 z"
           id="path1425" /><path
           style="fill:#806600;fill-opacity:1;fill-rule:evenodd;stroke:url(#linearGradient1503);stroke-width:0.565512;stroke-opacity:1"
           d="m 215.10927,243.09476 0.26603,-32.2331 29.2572,0.24147 29.25719,0.24147 -0.13608,0.77648 c -0.0748,0.42706 -0.28337,1.79322 -0.46338,3.03591 -1.6299,11.25202 -6.65556,22.8281 -14.05896,32.38335 -2.65203,3.42286 -8.89693,9.79089 -12.59493,12.84324 -6.06141,5.00314 -14.92031,10.00122 -21.87482,12.3415 -2.70008,0.90862 -9.00697,2.61031 -9.65464,2.60495 -0.16148,-0.001 -0.16056,-12.49251 0.002,-32.23527 z"
           id="path1495" /><g
           style="stroke:url(#linearGradient3564)"
           transform="rotate(-179.52713,281.8045,203.496)"
           id="g3450"><path
             transform="matrix(-0.75000002,0,0,-0.75000002,563.609,406.99203)"
             id="path3447"
             d="m 287.94705,260.05364 c 2.56388,-30.33063 22.99308,-60.2679 51.82336,-75.94277 7.07554,-3.84693 21.36732,-8.96474 25.03875,-8.96623 0.91422,-3.8e-4 0.96835,2.48949 0.96835,44.54367 v 44.54408 h -39.09185 -39.09184 z"
             style="fill:#3737c8;fill-opacity:1;fill-rule:evenodd;stroke:url(#linearGradient3564);stroke-width:1.10669;stroke-opacity:1" /></g><path
           id="path3480"
           d="m 318.5208,198.22666 -28.78908,-0.24529 0.96627,-6.04803 c 2.9854,-18.68628 13.60836,-35.92308 28.99099,-47.04076 7.71898,-5.57884 13.50258,-8.48576 22.20728,-11.16175 l 6.51103,-2.0016 -0.26647,33.09375 c -0.14655,18.20156 -0.39347,33.21868 -0.5487,33.37137 -0.15523,0.15268 -13.23733,0.16723 -29.07132,0.0323 z"
           style="fill:#ffd42a;fill-opacity:1;fill-rule:evenodd;stroke:url(#linearGradient3570);stroke-width:1.54277;stroke-opacity:1" /><path
           id="path3482"
           d="m 240.41176,264.13192 c -6.09068,3.7947 -14.55974,7.65737 -20.01198,9.12729 l -4.61542,1.24433 0.25268,-31.46536 0.25267,-31.46536 28.08943,0.22404 c 15.44919,0.12322 28.23928,0.37639 28.42245,0.5626 0.51022,0.51871 -1.50442,9.42758 -3.39768,15.02474 -3.32255,9.82266 -7.63075,16.5104 -16.57161,25.7246 -5.70098,5.87528 -9.33609,9.10141 -12.42054,11.02312 z"
           style="fill:#ffd42a;fill-opacity:1;fill-rule:evenodd;stroke:url(#linearGradient3552);stroke-width:1.54277;stroke-opacity:1" /></g></g></g></svg>
